<svg width="19" height="20" viewBox="0 0 19 20" fill="none" xmlns="http://www.w3.org/2000/svg">
<path d="M12.296 19.1663H6.24569C6.02433 19.1663 5.87676 19.083 5.72919 18.9163L1.3759 13.9997C1.22833 13.9163 1.15454 13.6663 1.15454 13.4163V6.58301C1.15454 6.33301 1.22833 6.16634 1.3759 5.99967L5.72919 1.08301C5.80298 0.916341 6.02433 0.833008 6.24569 0.833008H12.3698C12.5912 0.833008 12.7387 0.916341 12.8863 1.08301L17.2396 5.99967C17.3134 6.08301 17.3872 6.33301 17.3872 6.58301V13.4997C17.3872 13.7497 17.3134 13.9163 17.1658 14.083L12.8125 18.9997C12.7387 19.083 12.5174 19.1663 12.296 19.1663ZM6.54083 17.4997H12.0747L15.9853 13.083V6.91634L12.0009 2.49967H6.54083L2.63024 6.91634V13.1663L6.54083 17.4997Z" fill="black"/>
<path d="M9.27086 10.833C8.82815 10.833 8.53301 10.4997 8.53301 9.99967V6.66634C8.53301 6.16634 8.82815 5.83301 9.27086 5.83301C9.71357 5.83301 10.0087 6.16634 10.0087 6.66634V9.99967C10.0087 10.4997 9.71357 10.833 9.27086 10.833Z" fill="black"/>
<path d="M9.27086 14.1663C9.04951 14.1663 8.90194 14.083 8.75437 13.9163C8.6068 13.7497 8.53301 13.583 8.53301 13.333C8.53301 13.2497 8.53301 13.083 8.6068 12.9997C8.68058 12.9163 8.68058 12.833 8.75437 12.7497C8.97572 12.4997 9.27086 12.4163 9.566 12.583C9.63978 12.583 9.63979 12.583 9.71357 12.6663C9.71357 12.6663 9.78735 12.7497 9.86114 12.7497C9.93492 12.833 10.0087 12.9163 10.0087 12.9997C10.0087 13.083 10.0087 13.2497 10.0087 13.333C10.0087 13.4163 10.0087 13.583 9.93492 13.6663C9.86114 13.7497 9.86114 13.833 9.78735 13.9163C9.63978 14.083 9.49222 14.1663 9.27086 14.1663Z" fill="black"/>
</svg>
