<svg xmlns="http://www.w3.org/2000/svg" width="32" height="32" viewBox="0 0 32 32" fill="none">
  <path d="M8.99935 28.0003C7.26602 28.0003 5.77713 27.3781 4.53268 26.1337C3.28824 24.8892 2.66602 23.4003 2.66602 21.667C2.66602 20.1781 3.09935 18.8781 3.96602 17.767C4.83268 16.6559 5.9549 15.9225 7.33268 15.567V17.667C6.5549 17.9781 5.91602 18.4948 5.41602 19.217C4.91602 19.9392 4.66602 20.7559 4.66602 21.667C4.66602 22.867 5.08824 23.8892 5.93268 24.7337C6.77713 25.5781 7.79935 26.0003 8.99935 26.0003C10.1993 26.0003 11.2216 25.5781 12.066 24.7337C12.9105 23.8892 13.3327 22.867 13.3327 21.667V20.667H21.6327C21.8105 20.467 22.0216 20.3059 22.266 20.1837C22.5105 20.0614 22.7549 20.0003 22.9993 20.0003C23.466 20.0003 23.8605 20.1614 24.1827 20.4837C24.5049 20.8059 24.666 21.2003 24.666 21.667C24.666 22.1114 24.5049 22.5003 24.1827 22.8337C23.8605 23.167 23.466 23.3337 22.9993 23.3337C22.7549 23.3337 22.5105 23.2725 22.266 23.1503C22.0216 23.0281 21.8105 22.867 21.6327 22.667H15.266C14.9549 24.2003 14.216 25.4725 13.0493 26.4837C11.8827 27.4948 10.5327 28.0003 8.99935 28.0003ZM22.9993 28.0003C21.9327 28.0003 20.9493 27.7559 20.0493 27.267C19.1493 26.7781 18.4105 26.1337 17.8327 25.3337H20.6993C21.0327 25.5559 21.3938 25.7225 21.7827 25.8337C22.1716 25.9448 22.5771 26.0003 22.9993 26.0003C24.1993 26.0003 25.2216 25.5781 26.066 24.7337C26.9105 23.8892 27.3327 22.867 27.3327 21.667C27.3327 20.467 26.9105 19.4448 26.066 18.6003C25.2216 17.7559 24.1993 17.3337 22.9993 17.3337C22.5771 17.3337 22.1882 17.3837 21.8327 17.4837C21.4771 17.5837 21.1327 17.7337 20.7993 17.9337L16.4993 10.667C16.0549 10.5781 15.6938 10.3837 15.416 10.0837C15.1382 9.78366 14.9993 9.42255 14.9993 9.00033C14.9993 8.53366 15.166 8.13921 15.4993 7.81699C15.8327 7.49477 16.2216 7.33366 16.666 7.33366C17.1327 7.33366 17.5271 7.49477 17.8493 7.81699C18.1716 8.13921 18.3327 8.53366 18.3327 9.00033C18.3327 9.08921 18.3271 9.17255 18.316 9.25033C18.3049 9.3281 18.2771 9.44477 18.2327 9.60033L21.666 15.467C21.9105 15.4225 22.1493 15.3892 22.3827 15.367C22.616 15.3448 22.8216 15.3337 22.9993 15.3337C24.7549 15.3337 26.2493 15.9503 27.4827 17.1837C28.716 18.417 29.3327 19.9114 29.3327 21.667C29.3327 23.4003 28.716 24.8892 27.4827 26.1337C26.2493 27.3781 24.7549 28.0003 22.9993 28.0003ZM8.99935 23.3337C8.5549 23.3337 8.16602 23.167 7.83268 22.8337C7.49935 22.5003 7.33268 22.1114 7.33268 21.667C7.33268 21.267 7.47157 20.917 7.74935 20.617C8.02713 20.317 8.37713 20.1114 8.79935 20.0003L12.4993 13.767C11.8327 13.1225 11.3049 12.3948 10.916 11.5837C10.5271 10.7725 10.3327 9.91144 10.3327 9.00033C10.3327 7.24477 10.9549 5.75033 12.1993 4.51699C13.4438 3.28366 14.9327 2.66699 16.666 2.66699C18.3549 2.66699 19.8105 3.25033 21.0327 4.41699C22.2549 5.58366 22.9105 7.00033 22.9993 8.66699H20.9993C20.9327 7.53366 20.4827 6.58366 19.6493 5.81699C18.816 5.05033 17.8216 4.66699 16.666 4.66699C15.466 4.66699 14.4438 5.08921 13.5993 5.93366C12.7549 6.7781 12.3327 7.80033 12.3327 9.00033C12.3327 9.93366 12.6049 10.7725 13.1493 11.517C13.6938 12.2614 14.3882 12.7892 15.2327 13.1003L10.5327 21.0337C10.5771 21.167 10.6105 21.2837 10.6327 21.3837C10.6549 21.4837 10.666 21.5781 10.666 21.667C10.666 22.1114 10.5049 22.5003 10.1827 22.8337C9.86046 23.167 9.46602 23.3337 8.99935 23.3337Z" fill="#00336A"/>
</svg>