<svg width="21" height="21" viewBox="0 0 21 21" fill="none" xmlns="http://www.w3.org/2000/svg">
<g clip-path="url(#clip0_703_7782)">
<path d="M4.22156 14.8991H3.38822C2.9462 14.8991 2.52227 14.7235 2.20971 14.4109C1.89715 14.0984 1.72156 13.6744 1.72156 13.2324V4.89909C1.72156 4.45706 1.89715 4.03314 2.20971 3.72058C2.52227 3.40802 2.9462 3.23242 3.38822 3.23242H16.7216C17.1636 3.23242 17.5875 3.40802 17.9001 3.72058C18.2126 4.03314 18.3882 4.45706 18.3882 4.89909V13.2324C18.3882 13.6744 18.2126 14.0984 17.9001 14.4109C17.5875 14.7235 17.1636 14.8991 16.7216 14.8991H15.8882" stroke="black" stroke-width="2" stroke-linecap="round" stroke-linejoin="round"/>
<path d="M10.055 13.2324L14.2216 18.2324H5.88831L10.055 13.2324Z" stroke="black" stroke-width="2" stroke-linecap="round" stroke-linejoin="round"/>
</g>
<defs>
<clipPath id="clip0_703_7782">
<rect width="20" height="20" fill="white" transform="translate(0.0549316 0.732422)"/>
</clipPath>
</defs>
</svg>
