<svg width="200" height="200" viewBox="0 0 200 200" fill="none" xmlns="http://www.w3.org/2000/svg">
<g clip-path="url(#clip0_3274_16248)">
<path d="M113.059 29.7259C115.148 32.5036 116.392 35.9555 116.392 39.6962C116.392 48.8962 108.933 56.3555 99.7258 56.3555C90.5332 56.3555 83.0666 48.8962 83.0666 39.6962C83.0666 30.4962 90.5258 23.037 99.7258 23.037C100.044 23.037 100.363 23.0666 100.674 23.0888C99.9999 23.0073 99.3184 22.9629 98.6147 22.9629C88.2147 22.9629 79.7925 31.3925 79.7925 41.7925C79.7925 52.1851 88.2221 60.6147 98.6147 60.6147C109.015 60.6147 117.444 52.1851 117.444 41.7925C117.444 37.1999 115.792 32.9925 113.059 29.7259Z" fill="#86BBE7"/>
<path d="M105.392 67.9482C127.326 60.9333 126.807 26.5482 103.489 23.6519C124.726 27.4815 121.718 54.4667 109.807 60.9333C89.0664 72.1926 74.7553 52.7333 44.5034 62.4741C72.4219 57.0222 86.0442 74.1333 105.392 67.9482Z" fill="#4A9FDC"/>
<path d="M138.659 54.7925C117.526 79.2591 84.57 71.0147 64.644 66.2666C88.1107 74.7628 120.77 87.6666 138.659 54.7925Z" fill="#86BBE7"/>
<path d="M132.014 76.2592C95.9773 100.97 87.9773 59.9851 44.9106 75.9407C78.5699 65.3185 88.2588 108.689 132.014 76.2592Z" fill="#86BBE7"/>
<path d="M85.2588 39.0001C85.2588 47.0667 91.7995 53.6149 99.8736 53.6149C107.948 53.6149 114.488 47.0667 114.488 39.0001C114.488 30.926 107.948 24.3853 99.8736 24.3853C91.7995 24.3779 85.2588 30.926 85.2588 39.0001Z" fill="url(#paint0_radial_3274_16248)"/>
<path d="M15.2073 130.703C15.1555 130.866 15.0814 130.955 14.9925 130.985C14.8962 131.015 14.6814 131.052 14.2296 131.052H4.55548C4.06659 131.052 3.93326 131.007 3.90363 131C3.89622 130.992 3.80734 130.948 3.66659 130.681L3.59993 130.548H2.96289L3.84437 132.777H4.46659L4.37771 132.474C4.31845 132.266 4.31104 132.177 4.31104 132.148C4.31104 132.066 4.32585 132.044 4.32585 132.044C4.35548 132.029 4.48882 131.992 4.96289 131.992H8.3703V144.452C8.3703 145.059 8.274 145.244 8.22956 145.296C8.19993 145.333 8.05919 145.459 7.46659 145.496L7.24437 145.511V146.111H11.6666V145.496H11.4296C11.0666 145.496 10.8962 145.466 10.8147 145.437C10.7407 145.407 10.6666 145.333 10.6147 145.207C10.5703 145.096 10.511 144.844 10.511 144.244V131.992H14.0814C14.3555 131.992 14.4666 132.022 14.5184 132.044C14.5184 132.044 14.5333 132.059 14.5333 132.118C14.5333 132.318 14.5184 132.429 14.5036 132.489L14.4296 132.777H15.037L15.9184 130.548H15.2592L15.2073 130.703Z" fill="white"/>
<path d="M26.6297 131.666H26.8668C27.2223 131.666 27.452 131.733 27.5112 131.851C27.5705 131.977 27.6445 132.274 27.6445 132.962V137.948H20.0964V132.474C20.0964 132.014 20.1927 131.874 20.2371 131.837C20.2964 131.785 20.4668 131.688 20.9334 131.659L21.1557 131.644V131.044H16.9112V131.651L17.1334 131.659C17.6668 131.681 17.7853 131.807 17.8075 131.844C17.8446 131.911 17.9334 132.148 17.9334 132.992V144.725C17.9334 145.022 17.8668 145.229 17.7408 145.348C17.6223 145.459 17.4223 145.511 17.1557 145.488L16.9038 145.474V146.111H21.1483V145.496H20.9112C20.5408 145.496 20.3927 145.429 20.3408 145.392C20.2445 145.318 20.1779 145.237 20.1483 145.14C20.126 145.074 20.089 144.859 20.089 144.207V138.829H27.6371V144.148C27.6371 145.081 27.5186 145.288 27.489 145.333C27.4001 145.437 27.1779 145.496 26.8594 145.496H26.6223V146.111H30.8149V145.496H30.5779C30.2223 145.496 30.089 145.437 30.0371 145.399C29.9483 145.333 29.8816 145.259 29.8445 145.155C29.8223 145.103 29.7779 144.903 29.7779 144.162V132.97C29.7779 132.199 29.8223 131.992 29.8445 131.94C29.8742 131.851 29.9334 131.792 30.0223 131.748C30.0964 131.711 30.2594 131.666 30.5779 131.666H30.8149V131.051H26.6223V131.666H26.6297Z" fill="white"/>
<path d="M42.5924 143.837C42.4887 144.511 42.3554 144.733 42.2887 144.807C42.1628 144.94 42.0072 145.029 41.822 145.074C41.6813 145.111 41.3035 145.148 40.3109 145.148H37.7406C37.2072 145.148 36.8146 145.111 36.5628 145.044C36.3628 144.985 36.2146 144.844 36.1183 144.614C36.0072 144.348 35.948 143.881 35.948 143.237V138.962H40.3035C40.6961 138.962 40.8294 139.014 40.8739 139.037C40.9257 139.066 40.9702 139.14 40.985 139.259L41.022 139.451H41.5998V137.607H40.9924L40.985 137.829C40.9776 137.933 40.9406 137.977 40.8961 138.007C40.8813 138.014 40.7628 138.088 40.185 138.088H35.948V132.007H40.5257C41.1924 132.007 41.3331 132.118 41.3554 132.14C41.3924 132.177 41.5331 132.37 41.7924 133.348L41.8369 133.525H42.3998V131.044H32.7628V131.681H32.9998C33.3776 131.681 33.6294 131.748 33.6739 131.866C33.7257 131.992 33.7924 132.281 33.7924 132.903V144.681C33.7924 145.088 33.7109 145.281 33.6369 145.325C33.4961 145.414 33.2739 145.466 32.9776 145.481L32.7554 145.496V146.103H43.1998V143.637H42.6146L42.5924 143.837Z" fill="white"/>
<path d="M56.9998 131.57C56.2887 131.222 55.1998 131.052 53.6738 131.052H49.2812V131.667H49.5183C49.9701 131.667 50.1183 131.77 50.1627 131.83C50.2146 131.896 50.3109 132.111 50.3109 132.711V144.785C50.3109 145.281 50.0738 145.489 49.5183 145.489H49.2812V146.104H53.5998V145.489H53.3627C52.859 145.489 52.6738 145.4 52.6146 145.341C52.6072 145.333 52.459 145.2 52.459 144.259V132.007H53.2664C54.2664 132.007 55.0072 132.141 55.4813 132.415C55.9479 132.681 56.3109 133.074 56.5701 133.593C56.8294 134.118 56.9627 134.726 56.9627 135.407C56.9627 136.274 56.7035 136.955 56.1627 137.481C55.622 138.007 54.9405 138.267 54.0738 138.267H53.8368V138.881L54.0664 138.889C55.5701 138.918 56.785 138.6 57.6738 137.948C58.585 137.281 59.0442 136.281 59.0442 134.97C59.0442 134.126 58.8738 133.422 58.5479 132.896C58.2294 132.363 57.7035 131.918 56.9998 131.57Z" fill="white"/>
<path d="M70.2593 143.837C70.1556 144.511 70.0223 144.733 69.9556 144.807C69.8297 144.94 69.6741 145.029 69.4889 145.074C69.3482 145.111 68.963 145.148 67.9778 145.148H65.4075C64.8741 145.148 64.4815 145.111 64.2297 145.044C64.0223 144.985 63.8815 144.851 63.7852 144.614C63.6741 144.348 63.6149 143.881 63.6149 143.237V138.962H67.9704C68.363 138.962 68.4964 139.014 68.5408 139.037C68.5926 139.066 68.6371 139.14 68.6519 139.259L68.6889 139.451H69.2667V137.607H68.6593L68.6519 137.829C68.6445 137.933 68.6075 137.977 68.563 138.007C68.5482 138.014 68.4297 138.088 67.8519 138.088H63.6223V132.007H68.2001C68.8667 132.007 69.0075 132.118 69.0297 132.14C69.0667 132.177 69.2075 132.37 69.4667 133.348L69.5112 133.525H70.0741V131.044H60.4297V131.681H60.6667C61.0371 131.681 61.2964 131.748 61.3408 131.866C61.3926 131.992 61.4593 132.281 61.4593 132.903V144.681C61.4593 145.088 61.3778 145.281 61.3112 145.325C61.1704 145.414 60.9482 145.466 60.6519 145.481L60.4297 145.496V146.103H70.8741V143.637H70.2889L70.2593 143.837Z" fill="white"/>
<path d="M84.5257 144.785C84.1998 144.096 84.1553 143.948 84.1479 143.948L78.9257 130.97L78.8665 130.822H78.2887L72.9405 144.311C72.6516 145.029 72.459 145.251 72.3702 145.311C72.2146 145.422 72.0146 145.481 71.7776 145.481H71.5405V146.096H74.1776V145.481H73.9405C73.6887 145.481 73.6887 145.414 73.6887 145.392C73.6887 145.37 73.7035 145.251 73.8961 144.748L76.0442 139.385H80.0072L82.0368 144.422L82.059 144.511C82.0813 144.585 82.1109 144.644 82.1479 144.688C82.3183 145.103 82.3405 145.288 82.3405 145.355C82.3405 145.422 82.3405 145.488 82.1109 145.488H81.8739V146.103H85.7479V145.488H85.5109C85.0813 145.496 84.7553 145.259 84.5257 144.785ZM76.385 138.518L78.0146 134.414L79.6442 138.518H76.385Z" fill="white"/>
<path d="M102.2 144.644C101.607 145 101.081 145.177 100.637 145.177C100.185 145.177 99.7036 145.037 99.2147 144.762C98.7184 144.488 97.9925 143.688 97.0444 142.377C96.0888 141.051 95.4888 140.185 95.2592 139.785L94.3629 138.407C95.1036 137.948 95.6888 137.4 96.1184 136.762C96.5851 136.059 96.8295 135.303 96.8295 134.518C96.8295 133.837 96.6962 133.244 96.4221 132.762C96.1481 132.281 95.7407 131.888 95.2147 131.607C94.6962 131.333 94.1851 131.17 93.6888 131.118C93.2147 131.074 92.437 131.044 91.3851 131.044H87.0073V131.659H87.237C87.4592 131.659 87.8444 131.696 87.9258 131.896C88.0147 132.111 88.0592 132.4 88.0592 132.748V144.34C88.0592 144.992 87.9777 145.222 87.9258 145.303C87.9036 145.34 87.7777 145.474 87.237 145.496L87.0147 145.503V146.111H91.2444V145.496H91.0073C90.6592 145.496 90.4221 145.429 90.3555 145.318C90.2888 145.214 90.2147 144.977 90.2147 144.474V139.125L92.3333 139.088L93.7036 141.199L93.7481 141.274C95.2814 143.555 96.3333 144.918 96.9629 145.437C97.6073 145.97 98.3925 146.237 99.2888 146.237C100.607 146.237 101.696 145.896 102.526 145.214L102.644 145.118L102.452 144.481L102.2 144.644ZM91.5036 138.281H90.2073V131.903H91.1703C92.5258 131.903 93.4814 132.274 93.9999 133.007C94.5407 133.762 94.8147 134.577 94.8147 135.422C94.8147 136.288 94.5555 136.962 94.0147 137.496C93.4814 138.014 92.637 138.281 91.5036 138.281Z" fill="white"/>
<path d="M113.244 142.363C113.2 143.466 113 144.222 112.637 144.6C112.289 144.97 111.711 145.163 110.926 145.163H109.148C108.185 145.163 107.511 145 107.133 144.681C106.77 144.37 106.585 143.807 106.585 143V132.755C106.585 132.192 106.622 132.029 106.637 131.985C106.667 131.911 106.726 131.837 106.829 131.778C106.889 131.741 107.052 131.674 107.467 131.674H107.704V131.059H103.318V131.674L103.548 131.681C104.178 131.696 104.289 131.837 104.304 131.866C104.363 131.97 104.429 132.192 104.429 132.666V144.607C104.429 145.059 104.348 145.252 104.274 145.341C104.237 145.392 104.089 145.511 103.57 145.511H103.333V146.126H113.859V142.148H113.252L113.244 142.363Z" fill="white"/>
<path d="M120.281 131.681L120.526 131.667C120.778 131.652 121.104 131.667 121.207 131.837C121.267 131.933 121.37 132.23 121.37 133.074V144.163C121.37 145.007 121.274 145.252 121.229 145.318C121.207 145.355 121.074 145.489 120.518 145.489H120.281V146.104H124.644V145.489H124.407C123.992 145.489 123.829 145.43 123.77 145.392C123.674 145.333 123.607 145.259 123.578 145.17C123.563 145.133 123.518 144.948 123.518 144.141V132.948C123.518 132.237 123.555 132.007 123.57 131.933C123.6 131.837 123.748 131.778 123.837 131.748C124.037 131.681 124.222 131.652 124.378 131.667L124.637 131.696V131.052H120.274V131.681H120.281Z" fill="white"/>
<path d="M132.911 137.903C132.348 137.644 131.333 137.266 129.822 136.763C129 136.437 128.459 136.088 128.215 135.733C127.97 135.377 127.844 134.948 127.844 134.466C127.844 133.718 128.111 133.096 128.652 132.57C129.185 132.044 129.933 131.777 130.859 131.777C131.415 131.777 131.926 131.874 132.363 132.066C132.807 132.259 133.2 132.54 133.548 132.903C133.793 133.163 133.956 133.333 134.03 133.414V133.6L134.704 133.488L133.911 131.4L133.882 131.251H133.719C133.674 131.229 133.593 131.185 132.711 131.014C130.593 130.6 128.985 130.948 127.859 132.059C127.044 132.866 126.622 133.881 126.622 135.066C126.622 135.718 126.785 136.363 127.104 136.977C127.422 137.6 127.837 138.081 128.319 138.392C128.793 138.696 129.578 139.044 130.726 139.444C131.822 139.822 132.578 140.14 132.956 140.4C133.326 140.651 133.622 140.94 133.83 141.259C134.03 141.57 134.126 141.963 134.126 142.414C134.126 143.177 133.837 143.814 133.237 144.363C132.637 144.911 131.741 145.185 130.563 145.185C129.259 145.185 128.296 144.925 127.696 144.407C127.104 143.903 126.8 142.97 126.785 141.644V141.414H126.17V146.125H130.296C130.511 146.125 130.933 146.088 131.593 146.014C132.267 145.94 132.748 145.829 133.074 145.674C133.393 145.525 133.704 145.296 134.015 145.007C134.319 144.718 134.578 144.4 134.793 144.051C135.007 143.703 135.17 143.333 135.267 142.948C135.363 142.57 135.415 142.17 135.415 141.755C135.415 140.755 135.141 139.918 134.593 139.266C134.052 138.622 133.489 138.17 132.911 137.903Z" fill="white"/>
<path d="M146.356 142.363C146.311 143.466 146.111 144.222 145.748 144.6C145.4 144.97 144.822 145.163 144.037 145.163H142.259C141.296 145.163 140.622 145 140.245 144.681C139.882 144.37 139.696 143.807 139.696 143V132.755C139.696 132.192 139.733 132.029 139.748 131.985C139.778 131.911 139.837 131.837 139.941 131.778C140 131.741 140.163 131.674 140.578 131.674H140.815V131.059H136.43V131.674L136.659 131.681C137.289 131.696 137.4 131.837 137.415 131.866C137.474 131.97 137.541 132.192 137.541 132.666V144.607C137.541 145.059 137.459 145.252 137.385 145.341C137.348 145.392 137.2 145.511 136.682 145.511H136.445V146.126H146.97V142.148H146.363L146.356 142.363Z" fill="white"/>
<path d="M161.089 144.785C160.763 144.096 160.718 143.948 160.711 143.948L155.489 130.97L155.429 130.822H154.852L149.504 144.311C149.215 145.029 149.022 145.251 148.933 145.311C148.778 145.422 148.578 145.481 148.341 145.481H148.104V146.096H150.741V145.481H150.504C150.252 145.481 150.252 145.414 150.252 145.392C150.252 145.37 150.266 145.251 150.459 144.748L152.607 139.385H156.57L158.6 144.422L158.622 144.511C158.644 144.585 158.674 144.644 158.711 144.688C158.881 145.103 158.904 145.288 158.904 145.355C158.904 145.422 158.904 145.488 158.674 145.488H158.437V146.103H162.311V145.488H162.074C161.644 145.496 161.318 145.259 161.089 144.785ZM152.948 138.518L154.578 134.414L156.207 138.518H152.948Z" fill="white"/>
<path d="M175.533 131.666H175.77C176.037 131.666 176.252 131.718 176.407 131.814C176.452 131.844 176.593 131.977 176.593 132.629V142.333L166.059 131.118L165.993 131.044H162.911V131.674L163.156 131.659C163.919 131.622 164.4 131.829 164.6 132.281C164.83 132.8 164.941 133.481 164.941 134.303V144.17C164.941 145.014 164.844 145.251 164.8 145.318C164.77 145.355 164.644 145.481 164.059 145.481H163.822V146.096H167.096V145.511L166.896 145.481C166.378 145.4 166.259 145.348 166.237 145.333C166.193 145.303 166.148 145.229 166.111 145.126C166.082 145.029 166.044 144.829 166.044 144.437V134.237L177.682 146.629V132.755C177.682 132.133 177.793 131.926 177.859 131.851C177.941 131.77 178.133 131.666 178.593 131.651L178.822 131.644V131.037H175.533V131.666Z" fill="white"/>
<path d="M196.126 135.052C195.681 134.126 195.074 133.355 194.318 132.763C193.563 132.17 192.667 131.733 191.652 131.459C190.652 131.185 189.267 131.052 187.555 131.052H180.622V131.667H180.859C181.326 131.667 181.474 131.77 181.526 131.83C181.548 131.859 181.674 132.067 181.674 133.118V143.741C181.674 144.637 181.592 145.037 181.518 145.215C181.467 145.348 181.363 145.496 181.037 145.496H180.622V146.111H187.711C189.504 146.111 190.852 145.97 191.718 145.689C192.6 145.407 193.444 144.874 194.229 144.111C195.015 143.348 195.644 142.43 196.096 141.378C196.555 140.326 196.785 139.237 196.785 138.148C196.792 137.015 196.57 135.978 196.126 135.052ZM193.111 143.237C192.059 144.578 190.178 145.252 187.533 145.252C186.57 145.252 185.807 145.178 185.244 145.03C184.718 144.889 184.348 144.667 184.141 144.37C183.926 144.067 183.822 143.578 183.822 142.911V131.822H185.829C188.807 131.822 191.052 132.518 192.518 133.896C193.978 135.267 194.718 136.918 194.718 138.785C194.718 140.393 194.178 141.889 193.111 143.237Z" fill="white"/>
<path d="M108.104 102.667H107.837V102.933V103.074V103.333C107.837 103.333 108.207 103.341 108.252 103.341C108.889 103.341 108.948 103.57 108.948 104.741V115.978C108.948 117.222 108.926 117.259 108.104 117.289L107.844 117.296V117.555V117.704V117.97H108.111H112.052H112.318V117.704V117.555V117.281L112.044 117.289H111.978C111.215 117.289 111.192 117.155 111.192 115.955V104.615C111.192 104.015 111.207 103.904 111.207 103.896V103.874V103.852C111.207 103.644 111.274 103.518 111.429 103.437C111.592 103.348 111.8 103.341 111.911 103.341C111.963 103.341 112.318 103.348 112.318 103.348V103.081V102.941V102.674H112.052H108.104V102.667Z" fill="white"/>
<path d="M101.77 103.333L102.044 103.341C102.355 103.318 102.57 103.363 102.681 103.474C102.881 103.659 102.881 104.141 102.881 104.741V115.978C102.881 116.474 102.874 116.837 102.793 117.03H92.9259C92.837 116.822 92.837 116.444 92.837 115.956V104.615C92.837 104.015 92.8518 103.904 92.8592 103.852C92.8592 103.696 92.9036 103.578 92.9925 103.496C93.1703 103.333 93.511 103.318 93.6814 103.333L93.9703 103.341V102.667H89.5036V103.326L89.7777 103.333C90.0888 103.311 90.3036 103.356 90.4147 103.467C90.6147 103.652 90.6147 104.133 90.6147 104.733V115.97C90.6147 116.467 90.6073 116.83 90.5259 117.022H77.8073L79.3333 114.526C79.4296 114.378 79.5185 114.23 79.6147 114.067C80.4073 112.674 80.8296 111.03 80.8296 109.311C80.8296 105.326 77.7481 102.437 73.5036 102.437C67.6147 102.437 64.9629 107.504 64.9629 111.104C64.9629 115.141 68.0814 118.185 72.2073 118.185C73.111 118.185 73.9777 118.074 74.7851 117.844C74.2814 118.615 72.8666 120.637 71.8814 121.763C71.5629 122.141 70.6814 122.859 69.637 122.859C69.1407 122.859 68.9259 122.763 68.7407 122.674C68.5185 122.578 68.3407 122.474 68.2073 122.393C68.1481 122.356 68.0962 122.326 68.0592 122.311L67.7777 122.163L67.5703 122.844L67.7184 122.956C68.1777 123.296 68.474 123.474 68.911 123.652C69.3259 123.815 70.1259 124 70.9999 124C72.2444 124 73.2518 123.496 74.0962 122.467C75.2296 121.081 76.6073 119.03 76.6222 119.015L77.2444 117.963H106.244V117.289L105.978 117.296C105.615 117.304 105.385 117.259 105.281 117.156C105.118 116.993 105.118 116.563 105.118 115.963V104.622C105.118 104.022 105.133 103.911 105.133 103.904V103.867C105.133 103.711 105.178 103.593 105.267 103.511C105.444 103.348 105.785 103.333 105.955 103.348L106.244 103.356V102.681H101.778V103.333H101.77ZM73.437 116.889C69.8666 116.889 66.6147 113.252 66.6147 109.267C66.6147 105.97 69.4666 103.756 72.1259 103.756C75.0814 103.756 79.3777 106.63 79.3777 111.133C79.3777 114.193 76.5999 116.889 73.437 116.889Z" fill="white"/>
<path d="M65.6224 106.54L65.6446 106.437L65.8002 105.592L65.8668 105.259L65.5928 105.466L65.5631 105.489C65.3261 105.674 65.1187 105.829 64.2224 105.829H63.3557C62.3853 105.415 61.8594 104.807 61.8594 104.126C61.8594 103.992 61.9039 103.874 62.0002 103.777C62.215 103.563 62.6446 103.444 63.1853 103.444C64.0076 103.444 64.5113 103.785 64.8224 104.044L65.0594 104.237L65.0372 103.933L64.9853 103.17L64.9779 103.089L64.8965 103.059C64.4298 102.881 63.6446 102.807 63.1113 102.807C61.452 102.807 60.5335 103.34 60.5335 104.318C60.5335 104.822 60.852 105.392 61.3483 105.829C60.7853 105.829 60.3261 105.777 60.0372 105.215C60.015 105.118 59.889 105.118 59.8298 105.118H59.7409L59.6965 105.2L59.689 105.215V105.237C59.6816 105.303 59.6816 105.422 59.6816 105.511V105.577C59.6816 105.837 59.6965 106.126 59.8076 106.303C59.9409 106.518 60.3483 106.533 61.0002 106.533L65.5039 106.54H65.6224Z" fill="white"/>
<path d="M52.8593 103.333L53.1334 103.341C53.4445 103.318 53.6593 103.363 53.7705 103.474C53.9705 103.659 53.9705 104.141 53.9705 104.741V115.978C53.9705 116.474 53.9631 116.837 53.8816 117.03H41.1556L42.6742 114.541C42.7779 114.392 42.8668 114.244 42.9631 114.074L43.1853 113.681H43.1631C43.8223 112.37 44.1705 110.874 44.1705 109.318C44.1705 105.333 41.089 102.444 36.8371 102.444C30.9482 102.444 28.2964 107.511 28.2964 111.111C28.2964 115.148 31.4075 118.192 35.5408 118.192C36.4445 118.192 37.3112 118.081 38.1186 117.852C37.6075 118.63 36.1853 120.659 35.2149 121.77C34.8964 122.148 34.0223 122.867 32.9705 122.867C32.4668 122.867 32.2519 122.763 32.0742 122.681C31.8519 122.585 31.6668 122.474 31.5334 122.4C31.4742 122.37 31.4297 122.341 31.3927 122.318L31.1112 122.17L30.9038 122.859L31.0519 122.97C31.5112 123.318 31.8075 123.489 32.2445 123.667C32.6593 123.83 33.4519 124.015 34.3334 124.015C35.5705 124.015 36.5853 123.511 37.4297 122.481C38.4593 121.23 39.7038 119.4 39.9482 119.037L40.5705 117.978H57.3038V117.304L57.0371 117.311C56.6742 117.326 56.4445 117.274 56.3408 117.17C56.1779 117.007 56.1779 116.578 56.1779 115.978V104.741C56.1779 104.163 56.1853 103.941 56.1927 103.896V103.859C56.1927 103.704 56.2371 103.585 56.326 103.504C56.5038 103.341 56.8445 103.326 57.0149 103.341L57.3038 103.348V102.674H52.8371V103.333H52.8593ZM36.7853 116.889C33.2149 116.889 29.9631 113.252 29.9631 109.267C29.9631 105.97 32.8149 103.755 35.4742 103.755C38.4297 103.755 42.726 106.63 42.726 111.133C42.726 114.192 39.9482 116.889 36.7853 116.889Z" fill="white"/>
<path d="M28.9335 106.541L28.9557 106.437L29.1113 105.593L29.1705 105.259L28.8965 105.467L28.8668 105.489C28.6298 105.674 28.4224 105.837 27.5261 105.837H26.6668C25.6965 105.422 25.1631 104.815 25.1631 104.133C25.1631 103.719 25.6891 103.452 26.4965 103.452C27.3113 103.452 27.8224 103.793 28.1409 104.052L28.3779 104.245L28.3557 103.941L28.2965 103.178L28.2891 103.096L28.2076 103.067C27.7483 102.889 26.9631 102.815 26.4224 102.815C24.7631 102.815 23.8446 103.348 23.8446 104.326C23.8446 104.83 24.1557 105.4 24.652 105.837C24.1039 105.837 23.6298 105.785 23.3409 105.222C23.3187 105.126 23.1928 105.126 23.1335 105.126H23.0446L23.0002 105.208L22.9928 105.222V105.245C22.9854 105.311 22.9854 105.43 22.9854 105.519V105.585C22.9854 105.845 23.0002 106.133 23.1113 106.311C23.2446 106.526 23.652 106.533 24.3113 106.541L28.815 106.548L28.9335 106.541Z" fill="white"/>
<path d="M14.6298 102.511C8.78539 102.511 6.15576 107.541 6.15576 111.111C6.15576 115.111 9.24465 118.126 13.3335 118.126C17.4521 118.126 21.8891 115.37 21.8891 109.326C21.8965 105.378 18.8372 102.511 14.6298 102.511ZM14.5706 116.948C10.9632 116.948 7.68169 113.282 7.68169 109.259C7.68169 105.926 10.5632 103.682 13.2595 103.682C15.815 103.682 20.5854 106.237 20.5854 111.126C20.578 114.23 17.7706 116.948 14.5706 116.948Z" fill="white"/>
<path d="M7.41499 104.763C8.03721 104.763 8.54091 104.259 8.54091 103.637C8.54091 103.015 8.03721 102.511 7.41499 102.511C6.79277 102.511 6.28906 103.015 6.28906 103.637C6.28906 104.259 6.79277 104.763 7.41499 104.763Z" fill="white"/>
<path d="M4.64448 102.511C4.02226 102.511 3.51855 103.015 3.51855 103.637C3.51855 104.259 4.02226 104.763 4.64448 104.763C5.2667 104.763 5.77041 104.259 5.77041 103.637C5.77041 103.015 5.2667 102.511 4.64448 102.511Z" fill="white"/>
<path d="M130.696 102.511C124.852 102.511 122.222 107.541 122.222 111.111C122.222 115.111 125.311 118.126 129.4 118.126C133.518 118.126 137.956 115.37 137.956 109.326C137.963 105.378 134.904 102.511 130.696 102.511ZM130.637 116.948C127.03 116.948 123.748 113.282 123.748 109.259C123.748 105.926 126.63 103.682 129.326 103.682C131.881 103.682 136.652 106.237 136.652 111.126C136.644 114.23 133.837 116.948 130.637 116.948Z" fill="white"/>
<path d="M123.481 104.763C124.104 104.763 124.607 104.259 124.607 103.637C124.607 103.015 124.104 102.511 123.481 102.511C122.859 102.511 122.355 103.015 122.355 103.637C122.355 104.259 122.859 104.763 123.481 104.763Z" fill="white"/>
<path d="M120.711 102.511C120.089 102.511 119.585 103.015 119.585 103.637C119.585 104.259 120.089 104.763 120.711 104.763C121.334 104.763 121.837 104.259 121.837 103.637C121.837 103.015 121.334 102.511 120.711 102.511Z" fill="white"/>
<path d="M165.615 120.422C164.992 120.422 164.489 120.926 164.489 121.548C164.489 122.171 164.992 122.674 165.615 122.674C166.237 122.674 166.741 122.171 166.741 121.548C166.741 120.926 166.237 120.422 165.615 120.422Z" fill="white"/>
<path d="M162.845 120.422C162.222 120.422 161.719 120.926 161.719 121.548C161.719 122.171 162.222 122.674 162.845 122.674C163.467 122.674 163.971 122.171 163.971 121.548C163.971 120.926 163.467 120.422 162.845 120.422Z" fill="white"/>
<path d="M196.215 116.607H194.941C194.837 109.822 191.504 102.667 186.044 102.667C182.607 102.667 180.993 104.681 179.793 106.778C179.274 107.622 178.933 107.918 178.422 108.207L179.83 110.955C180.896 107.178 182.889 103.948 185.941 103.948C188.726 103.948 191.437 108.311 191.541 116.607L191.556 117.037H178.311H177.859H174.637C174.867 115.755 174.911 114.37 174.911 113.015V109.504L174.896 104.622C174.896 104.022 174.911 103.911 174.911 103.904V103.881V103.859C174.911 103.652 174.978 103.526 175.133 103.444C175.296 103.355 175.504 103.348 175.615 103.348C175.667 103.348 176.022 103.355 176.022 103.355V103.089V102.948V102.681H175.756H171.815H171.548V102.948V103.089V103.348C171.548 103.348 171.919 103.355 171.963 103.355C172.6 103.355 172.659 103.585 172.659 104.755L172.704 110.229V114.911C172.504 119.637 170.689 121.422 167.044 122.407C167.978 122.481 168.526 122.511 168.852 122.511C172.37 122.511 173.859 120.548 174.459 117.985H177.852H178.304H191.578H191.674H196.23L196.215 116.607Z" fill="white"/>
<path d="M163.83 117.963C165.97 117.963 167.474 116.807 167.474 114.696V110.089V104.622C167.474 104.022 167.489 103.911 167.489 103.903V103.881V103.859C167.489 103.652 167.556 103.526 167.711 103.444C167.874 103.355 168.081 103.348 168.193 103.348C168.244 103.348 168.6 103.355 168.6 103.355V103.089V102.948V102.681H168.333H164.393H164.126V102.948V103.089V103.348C164.126 103.348 164.496 103.355 164.541 103.355C165.178 103.355 165.237 103.585 165.237 104.755L165.296 110.103V114.637C165.296 116.096 164.741 117.029 163.407 117.052H161.844H161.393H158.348H157.896H154.852H152.585H149.57H149.089H145.896C146.126 115.77 146.17 114.385 146.17 113.029V109.518L146.156 104.637C146.156 104.037 146.17 103.926 146.17 103.918V103.896V103.874C146.17 103.666 146.237 103.54 146.393 103.459C146.556 103.37 146.763 103.363 146.874 103.363C146.926 103.363 147.281 103.37 147.281 103.37V103.103V102.963V102.696H147.015H143.074H142.807V102.963V103.103V103.363C142.807 103.363 143.178 103.37 143.222 103.37C143.859 103.37 143.919 103.6 143.919 104.77L143.963 110.244V114.926C143.763 119.652 141.948 121.437 138.304 122.422C139.237 122.496 139.785 122.526 140.111 122.526C143.63 122.526 145.119 120.563 145.719 118H149.089H149.57H152.585H154.852H157.896H158.348H161.393H161.844H163.83V117.963Z" fill="white"/>
<path d="M173.363 100.955C173.985 100.955 174.489 100.452 174.489 99.8295C174.489 99.2073 173.985 98.7036 173.363 98.7036C172.741 98.7036 172.237 99.2073 172.237 99.8295C172.237 100.452 172.741 100.955 173.363 100.955Z" fill="white"/>
<path d="M188.659 120.422C188.037 120.422 187.533 120.926 187.533 121.548C187.533 122.171 188.037 122.674 188.659 122.674C189.281 122.674 189.785 122.171 189.785 121.548C189.785 120.926 189.274 120.422 188.659 120.422Z" fill="white"/>
<path d="M58.5111 173.074C58.3999 173.074 58.3036 173.119 58.1629 173.193C58.0074 173.267 57.7925 173.378 57.6222 173.378C57.3777 173.378 57.074 173.348 56.5777 173.022C55.8962 172.571 55.4296 172.274 55.0962 172.074C57.3925 171.422 58.7777 169.534 58.7777 166.948C58.7777 164.022 56.5259 161.808 53.5407 161.808C50.5036 161.808 48.2222 164.045 48.2222 167.008C48.2222 168.808 48.8888 170.311 50.0814 171.222C49.6222 171.6 49.237 172.222 49.237 172.867C49.237 173.237 49.4444 173.459 49.7925 173.459C50.1333 173.459 50.2296 173.119 50.3037 172.867C50.4444 172.385 50.5777 172.067 51.1259 172.067C51.7925 172.067 52.7851 172.697 53.7481 173.304C54.8074 173.971 55.8148 174.608 56.6296 174.608C57.7555 174.608 58.4888 174.252 58.7703 173.948C58.9333 173.778 58.9629 173.615 58.9555 173.534C58.9555 173.222 58.7259 173.074 58.5111 173.074ZM49.837 166.622C49.837 164.815 50.8666 162.874 53.1333 162.874C55.6592 162.874 57.1629 165.208 57.1629 167.467C57.1629 169.711 55.8148 171.282 53.8814 171.282C51.2518 171.282 49.837 168.882 49.837 166.622Z" fill="white"/>
<path d="M70.7038 171.296C70.4667 171.252 70.2149 171.215 70.0519 170.963C69.8371 170.637 69.6889 170.252 69.5482 169.874C69.4964 169.733 69.4445 169.593 69.3852 169.452L66.5482 162.422L66.5334 162.378C66.4593 162.141 66.3334 161.741 66.0001 161.741C65.6815 161.741 65.6075 161.911 65.1778 162.844C65.0593 163.104 64.9112 163.43 64.7186 163.844L61.4593 170.807C61.2964 171.163 61.0741 171.237 60.8741 171.296C60.7186 171.348 60.4297 171.437 60.4297 171.756C60.4297 172 60.6075 172.193 60.8371 172.193C61.0223 172.193 61.2075 172.178 61.3926 172.163C61.5704 172.148 61.7482 172.133 61.926 172.133C62.1112 172.133 62.2964 172.148 62.4815 172.163C62.6815 172.178 62.8741 172.193 63.0741 172.193H63.1334H63.2075C63.6889 172.193 63.726 171.815 63.726 171.704C63.726 171.333 63.3556 171.267 63.1852 171.237C62.9038 171.185 62.763 171.163 62.763 170.8C62.763 170.674 62.8075 170.504 62.8371 170.437L63.7038 168.526C63.7556 168.422 63.8075 168.407 64.0889 168.407H67.0964C67.2741 168.407 67.2964 168.43 67.4297 168.741L67.8667 169.867C67.8964 169.948 67.9334 170.044 67.9778 170.141C68.0964 170.437 68.2741 170.881 68.2741 171.059C68.2741 171.118 68.2445 171.156 67.9852 171.244C67.7852 171.311 67.4519 171.422 67.4519 171.77C67.4519 171.896 67.5112 172.185 68.0371 172.185C68.2297 172.185 68.4223 172.17 68.6149 172.156C68.7926 172.141 68.9704 172.126 69.1482 172.126C69.4223 172.126 69.7038 172.141 69.9778 172.156C70.2593 172.17 70.5482 172.185 70.8297 172.185C71.2519 172.185 71.2964 171.904 71.2964 171.778C71.2964 171.393 70.9112 171.326 70.7038 171.296ZM64.3408 167.244L65.6519 164.422L66.8075 167.244H64.3408Z" fill="white"/>
<path d="M82.0665 162.615C82.0443 162.148 81.8443 161.956 81.3851 161.956C81.3184 161.956 81.1851 161.956 80.9851 161.963C80.4147 161.978 79.2369 162.007 77.3851 162.007C76.3999 162.007 75.6369 161.993 74.9628 161.978C74.4369 161.963 73.9702 161.956 73.5036 161.956C73.0221 161.956 72.9925 162.511 72.9851 162.696V162.756L72.8369 164.067C72.8369 164.311 73.0073 164.548 73.2591 164.548C73.6295 164.548 73.711 164.207 73.7406 164.081L73.7554 164.03L73.7851 163.941C73.9999 163.289 73.9999 163.281 74.6073 163.281H76.6888C76.6962 163.333 76.6962 163.422 76.6888 163.556V163.63V170.726C76.6888 171 76.5184 171.089 76.1554 171.215C75.9258 171.296 75.6073 171.407 75.6073 171.733C75.6073 172.022 75.7777 172.193 76.0591 172.193C76.0814 172.193 76.111 172.193 76.1554 172.185C76.3036 172.17 76.7036 172.133 77.9332 172.133C78.1332 172.133 78.3258 172.148 78.5184 172.163C78.7036 172.178 78.8814 172.193 79.0443 172.193C79.1925 172.193 79.2814 172.126 79.3332 172.074C79.4517 171.956 79.4443 171.8 79.4443 171.748C79.4443 171.363 79.074 171.274 78.8665 171.23C78.548 171.156 78.3332 171.111 78.3332 170.622V163.659V163.459C78.3332 163.393 78.3332 163.326 78.3332 163.274C78.348 163.274 78.3628 163.274 78.3777 163.274H78.4665H78.5925H80.548C81.1628 163.274 81.1777 163.452 81.2073 163.726C81.2221 163.904 81.2591 164.311 81.711 164.311C81.8814 164.311 81.9851 164.237 82.0369 164.178C82.1777 164.03 82.1554 163.83 82.148 163.704L82.0665 162.615Z" fill="white"/>
<path d="M93.9849 171.296C93.7405 171.252 93.4886 171.215 93.3331 170.963C93.1183 170.63 92.9701 170.237 92.8294 169.852C92.7775 169.719 92.7257 169.578 92.6738 169.452L89.8294 162.415L89.822 162.385C89.7479 162.141 89.6294 161.733 89.2886 161.733C88.9701 161.733 88.896 161.896 88.4738 162.815C88.3553 163.074 88.1997 163.407 88.0072 163.837L84.7479 170.8C84.5849 171.156 84.3627 171.23 84.1627 171.289C84.0072 171.341 83.7183 171.43 83.7183 171.748C83.7183 171.993 83.896 172.185 84.1257 172.185C84.3109 172.185 84.496 172.17 84.6812 172.156C84.859 172.141 85.0368 172.126 85.2146 172.126C85.3997 172.126 85.5849 172.141 85.7701 172.156C85.9701 172.17 86.1627 172.185 86.3627 172.185H86.422H86.496C86.9627 172.185 87.0146 171.845 87.0146 171.696C87.0146 171.326 86.6442 171.259 86.4664 171.23C86.1849 171.178 86.0368 171.156 86.0368 170.793C86.0368 170.667 86.0812 170.504 86.1109 170.422L86.9775 168.519C87.0294 168.415 87.0812 168.4 87.3627 168.4H90.3701C90.5479 168.4 90.5701 168.415 90.7034 168.726L91.1479 169.859C91.1775 169.948 91.222 170.052 91.2664 170.17C91.3775 170.452 91.5479 170.882 91.5479 171.052C91.5479 171.111 91.5183 171.148 91.259 171.237C91.059 171.304 90.7257 171.415 90.7257 171.763C90.7257 171.889 90.7849 172.178 91.3109 172.178C91.5034 172.178 91.696 172.163 91.8812 172.148C92.059 172.133 92.2294 172.119 92.4072 172.119C92.6812 172.119 92.9627 172.133 93.2368 172.148C93.5183 172.163 93.8072 172.178 94.0886 172.178C94.5183 172.178 94.5627 171.896 94.5627 171.77C94.5775 171.393 94.1923 171.326 93.9849 171.296ZM87.6146 167.245L88.9331 164.422L90.0812 167.245H87.6146Z" fill="white"/>
<path d="M105.155 171.311C104.918 171.259 104.481 171.163 103.896 170.267L101.792 167.082C102.755 166.578 103.377 165.615 103.377 164.6C103.377 162.919 102.215 161.948 100.192 161.948C100.066 161.948 99.9701 161.956 99.9108 161.956H99.859C99.5108 161.956 99.1405 161.97 98.7701 161.985C98.3849 162 97.9849 162.015 97.5849 162.015C97.1701 162.015 97.0442 161.993 96.9553 161.978C96.8812 161.963 96.8219 161.956 96.7108 161.956C96.3997 161.956 96.1553 162.148 96.1553 162.4C96.1553 162.808 96.5405 162.882 96.7553 162.919C97.0886 162.985 97.3331 163.03 97.3331 163.615V170.563C97.3331 171.03 97.0886 171.133 96.8145 171.245C96.6219 171.319 96.3405 171.437 96.3405 171.748C96.3405 171.993 96.5256 172.185 96.7553 172.185C97.0219 172.185 97.2812 172.17 97.5479 172.156C97.7997 172.141 98.059 172.126 98.3108 172.126C99.1553 172.126 99.5405 172.156 99.7256 172.17C99.7997 172.178 99.8516 172.178 99.8812 172.178H99.9627C100.281 172.178 100.392 171.963 100.392 171.785C100.392 171.378 99.9923 171.289 99.696 171.222C99.2442 171.119 98.9701 171.037 98.9701 170.57V167.689C98.9701 167.667 98.9701 167.645 98.9701 167.615C98.9701 167.607 98.9701 167.6 98.9701 167.593C98.9849 167.593 99.0145 167.585 99.0442 167.585H99.2738H99.4516C100.259 167.585 100.259 167.585 100.489 167.963C100.526 168.03 100.57 168.096 100.629 168.178L102.14 170.563C102.6 171.245 103.215 172.17 104.429 172.17C105.148 172.17 105.6 172.096 105.6 171.719C105.592 171.408 105.303 171.341 105.155 171.311ZM100.178 166.57C100.066 166.57 99.9553 166.57 99.8368 166.578C99.7182 166.578 99.6071 166.585 99.496 166.585C99.1997 166.585 99.0516 166.57 98.9775 166.556V163.2C98.9775 162.978 98.9775 162.978 99.3553 162.978H99.4145H99.4738C100.34 162.978 101.8 163.23 101.8 164.926C101.792 166.415 100.659 166.57 100.178 166.57Z" fill="white"/>
<path d="M147.081 163.667C147.504 163.667 147.852 163.326 147.852 162.896C147.852 162.467 147.504 162.126 147.081 162.126C146.659 162.126 146.311 162.474 146.311 162.896C146.311 163.319 146.652 163.667 147.081 163.667Z" fill="white"/>
<path d="M149.504 163.667C149.926 163.667 150.274 163.326 150.274 162.896C150.274 162.467 149.926 162.126 149.504 162.126C149.082 162.126 148.733 162.474 148.733 162.896C148.733 163.319 149.082 163.667 149.504 163.667Z" fill="white"/>
<path d="M151.037 171.304C150.748 171.215 150.422 171.118 150.422 170.289V166.77C150.422 165.948 150.681 165.933 150.985 165.918C151.148 165.911 151.541 165.889 151.541 165.481C151.541 165.222 151.355 165.03 151.111 165.03C151.074 165.03 151.007 165.037 150.903 165.037C150.666 165.052 150.281 165.081 149.718 165.081C149.385 165.081 149.163 165.067 148.948 165.052C148.726 165.037 148.503 165.022 148.17 165.022C145.741 165.022 144.289 166.096 144.289 167.889C144.289 167.918 144.326 170.741 147.837 170.741C147.844 170.741 148.496 170.741 148.822 170.504C148.741 171.074 148.511 171.081 148.333 171.081C148.296 171.081 148.259 171.081 148.252 171.081H137.355C137.459 170.57 137.511 170.03 137.511 169.474C137.511 166.733 134.918 164.896 132.496 164.896C131.815 164.896 131.229 164.911 130.689 164.933H130.57V163.385C130.57 162.926 130.792 162.867 131.074 162.785C131.252 162.741 131.548 162.659 131.548 162.348C131.548 161.963 131.178 161.963 131.044 161.963C130.829 161.963 130.615 161.978 130.4 161.993C129.948 162.022 129.496 162.015 129.044 161.993C128.792 161.978 128.541 161.963 128.281 161.963C128.141 161.963 127.903 162.015 127.903 162.355C127.903 162.659 128.207 162.733 128.407 162.778C128.778 162.867 129 162.955 129.007 163.37V170.326C129.007 170.874 128.815 171.015 128.696 171.067H117.822V166.267C117.822 165.77 117.992 165.733 118.207 165.681C118.341 165.652 118.622 165.585 118.622 165.289C118.622 165.089 118.489 164.852 118.118 164.852C117.985 164.852 117.852 164.859 117.689 164.874C117.474 164.889 117.215 164.911 116.844 164.911C116.541 164.911 116.318 164.896 116.104 164.881C115.881 164.867 115.666 164.852 115.378 164.852C115.044 164.852 114.926 165.059 114.926 165.244C114.926 165.57 115.244 165.637 115.474 165.689C115.866 165.778 116.244 165.867 116.244 166.555V174.578C116.244 175.593 115.955 176.304 115.541 176.304C115.422 176.304 115.274 176.155 115.163 176.037C115.022 175.896 114.889 175.755 114.696 175.755C114.185 175.755 114.148 176.755 114.148 176.763C114.148 177.296 114.363 177.496 114.926 177.496C116.541 177.496 117.807 175.726 117.807 173.467V172.059H149.392H149.481H149.533C149.881 172.059 150.178 172.074 150.437 172.089C150.644 172.096 150.837 172.111 151.015 172.111C151.237 172.111 151.481 171.97 151.481 171.704C151.481 171.444 151.207 171.355 151.037 171.304ZM135.948 171.104H130.829C130.637 171.022 130.563 170.911 130.563 170.704V166.363C130.563 165.844 130.563 165.755 131.659 165.755C134.304 165.77 136.007 167.533 136.007 170.252C136.015 170.533 135.992 170.807 135.948 171.104ZM148.852 169.896C148.755 169.837 148.689 169.815 148.429 169.859C148.281 169.881 148.059 169.918 147.741 169.918C146.852 169.918 145.785 169.637 145.785 168.281C145.785 166.607 147.178 166.015 148.37 166.015C148.852 166.015 148.852 166.037 148.852 166.178V169.896Z" fill="white"/>
</g>
<defs>
<radialGradient id="paint0_radial_3274_16248" cx="0" cy="0" r="1" gradientUnits="userSpaceOnUse" gradientTransform="translate(101.644 33.4167) scale(24.1169 24.1169)">
<stop stop-color="white"/>
<stop offset="1" stop-color="#816D4E"/>
</radialGradient>
<clipPath id="clip0_3274_16248">
<rect width="193.83" height="154.578" fill="white" transform="translate(2.96289 22.9629)"/>
</clipPath>
</defs>
</svg>
