<svg width="21" height="20" viewBox="0 0 21 20" fill="none" xmlns="http://www.w3.org/2000/svg">
<path d="M25 -3H4V23H25C26.0609 23 27.0783 22.5786 27.8284 21.8284C28.5786 21.0783 29 20.0609 29 19V1C29 -0.0608659 28.5786 -1.07828 27.8284 -1.82843C27.0783 -2.57857 26.0609 -3 25 -3Z" fill="#8D1B3D"/>
<path d="M4 20.111L9.295 18.667L4 17.222L9.295 15.778L4 14.333L9.295 12.889L4 11.444L9.295 10L4 8.556L9.295 7.112L4 5.667L9.295 4.223L4 2.778L9.295 1.333L4 -0.111L9.295 -1.555L4 -3H-3C-4.06087 -3 -5.07828 -2.57857 -5.82843 -1.82843C-6.57857 -1.07828 -7 -0.0608659 -7 1L-7 19C-7 20.0609 -6.57857 21.0783 -5.82843 21.8284C-5.07828 22.5786 -4.06087 23 -3 23H4L9.295 21.556L4 20.111Z" fill="#EEEEEE"/>
</svg>
