<svg width="46" height="46" viewBox="0 0 46 46" fill="none" xmlns="http://www.w3.org/2000/svg">
<path d="M22.091 41.8909L16.8113 36.6112C16.0334 37.3891 16.0758 38.7041 16.9056 39.5339L19.1683 41.7966C19.9981 42.6264 21.3131 42.6688 22.091 41.8909Z" fill="black"/>
<path d="M40.2511 23.2799L33.9154 16.9443C32.5578 15.5866 30.3657 15.5159 29.0929 16.7887L16.7893 29.0923C15.5165 30.3651 15.5872 32.5571 16.9449 33.9148L23.2805 40.2505C24.6382 41.6082 26.8302 41.6789 28.1031 40.406L40.4067 28.1024C41.6795 26.8296 41.6088 24.6376 40.2511 23.2799ZM25.8168 32.8871C24.8269 33.877 23.4456 34.0515 22.3142 32.9201C21.1829 31.7887 21.0557 30.1058 22.0456 29.1159C23.0354 28.1261 24.7184 28.2532 25.8497 29.3846C27.0566 30.5915 26.8067 31.8973 25.8168 32.8871ZM34.1606 31.3315L31.3322 34.1599C30.9079 34.5843 30.3235 34.5654 29.8709 34.1128C29.4182 33.6602 29.3994 33.0758 29.8237 32.6514L32.6521 29.823C33.0765 29.3987 33.6609 29.4175 34.1135 29.8702C34.5661 30.3228 34.585 30.9072 34.1606 31.3315ZM32.8878 25.8161C31.898 26.806 30.5166 26.9804 29.3853 25.849C28.2539 24.7177 28.1268 23.0347 29.1166 22.0449C30.1065 21.055 31.7894 21.1822 32.9208 22.3135C34.1277 23.5204 33.8777 24.8262 32.8878 25.8161Z" fill="black"/>
<path d="M15.7786 27.0925L27.0923 15.7788C26.2625 14.949 24.9475 14.9066 24.1696 15.6845L15.6843 24.1698C14.9064 24.9477 14.9489 26.2627 15.7786 27.0925Z" fill="black"/>
<path d="M16.5771 20.2549L20.3248 16.5072C19.495 15.6775 18.3214 15.4937 17.3832 15.8286L15.196 13.641C15.394 12.9904 15.1489 12.1797 14.6209 11.6518C13.7912 10.822 12.4762 10.7796 11.6983 11.5575C10.9204 12.3354 10.9628 13.6504 11.7925 14.4802C12.3205 15.0081 13.1312 15.2533 13.7818 15.0552L15.969 17.2425C15.4929 18.3222 15.7474 19.4252 16.5771 20.2549Z" fill="black"/>
<path d="M36.6102 16.8125L41.8899 22.0922C42.6678 21.3143 42.6254 19.9993 41.7957 19.1695L39.5329 16.9068C38.7032 16.077 37.3881 16.0346 36.6102 16.8125Z" fill="black"/>
</svg>
