<svg width="23" height="22" viewBox="0 0 23 22" fill="none" xmlns="http://www.w3.org/2000/svg">
<path d="M22.588 5.49884C22.6842 5.31543 22.6842 5.04032 22.588 4.76522C22.4918 4.67351 22.4919 4.58181 22.3957 4.49011L18.5487 0.821984C18.164 0.455172 17.5869 0.455172 17.2022 0.821984C16.8175 1.1888 16.8175 1.73901 17.2022 2.10583L19.4143 4.215H14.0285C13.4514 4.215 13.0667 4.58181 13.0667 5.13203C13.0667 5.68225 13.4514 6.04906 14.0285 6.04906H19.4143L17.2022 8.15823C16.8175 8.52504 16.8175 9.07526 17.2022 9.44207C17.3946 9.62548 17.5869 9.71718 17.8755 9.71718C18.164 9.71718 18.3563 9.62548 18.5487 9.44207L22.3957 5.77395C22.4919 5.68225 22.588 5.59054 22.588 5.49884Z" fill="#605D5D"/>
<path d="M18.8372 21.5469C18.741 21.5469 18.6449 21.5469 18.5487 21.5469C15.4711 21.1801 12.3935 20.1713 9.79677 18.6124C7.3924 17.1451 5.27655 15.1277 3.73775 12.8351C2.0066 10.3591 0.948681 7.4246 0.660156 4.49011C0.660156 3.75648 0.852506 3.02286 1.33338 2.47264C1.81425 1.92242 2.48748 1.55561 3.25688 1.46391C3.35305 1.46391 3.44923 1.46391 3.5454 1.46391H6.43065C7.87327 1.46391 9.12354 2.47264 9.31589 3.84819C9.41207 4.67351 9.60442 5.49884 9.89294 6.23246C10.2776 7.2412 9.98912 8.34163 9.21972 9.16696L8.54649 9.80888C9.70059 11.4595 11.1432 12.9268 12.9705 14.0272L13.6438 13.3853C14.4132 12.6517 15.6634 12.3766 16.7214 12.7434C17.4908 13.0185 18.3563 13.2019 19.2219 13.2936C20.6645 13.477 21.7225 14.6691 21.7225 16.0447V18.7958C21.7225 19.5294 21.4339 20.263 20.8569 20.7215C20.2798 21.1801 19.6066 21.5469 18.8372 21.5469ZM6.43065 3.29797H3.5454C3.25688 3.29797 2.96835 3.48137 2.776 3.66478C2.67983 3.84819 2.58365 4.03159 2.58365 4.3067C2.87218 6.96609 3.83393 9.53377 5.37273 11.8264C6.81535 13.9355 8.64267 15.7696 10.8547 17.0534C13.2591 18.5207 15.952 19.4377 18.741 19.7128C19.1257 19.7128 19.3181 19.6211 19.5104 19.4377C19.7028 19.2543 19.799 19.0709 19.799 18.7958V16.0447C19.799 15.5862 19.4143 15.2194 18.9334 15.1277C17.9716 15.036 17.0099 14.7608 16.0481 14.394C15.6634 14.3023 15.2787 14.3023 14.9902 14.5774L13.7399 15.7696C13.4514 16.0447 12.9705 16.1364 12.5858 15.953C9.98912 14.5774 7.87327 12.56 6.43065 10.084C6.33447 9.71718 6.43065 9.25867 6.71917 8.98356L7.96945 7.79142C8.1618 7.60801 8.25797 7.1495 8.1618 6.87439C7.7771 5.95736 7.58475 5.04032 7.3924 4.12329C7.3924 3.66478 6.91152 3.29797 6.43065 3.29797Z" fill="#605D5D"/>
</svg>
