<svg width="17" height="16" viewBox="0 0 17 16" fill="none" xmlns="http://www.w3.org/2000/svg">
<g id="photo_camera_FILL0_wght400_GRAD0_opsz48 1">
<path id="Vector" d="M8.49183 11.5667C9.29738 11.5667 9.97238 11.2944 10.5168 10.75C11.0613 10.2056 11.3335 9.53056 11.3335 8.725C11.3335 7.91944 11.0613 7.24722 10.5168 6.70833C9.97238 6.16944 9.29738 5.9 8.49183 5.9C7.68627 5.9 7.01405 6.16944 6.47516 6.70833C5.93627 7.24722 5.66683 7.91944 5.66683 8.725C5.66683 9.53056 5.93627 10.2056 6.47516 10.75C7.01405 11.2944 7.68627 11.5667 8.49183 11.5667ZM8.49183 10.5667C7.96405 10.5667 7.52794 10.3917 7.1835 10.0417C6.83905 9.69167 6.66683 9.25278 6.66683 8.725C6.66683 8.19722 6.83905 7.76111 7.1835 7.41667C7.52794 7.07222 7.96405 6.9 8.49183 6.9C9.01961 6.9 9.4585 7.07222 9.8085 7.41667C10.1585 7.76111 10.3335 8.19722 10.3335 8.725C10.3335 9.25278 10.1585 9.69167 9.8085 10.0417C9.4585 10.3917 9.01961 10.5667 8.49183 10.5667ZM2.8335 14C2.56683 14 2.3335 13.9 2.1335 13.7C1.9335 13.5 1.8335 13.2667 1.8335 13V4.45C1.8335 4.19444 1.9335 3.96389 2.1335 3.75833C2.3335 3.55278 2.56683 3.45 2.8335 3.45H5.2835L6.50016 2H10.5002L11.7168 3.45H14.1668C14.4224 3.45 14.6529 3.55278 14.8585 3.75833C15.0641 3.96389 15.1668 4.19444 15.1668 4.45V13C15.1668 13.2667 15.0641 13.5 14.8585 13.7C14.6529 13.9 14.4224 14 14.1668 14H2.8335ZM14.1668 13V4.45H11.2502L10.0335 3H6.96683L5.75016 4.45H2.8335V13H14.1668Z" fill="black"/>
</g>
</svg>
