<svg width="15" height="11" viewBox="0 0 15 11" fill="none" xmlns="http://www.w3.org/2000/svg">
<path fill-rule="evenodd" clip-rule="evenodd" d="M12.8169 0.313341C13.2012 0.0127404 13.8242 0.0127404 14.2085 0.313341C14.5928 0.613942 14.5928 1.10131 14.2085 1.40191L9.00029 5.47605L14.2085 9.55018C14.5928 9.85078 14.5928 10.3382 14.2085 10.6388C13.8242 10.9394 13.2012 10.9394 12.8169 10.6388L7.6087 6.56462L2.4005 10.6388C2.01622 10.9394 1.39319 10.9394 1.00891 10.6388C0.624634 10.3382 0.624634 9.85078 1.00891 9.55018L6.21712 5.47605L1.00891 1.40191C0.624635 1.10131 0.624635 0.613942 1.00891 0.313341C1.39319 0.0127404 2.01622 0.0127404 2.4005 0.313341L7.6087 4.38748L12.8169 0.313341Z" fill="#191B23"/>
</svg>
