<svg width="24" height="24" viewBox="0 0 24 24" fill="none" xmlns="http://www.w3.org/2000/svg">
<g id="cases_FILL0_wght400_GRAD0_opsz48 1">
<path id="Vector" d="M2.5 22C2.1 22 1.75 21.85 1.45 21.55C1.15 21.25 1 20.9 1 20.5V9.025H2.5V20.5H17.725V22H2.5ZM5.5 19C5.1 19 4.75 18.85 4.45 18.55C4.15 18.25 4 17.9 4 17.5V4.55H10.05V2.5C10.05 2.1 10.2 1.75 10.5 1.45C10.8 1.15 11.15 1 11.55 1H15.45C15.85 1 16.2 1.15 16.5 1.45C16.8 1.75 16.95 2.1 16.95 2.5V4.55H23V17.5C23 17.9 22.85 18.25 22.55 18.55C22.25 18.85 21.9 19 21.5 19H5.5ZM5.5 17.5H21.5V6.05H5.5V17.5ZM11.55 4.55H15.45V2.5H11.55V4.55Z" fill="#00336A"/>
</g>
</svg>
