<svg width="24" height="24" viewBox="0 0 24 24" fill="none" xmlns="http://www.w3.org/2000/svg">
<g id="password_FILL0_wght400_GRAD0_opsz48 1">
<path id="Vector" d="M2 18.9996V17.4746H22V18.9996H2ZM2.95 12.6496L1.95 12.0996L2.95 10.3996H1V9.27461H2.95L1.95 7.57461L2.95 7.02461L3.9 8.69961L4.85 7.02461L5.85 7.57461L4.85 9.27461H6.8V10.3996H4.85L5.85 12.0996L4.85 12.6496L3.9 10.9746L2.95 12.6496ZM11.05 12.6496L10.05 12.0496L11.05 10.3496H9.1V9.22461H11.05L10.05 7.52461L11.05 6.97461L12 8.64961L12.95 6.97461L13.95 7.52461L12.95 9.22461H14.9V10.3496H12.95L13.95 12.0496L12.95 12.6496L12 10.9746L11.05 12.6496ZM19.15 12.6496L18.15 12.0496L19.15 10.3496H17.2V9.22461H19.15L18.15 7.52461L19.15 6.97461L20.1 8.64961L21.05 6.97461L22.05 7.52461L21.05 9.22461H23V10.3496H21.05L22.05 12.0496L21.05 12.6496L20.1 10.9746L19.15 12.6496Z" fill="#00336A"/>
</g>
</svg>
