<svg xmlns="http://www.w3.org/2000/svg" width="33" height="32" viewBox="0 0 33 32" fill="none">
  <path d="M23.166 20.8464C22.1831 20.8464 21.3476 20.5024 20.6596 19.8144C19.9716 19.1264 19.6275 18.2909 19.6275 17.308C19.6275 16.3251 19.9716 15.4896 20.6596 14.8016C21.3476 14.1136 22.1831 13.7696 23.166 13.7696C24.1489 13.7696 24.9843 14.1136 25.6724 14.8016C26.3604 15.4896 26.7044 16.3251 26.7044 17.308C26.7044 18.2909 26.3604 19.1264 25.6724 19.8144C24.9843 20.5024 24.1489 20.8464 23.166 20.8464ZM23.166 19.3337C23.7412 19.3337 24.2226 19.1398 24.6102 18.7522C24.9978 18.3646 25.1916 17.8832 25.1916 17.308C25.1916 16.7328 24.9978 16.2514 24.6102 15.8638C24.2226 15.4762 23.7412 15.2824 23.166 15.2824C22.5908 15.2824 22.1093 15.4762 21.7217 15.8638C21.3341 16.2514 21.1403 16.7328 21.1403 17.308C21.1403 17.8832 21.3341 18.3646 21.7217 18.7522C22.1093 19.1398 22.5908 19.3337 23.166 19.3337ZM15.6275 29.449V26.0439C15.6275 25.6578 15.7195 25.2948 15.9035 24.9547C16.0875 24.6147 16.3451 24.3435 16.6762 24.1413C17.2772 23.781 17.9021 23.4705 18.551 23.2098C19.1998 22.9491 19.8655 22.7382 20.548 22.5772L23.166 26.008L25.7711 22.5772C26.4578 22.7382 27.1223 22.9491 27.7647 23.2098C28.4071 23.4705 29.0306 23.781 29.6352 24.1413C29.9668 24.343 30.2258 24.6131 30.4121 24.9516C30.5984 25.29 30.6959 25.6498 30.7044 26.031V29.449H15.6275ZM17.1275 27.9362H22.7198L19.9609 24.3259C19.454 24.4947 18.9644 24.6869 18.4922 24.9025C18.02 25.1181 17.5651 25.3567 17.1275 25.6182V27.9362ZM23.6249 27.9362H29.1916V25.6182C28.754 25.3567 28.3004 25.1203 27.8307 24.9092C27.3611 24.6981 26.8771 24.5079 26.3788 24.3387L23.6249 27.9362ZM7.09522 27.3336C6.56679 27.3336 6.11315 27.1436 5.73428 26.7637C5.35544 26.3838 5.16602 25.9327 5.16602 25.4105V6.59009C5.16602 6.06787 5.35598 5.6168 5.73592 5.23689C6.11583 4.85696 6.56689 4.66699 7.08912 4.66699H25.9095C26.4317 4.66699 26.8828 4.85696 27.2627 5.23689C27.6426 5.6168 27.8326 6.06787 27.8326 6.59009V13.5285C27.6394 13.2208 27.4168 12.9357 27.1647 12.6734C26.9125 12.411 26.6309 12.1695 26.3198 11.949V6.59009C26.3198 6.47043 26.2813 6.37213 26.2044 6.29519C26.1275 6.21826 26.0292 6.17979 25.9095 6.17979H7.08912C6.96945 6.17979 6.87115 6.21826 6.79422 6.29519C6.71728 6.37213 6.67882 6.47043 6.67882 6.59009V25.4105C6.67882 25.5302 6.71728 25.6285 6.79422 25.7054C6.87115 25.7823 6.96945 25.8208 7.08912 25.8208H12.9095C12.9181 25.8558 12.9245 25.8951 12.9288 25.9387C12.933 25.9823 12.9352 26.0174 12.9352 26.0439V27.3336H7.09522ZM10.166 11.3336H21.2634C21.5232 11.2652 21.7826 11.214 22.0416 11.1798C22.3005 11.1456 22.5642 11.1199 22.8326 11.1029V9.82083H10.166V11.3336ZM10.166 16.7567H16.9993C17.0164 16.5003 17.0477 16.2431 17.0932 15.985C17.1387 15.727 17.2014 15.48 17.2813 15.2439H10.166V16.7567ZM10.166 22.1798H14.8172C15.1523 21.9251 15.501 21.7054 15.8634 21.5208C16.2258 21.3362 16.6036 21.1635 16.9967 21.0028V20.667H10.166V22.1798ZM6.67882 25.8208V6.17979V11.949V11.0772V25.8208Z" fill="#00336A"/>
</svg>