<svg width="24" height="25" viewBox="0 0 24 25" fill="none" xmlns="http://www.w3.org/2000/svg">
<path fill-rule="evenodd" clip-rule="evenodd" d="M12 23.177C5.92487 23.177 1 18.2143 1 12.0924C1 5.97055 5.92487 1.00781 12 1.00781C18.0751 1.00781 23 5.97055 23 12.0924C23 18.2143 18.0751 23.177 12 23.177ZM12 21.1616C16.9706 21.1616 21 17.1012 21 12.0924C21 7.08362 16.9706 3.02319 12 3.02319C7.02944 3.02319 3 7.08362 3 12.0924C3 17.1012 7.02944 21.1616 12 21.1616ZM17 11.0847H13V7.05396H11V11.0847H7V13.1001H11V17.1309H13V13.1001H17V11.0847Z" fill="#111F48"/>
</svg>
