<svg width="24" height="18" viewBox="0 0 24 18" fill="none" xmlns="http://www.w3.org/2000/svg">
<path d="M17.9982 7H16.7382C16.364 5.551 15.591 4.23599 14.5068 3.2044C13.4226 2.1728 12.0709 1.46599 10.6051 1.16428C9.13928 0.862561 7.61825 0.97804 6.21481 1.49759C4.81137 2.01714 3.5818 2.91993 2.66581 4.10338C1.74982 5.28683 1.18415 6.70348 1.03306 8.19235C0.881982 9.68123 1.15155 11.1826 1.81113 12.526C2.47072 13.8693 3.49387 15.0007 4.76434 15.7916C6.0348 16.5824 7.50164 17.0011 8.99816 17H17.9982C19.3242 17 20.596 16.4732 21.5337 15.5355C22.4714 14.5979 22.9982 13.3261 22.9982 12C22.9982 10.6739 22.4714 9.40215 21.5337 8.46447C20.596 7.52678 19.3242 7 17.9982 7Z" stroke="#696974" stroke-width="1.5" stroke-linecap="round" stroke-linejoin="round"/>
</svg>
