<svg width="24" height="24" viewBox="0 0 24 24" fill="none" xmlns="http://www.w3.org/2000/svg">
<g id="database_FILL0_wght400_GRAD0_opsz48">
<path id="Vector" d="M12 21C9.48333 21 7.35417 20.6125 5.6125 19.8375C3.87083 19.0625 3 18.1167 3 17V7C3 5.9 3.87917 4.95833 5.6375 4.175C7.39583 3.39167 9.51667 3 12 3C14.4833 3 16.6042 3.39167 18.3625 4.175C20.1208 4.95833 21 5.9 21 7V17C21 18.1167 20.1292 19.0625 18.3875 19.8375C16.6458 20.6125 14.5167 21 12 21ZM12 8.8C13.4333 8.8 14.9042 8.57917 16.4125 8.1375C17.9208 7.69583 18.8917 7.2 19.325 6.65C18.875 6.11667 17.8958 5.625 16.3875 5.175C14.8792 4.725 13.4167 4.5 12 4.5C10.5333 4.5 9.05833 4.71667 7.575 5.15C6.09167 5.58333 5.11667 6.08333 4.65 6.65C5.11667 7.23333 6.08333 7.7375 7.55 8.1625C9.01667 8.5875 10.5 8.8 12 8.8ZM11.975 14.15C12.675 14.15 13.375 14.1125 14.075 14.0375C14.775 13.9625 15.4458 13.85 16.0875 13.7C16.7292 13.55 17.3417 13.3667 17.925 13.15C18.5083 12.9333 19.0333 12.6917 19.5 12.425V8.55C19.0167 8.81667 18.4833 9.05833 17.9 9.275C17.3167 9.49167 16.7 9.675 16.05 9.825C15.4 9.975 14.7333 10.0917 14.05 10.175C13.3667 10.2583 12.675 10.3 11.975 10.3C11.275 10.3 10.575 10.2583 9.875 10.175C9.175 10.0917 8.50417 9.975 7.8625 9.825C7.22083 9.675 6.6125 9.49167 6.0375 9.275C5.4625 9.05833 4.95 8.81667 4.5 8.55V12.425C4.95 12.6917 5.45833 12.9333 6.025 13.15C6.59167 13.3667 7.19583 13.55 7.8375 13.7C8.47917 13.85 9.15 13.9625 9.85 14.0375C10.55 14.1125 11.2583 14.15 11.975 14.15ZM12 19.5C12.8 19.5 13.625 19.4292 14.475 19.2875C15.325 19.1458 16.1042 18.9583 16.8125 18.725C17.5208 18.4917 18.1208 18.2333 18.6125 17.95C19.1042 17.6667 19.4 17.375 19.5 17.075V13.95C19.0333 14.2167 18.5083 14.4542 17.925 14.6625C17.3417 14.8708 16.7292 15.05 16.0875 15.2C15.4458 15.35 14.7792 15.4625 14.0875 15.5375C13.3958 15.6125 12.6917 15.65 11.975 15.65C11.2583 15.65 10.55 15.6125 9.85 15.5375C9.15 15.4625 8.47917 15.35 7.8375 15.2C7.19583 15.05 6.59167 14.8708 6.025 14.6625C5.45833 14.4542 4.95 14.2167 4.5 13.95V17.1C4.58333 17.3833 4.86667 17.6708 5.35 17.9625C5.83333 18.2542 6.43333 18.5125 7.15 18.7375C7.86667 18.9625 8.65 19.1458 9.5 19.2875C10.35 19.4292 11.1833 19.5 12 19.5Z" fill="#00336A"/>
</g>
</svg>
