<svg width="24" height="24" viewBox="0 0 24 24" fill="none" xmlns="http://www.w3.org/2000/svg">
<g id="privacy_tip_FILL0_wght400_GRAD0_opsz48 1">
<path id="Vector" d="M11.25 16.8996H12.75V10.4746H11.25V16.8996ZM12 8.82461C12.2408 8.82461 12.4427 8.74315 12.6056 8.58023C12.7685 8.41732 12.85 8.21544 12.85 7.97461C12.85 7.73378 12.7685 7.5319 12.6056 7.36899C12.4427 7.20607 12.2408 7.12461 12 7.12461C11.7592 7.12461 11.5573 7.20607 11.3944 7.36899C11.2315 7.5319 11.15 7.73378 11.15 7.97461C11.15 8.21544 11.2315 8.41732 11.3944 8.58023C11.5573 8.74315 11.7592 8.82461 12 8.82461ZM12 21.9746C9.66667 21.3913 7.75 20.0371 6.25 17.9121C4.75 15.7871 4 13.4579 4 10.9246V4.97461L12 1.97461L20 4.97461V10.9246C20 13.4579 19.25 15.7871 17.75 17.9121C16.25 20.0371 14.3333 21.3913 12 21.9746ZM12 20.4246C13.9167 19.7913 15.4792 18.5954 16.6875 16.8371C17.8958 15.0788 18.5 13.1079 18.5 10.9246V6.02461L12 3.57461L5.5 6.02461V10.9246C5.5 13.1079 6.10417 15.0788 7.3125 16.8371C8.52083 18.5954 10.0833 19.7913 12 20.4246Z" fill="#00336A"/>
</g>
</svg>
