<svg width="25" height="24" viewBox="0 0 25 24" fill="none" xmlns="http://www.w3.org/2000/svg">
<path fill-rule="evenodd" clip-rule="evenodd" d="M3.54782 13.4614C4.09691 13.4614 4.54203 13.8919 4.54203 14.423V18.2691C4.54203 18.5241 4.64677 18.7687 4.83322 18.949C5.01967 19.1294 5.27255 19.2307 5.53623 19.2307H19.4551C19.7187 19.2307 19.9716 19.1294 20.1581 18.949C20.3445 18.7687 20.4493 18.5241 20.4493 18.2691V14.423C20.4493 13.8919 20.8944 13.4614 21.4435 13.4614C21.9926 13.4614 22.4377 13.8919 22.4377 14.423V18.2691C22.4377 19.0342 22.1234 19.7679 21.5641 20.3088C21.0047 20.8498 20.2461 21.1537 19.4551 21.1537H5.53623C4.74519 21.1537 3.98655 20.8498 3.42721 20.3088C2.86786 19.7679 2.55362 19.0342 2.55362 18.2691V14.423C2.55362 13.8919 2.99874 13.4614 3.54782 13.4614Z" fill="#7E7E7E"/>
<path fill-rule="evenodd" clip-rule="evenodd" d="M6.82162 8.93544C7.20988 8.55993 7.83938 8.55993 8.22764 8.93544L12.4956 13.0632L16.7637 8.93544C17.1519 8.55993 17.7814 8.55993 18.1697 8.93544C18.5579 9.31094 18.5579 9.91975 18.1697 10.2953L13.1987 15.1029C12.8104 15.4785 12.1809 15.4785 11.7926 15.1029L6.82162 10.2953C6.43336 9.91975 6.43336 9.31094 6.82162 8.93544Z" fill="#7E7E7E"/>
<path fill-rule="evenodd" clip-rule="evenodd" d="M12.4957 1.92285C13.0447 1.92285 13.4899 2.35335 13.4899 2.88439V14.4229C13.4899 14.9539 13.0447 15.3844 12.4957 15.3844C11.9466 15.3844 11.5014 14.9539 11.5014 14.4229V2.88439C11.5014 2.35335 11.9466 1.92285 12.4957 1.92285Z" fill="#7E7E7E"/>
</svg>
