<svg width="24" height="24" viewBox="0 0 24 24" fill="none" xmlns="http://www.w3.org/2000/svg">
<g id="e911_emergency_FILL0_wght400_GRAD0_opsz48 1">
<path id="Vector" d="M5.25 20V18.5H6.775L8.875 11.575C8.975 11.2583 9.15417 11 9.4125 10.8C9.67083 10.6 9.96667 10.5 10.3 10.5H13.7C14.0333 10.5 14.3292 10.6 14.5875 10.8C14.8458 11 15.025 11.2583 15.125 11.575L17.225 18.5H18.75V20H5.25ZM8.375 18.5H15.625L13.675 12H10.325L8.375 18.5ZM11.25 7.5V3H12.75V7.5H11.25ZM17.125 9.95L16.05 8.875L19.25 5.7L20.3 6.75L17.125 9.95ZM18.5 14.75V13.25H23V14.75H18.5ZM6.875 9.95L3.7 6.75L4.75 5.7L7.95 8.875L6.875 9.95ZM1 14.75V13.25H5.5V14.75H1Z" fill="#00336A"/>
</g>
</svg>
