<svg xmlns="http://www.w3.org/2000/svg" width="33" height="32" viewBox="0 0 33 32" fill="none">
  <path d="M26.41 19.9229V9.40756L19.1664 4.34086L11.9228 9.40756V13.8871H10.41V8.66399L19.1664 2.41016L27.9228 8.66399V19.9229H26.41ZM19.8971 11.0896H21.1023V9.88446H19.8971V11.0896ZM17.2305 11.0896H18.4356V9.88446H17.2305V11.0896ZM19.8971 13.7563H21.1023V12.5511H19.8971V13.7563ZM17.2305 13.7563H18.4356V12.5511H17.2305V13.7563ZM19.0843 28.9972L8.58939 25.9536V27.7639H2.52539V16.1178H11.851L20.1843 19.2281C20.6988 19.4161 21.1381 19.7323 21.5022 20.1768C21.8663 20.6212 22.0484 21.2759 22.0484 22.1409H26.2202C27.0424 22.1409 27.7005 22.4401 28.1945 23.0386C28.6885 23.6371 28.9355 24.4473 28.9355 25.4691V25.9767L19.0843 28.9972ZM4.03816 26.2511H7.04329V17.6306H4.03816V26.2511ZM18.9638 27.4306L27.3689 24.8691C27.2783 24.4468 27.1373 24.1387 26.9458 23.9447C26.7544 23.7507 26.5125 23.6537 26.2202 23.6537H19.5253C18.9014 23.6537 18.2975 23.6114 17.7138 23.5268C17.13 23.4421 16.604 23.3263 16.1356 23.1793L13.3971 22.3332L14.0022 20.8486L16.4228 21.6742C16.9612 21.852 17.4932 21.9742 18.0189 22.0409C18.5445 22.1076 19.3518 22.1409 20.4407 22.1409C20.4407 21.7973 20.3821 21.4934 20.2651 21.2293C20.148 20.9652 19.9544 20.7776 19.6843 20.6665L11.6202 17.6306H8.58939V24.3537L18.9638 27.4306Z" fill="#00336A"/>
</svg>