<svg xmlns="http://www.w3.org/2000/svg" width="33" height="32" viewBox="0 0 33 32" fill="none">
  <path d="M5.15339 27.641L3.64062 26.1282H29.3329L27.8201 27.641H5.15339ZM5.22009 23.7744C5.35856 23.4786 5.50429 23.1992 5.65729 22.9359C5.81027 22.6727 6.02523 22.3983 6.30216 22.1129V11.2282H4.94832V9.88208H6.30216V8.65902H4.94832V7.31288H6.30216V6.08978H4.94832V4.74365H14.2688C14.7337 4.74365 15.1235 4.88596 15.438 5.17059C15.7525 5.45521 15.9098 5.8941 15.9098 6.48725V7.31288H28.538V8.65902H15.9098V9.48462C15.9098 10.0778 15.7525 10.5167 15.438 10.8013C15.1235 11.0859 14.7337 11.2282 14.2688 11.2282H11.0893V20.4026C11.6021 20.447 12.1039 20.5731 12.5945 20.7808C13.0851 20.9885 13.5321 21.2736 13.9355 21.636C14.1799 20.3043 14.8932 19.153 16.0752 18.1821C17.2573 17.2112 18.697 16.7257 20.3944 16.7257C22.3158 16.7257 23.8965 17.3308 25.1367 18.5411C26.3769 19.7513 27.0098 21.2701 27.0354 23.0974V23.7744H5.22009ZM15.4226 22.2616H25.3919C25.2945 21.159 24.7671 20.2128 23.8099 19.4231C22.8526 18.6334 21.7141 18.2385 20.3944 18.2385C19.0748 18.2385 17.9427 18.6334 16.9983 19.4231C16.0538 20.2128 15.5286 21.159 15.4226 22.2616ZM11.0893 7.31288H14.6406V6.50009C14.6406 6.39751 14.5979 6.30348 14.5124 6.21802C14.4269 6.13253 14.3329 6.08978 14.2303 6.08978H11.0893V7.31288ZM11.0893 9.88208H14.2303C14.3329 9.88208 14.4269 9.83935 14.5124 9.75389C14.5979 9.6684 14.6406 9.57437 14.6406 9.47182V8.65902H11.0893V9.88208ZM7.62776 7.31288H9.74319V6.08978H7.62776V7.31288ZM7.62776 9.88208H9.74319V8.65902H7.62776V9.88208ZM7.62776 21.1385C7.87394 20.9624 8.18763 20.8 8.56883 20.6513C8.95 20.5026 9.34146 20.4171 9.74319 20.3949V11.2282H7.62776V21.1385Z" fill="#00336A"/>
</svg>