<svg width="24" height="24" viewBox="0 0 24 24" fill="none" xmlns="http://www.w3.org/2000/svg">
<g id="handshake_FILL0_wght400_GRAD0_opsz48 (1) 1">
<path id="Vector" d="M11.875 20.5004C11.9583 20.5004 12.0542 20.4796 12.1625 20.4379C12.2708 20.3962 12.3583 20.3421 12.425 20.2754L20.85 11.8254C21.0667 11.6087 21.2292 11.3615 21.3375 11.0837C21.4458 10.8059 21.5 10.5282 21.5 10.2504C21.5 9.96706 21.4458 9.68372 21.3375 9.40039C21.2292 9.11706 21.0667 8.86706 20.85 8.65039L16.35 4.15039C16.1333 3.93372 15.8833 3.77122 15.6 3.66289C15.3167 3.55456 15.0333 3.50039 14.75 3.50039C14.4722 3.50039 14.1944 3.55456 13.9167 3.66289C13.6389 3.77122 13.3917 3.93372 13.175 4.15039L12.725 4.60039L14.75 6.65039C14.9667 6.88372 15.1583 7.15456 15.325 7.46289C15.4917 7.77122 15.575 8.10872 15.575 8.47539C15.575 9.10872 15.3292 9.66706 14.8375 10.1504C14.3458 10.6337 13.7833 10.8754 13.15 10.8754C12.7333 10.8754 12.3875 10.8129 12.1125 10.6879C11.8375 10.5629 11.586 10.385 11.3579 10.1544L9.525 8.32539L5 12.8504C4.91667 12.9337 4.85833 13.0214 4.825 13.1135C4.79167 13.2057 4.775 13.3043 4.775 13.4096C4.775 13.6201 4.84583 13.7962 4.9875 13.9379C5.12917 14.0796 5.30556 14.1504 5.51668 14.1504C5.62223 14.1504 5.72083 14.1254 5.8125 14.0754C5.90417 14.0254 5.98333 13.9671 6.05 13.9004L9.5 10.4504L10.55 11.5004L7.125 14.9254C7.04167 15.0087 6.98333 15.1004 6.95 15.2004C6.91667 15.3004 6.9 15.4004 6.9 15.5004C6.9 15.7004 6.975 15.8754 7.125 16.0254C7.275 16.1754 7.45 16.2504 7.65 16.2504C7.75 16.2504 7.84583 16.2296 7.9375 16.1879C8.02917 16.1462 8.10833 16.0921 8.175 16.0254L11.625 12.5754L12.675 13.6254L9.25 17.0504C9.18333 17.1171 9.12917 17.2032 9.0875 17.3087C9.04583 17.4143 9.025 17.5198 9.025 17.6254C9.025 17.8254 9.1 18.0004 9.25 18.1504C9.4 18.3004 9.575 18.3754 9.775 18.3754C9.875 18.3754 9.96667 18.3587 10.05 18.3254C10.1333 18.2921 10.2167 18.2337 10.3 18.1504L13.75 14.7004L14.8 15.7504L11.35 19.2004C11.2667 19.2837 11.2083 19.3754 11.175 19.4754C11.1417 19.5754 11.125 19.6671 11.125 19.7504C11.125 19.9837 11.1917 20.1671 11.325 20.3004C11.4583 20.4337 11.6417 20.5004 11.875 20.5004ZM11.8766 22.0004C11.3255 22.0004 10.8333 21.7962 10.4 21.3879C9.96667 20.9796 9.70833 20.4744 9.625 19.8724C9.05833 19.7911 8.58333 19.5587 8.2 19.1754C7.81667 18.7921 7.58333 18.3171 7.5 17.7504C6.93333 17.6671 6.4625 17.4296 6.0875 17.0379C5.7125 16.6462 5.48333 16.1754 5.4 15.6254C4.78333 15.5421 4.275 15.2921 3.875 14.8754C3.475 14.4587 3.275 13.9587 3.275 13.3754C3.275 13.0921 3.33103 12.8083 3.4431 12.5242C3.55517 12.24 3.7158 11.9904 3.925 11.7754L9.525 6.17539L12.275 8.92539C12.4083 9.05872 12.5528 9.16289 12.7083 9.23789C12.8639 9.31289 13.0195 9.35039 13.175 9.35039C13.3917 9.35039 13.5958 9.25456 13.7875 9.06289C13.9792 8.87122 14.075 8.66577 14.075 8.44654C14.075 8.34911 14.0458 8.23789 13.9875 8.11289C13.9292 7.98789 13.8333 7.85872 13.7 7.72539L10.125 4.15039C9.90833 3.93372 9.65833 3.77122 9.375 3.66289C9.09167 3.55456 8.80833 3.50039 8.525 3.50039C8.24722 3.50039 7.96944 3.55456 7.69167 3.66289C7.41389 3.77122 7.16716 3.93253 6.95147 4.14682L3.15 7.95039C2.91667 8.18372 2.75417 8.42956 2.6625 8.68789C2.57083 8.94622 2.51667 9.23789 2.5 9.56289C2.48333 9.88789 2.54583 10.2046 2.6875 10.5129C2.82917 10.8212 3 11.1004 3.2 11.3504L2.125 12.4254C1.79167 12.0587 1.52083 11.6171 1.3125 11.1004C1.10417 10.5837 1 10.0587 1 9.52539C1 9.02539 1.09583 8.54622 1.2875 8.08789C1.47917 7.62956 1.75 7.22539 2.1 6.87539L5.875 3.10039C6.24167 2.73372 6.65661 2.46289 7.11982 2.28789C7.58306 2.11289 8.05806 2.02539 8.54483 2.02539C9.03161 2.02539 9.50417 2.11289 9.9625 2.28789C10.4208 2.46289 10.8333 2.73372 11.2 3.10039L11.65 3.55039L12.1 3.10039C12.4667 2.73372 12.8816 2.46289 13.3448 2.28789C13.8081 2.11289 14.2831 2.02539 14.7698 2.02539C15.2566 2.02539 15.7292 2.11289 16.1875 2.28789C16.6458 2.46289 17.0583 2.73372 17.425 3.10039L21.9 7.57539C22.2667 7.94206 22.5417 8.359 22.725 8.82622C22.9083 9.29343 23 9.76843 23 10.2512C23 10.734 22.9083 11.2046 22.725 11.6629C22.5417 12.1212 22.2667 12.5337 21.9 12.9004L13.475 21.3254C13.2583 21.5421 13.0122 21.7087 12.7367 21.8254C12.4612 21.9421 12.1745 22.0004 11.8766 22.0004Z" fill="#00336A"/>
</g>
</svg>
