<svg width="19" height="19" viewBox="0 0 19 19" fill="none" xmlns="http://www.w3.org/2000/svg">
<path fill-rule="evenodd" clip-rule="evenodd" d="M9.5047 3.45312C7.99275 3.45312 6.54272 4.08527 5.4736 5.21048C4.40449 6.3357 3.80387 7.86183 3.80387 9.45312V13.9531C3.80387 14.3673 3.48483 14.7031 3.09127 14.7031C2.69771 14.7031 2.37866 14.3673 2.37866 13.9531V9.45312C2.37866 7.464 3.12944 5.55635 4.46583 4.14982C5.80222 2.7433 7.61476 1.95312 9.5047 1.95312C11.3946 1.95312 13.2072 2.7433 14.5436 4.14982C15.88 5.55635 16.6307 7.464 16.6307 9.45312V13.9531C16.6307 14.3673 16.3117 14.7031 15.9181 14.7031C15.5246 14.7031 15.2055 14.3673 15.2055 13.9531V9.45312C15.2055 7.86183 14.6049 6.3357 13.5358 5.21048C12.4667 4.08527 11.0167 3.45312 9.5047 3.45312Z" fill="black"/>
<path fill-rule="evenodd" clip-rule="evenodd" d="M2.37866 10.9531C2.37866 10.5389 2.69771 10.2031 3.09127 10.2031H5.22908C5.79606 10.2031 6.33982 10.4402 6.74074 10.8621C7.14166 11.2841 7.36689 11.8564 7.36689 12.4531V14.7031C7.36689 15.2999 7.14166 15.8722 6.74074 16.2941C6.33982 16.7161 5.79606 16.9531 5.22908 16.9531H4.51647C3.94949 16.9531 3.40573 16.7161 3.00481 16.2941C2.6039 15.8722 2.37866 15.2999 2.37866 14.7031V10.9531ZM3.80387 11.7031V14.7031C3.80387 14.902 3.87895 15.0928 4.01259 15.2335C4.14623 15.3741 4.32748 15.4531 4.51647 15.4531H5.22908C5.41807 15.4531 5.59933 15.3741 5.73296 15.2335C5.8666 15.0928 5.94168 14.902 5.94168 14.7031V12.4531C5.94168 12.2542 5.8666 12.0634 5.73296 11.9228C5.59933 11.7821 5.41807 11.7031 5.22908 11.7031H3.80387ZM13.7803 11.7031C13.5913 11.7031 13.4101 11.7821 13.2764 11.9228C13.1428 12.0634 13.0677 12.2542 13.0677 12.4531V14.7031C13.0677 14.902 13.1428 15.0928 13.2764 15.2335C13.4101 15.3741 13.5913 15.4531 13.7803 15.4531H14.4929C14.6819 15.4531 14.8632 15.3741 14.9968 15.2335C15.1305 15.0928 15.2055 14.902 15.2055 14.7031V11.7031H13.7803ZM12.2687 10.8621C12.6696 10.4402 13.2133 10.2031 13.7803 10.2031H15.9181C16.3117 10.2031 16.6307 10.5389 16.6307 10.9531V14.7031C16.6307 15.2999 16.4055 15.8722 16.0046 16.2941C15.6037 16.7161 15.0599 16.9531 14.4929 16.9531H13.7803C13.2133 16.9531 12.6696 16.7161 12.2687 16.2941C11.8677 15.8722 11.6425 15.2999 11.6425 14.7031V12.4531C11.6425 11.8564 11.8677 11.2841 12.2687 10.8621Z" fill="black"/>
</svg>
