<svg width="24" height="24" viewBox="0 0 24 24" fill="none" xmlns="http://www.w3.org/2000/svg">
<g id="Interface Help Customer Support 2">
<g id="Group">
<path id="Vector" d="M3.53846 10.4619H5.07691C5.28092 10.4619 5.47658 10.543 5.62084 10.6872C5.7651 10.8315 5.84614 11.0271 5.84614 11.2311V15.0773C5.84614 15.2813 5.7651 15.477 5.62084 15.6212C5.47658 15.7655 5.28092 15.8465 5.07691 15.8465H3.53846C3.13043 15.8465 2.73912 15.6844 2.4506 15.3959C2.16209 15.1074 2 14.7161 2 14.3081V12.0004C2 11.5923 2.16209 11.201 2.4506 10.9125C2.73912 10.624 3.13043 10.4619 3.53846 10.4619Z" stroke="#00336A" stroke-width="1.71429" stroke-linecap="round" stroke-linejoin="round"/>
<path id="Vector_2" d="M20.4615 15.8457H18.9231C18.7191 15.8457 18.5234 15.7647 18.3792 15.6204C18.2349 15.4761 18.1539 15.2805 18.1539 15.0765V11.2303C18.1539 11.0263 18.2349 10.8307 18.3792 10.6864C18.5234 10.5421 18.7191 10.4611 18.9231 10.4611H20.4615C20.8696 10.4611 21.2609 10.6232 21.5494 10.9117C21.8379 11.2002 22 11.5915 22 11.9996V14.3072C22 14.7153 21.8379 15.1066 21.5494 15.3951C21.2609 15.6836 20.8696 15.8457 20.4615 15.8457Z" stroke="#00336A" stroke-width="1.71429" stroke-linecap="round" stroke-linejoin="round"/>
<path id="Vector_3" d="M15.8462 20.0765C16.6622 20.0765 17.4449 19.7523 18.0219 19.1753C18.5989 18.5982 18.9231 17.8156 18.9231 16.9995V15.8457" stroke="#00336A" stroke-width="1.71429" stroke-linecap="round" stroke-linejoin="round"/>
<path id="Vector_4" d="M13.9231 18.1543C14.4332 18.1543 14.9223 18.3569 15.283 18.7176C15.6436 19.0782 15.8462 19.5673 15.8462 20.0774C15.8462 20.5874 15.6436 21.0765 15.283 21.4372C14.9223 21.7978 14.4332 22.0004 13.9231 22.0004H11.6155C11.1054 22.0004 10.6163 21.7978 10.2556 21.4372C9.89499 21.0765 9.69238 20.5874 9.69238 20.0774C9.69238 19.5673 9.89499 19.0782 10.2556 18.7176C10.6163 18.3569 11.1054 18.1543 11.6155 18.1543H13.9231Z" stroke="#00336A" stroke-width="1.71429" stroke-linecap="round" stroke-linejoin="round"/>
<path id="Vector_5" d="M5.07666 10.4615V8.92305C5.07666 7.08695 5.80605 5.32604 7.10438 4.02772C8.4027 2.72939 10.1636 2 11.9997 2C13.8358 2 15.5967 2.72939 16.8951 4.02772C18.1934 5.32604 18.9228 7.08695 18.9228 8.92305V10.4615" stroke="#00336A" stroke-width="1.71429" stroke-linecap="round" stroke-linejoin="round"/>
<path id="Vector_6" d="M9.69238 7.38477V9.69245" stroke="#00336A" stroke-width="1.71429" stroke-linecap="round" stroke-linejoin="round"/>
<path id="Vector_7" d="M14.3076 7.38477V9.69245" stroke="#00336A" stroke-width="1.71429" stroke-linecap="round" stroke-linejoin="round"/>
<path id="Vector_8" d="M9.69238 12.7695C9.69238 14.8157 14.3078 14.8157 14.3078 12.7695" stroke="#00336A" stroke-width="1.71429" stroke-linecap="round" stroke-linejoin="round"/>
</g>
</g>
</svg>
