<svg width="24" height="24" viewBox="0 0 24 24" fill="none" xmlns="http://www.w3.org/2000/svg">
<g id="medication_FILL0_wght400_GRAD0_opsz48">
<path id="Vector" d="M11 17.275H12.975V14.5H15.825V12.5H12.975V9.725H11V12.5H8.175V14.5H11V17.275ZM6.5 21C6.0875 21 5.73438 20.8531 5.44063 20.5594C5.14688 20.2656 5 19.9125 5 19.5V7.525C5 7.1125 5.14688 6.75938 5.44063 6.46563C5.73438 6.17188 6.0875 6.025 6.5 6.025H17.5C17.9125 6.025 18.2656 6.17188 18.5594 6.46563C18.8531 6.75938 19 7.1125 19 7.525V19.5C19 19.9125 18.8531 20.2656 18.5594 20.5594C18.2656 20.8531 17.9125 21 17.5 21H6.5ZM6.5 19.5H17.5V7.525H6.5V19.5ZM6 4.5V3H18.025V4.5H6Z" fill="#00336A"/>
</g>
</svg>
