<svg width="343" height="191" viewBox="0 0 343 191" fill="none" xmlns="http://www.w3.org/2000/svg">
<rect x="1" y="1" width="341" height="189" rx="7" fill="#EFEFF0"/>
<mask id="mask0_1525_13643" style="mask-type:luminance" maskUnits="userSpaceOnUse" x="162" y="86" width="20" height="20">
<path fill-rule="evenodd" clip-rule="evenodd" d="M162 86H181.96V105.95H162V86Z" fill="white"/>
</mask>
<g mask="url(#mask0_1525_13643)">
<path fill-rule="evenodd" clip-rule="evenodd" d="M167.65 87.5C165.129 87.5 163.5 89.227 163.5 91.899V100.051C163.5 102.724 165.129 104.45 167.65 104.45H176.3C178.827 104.45 180.46 102.724 180.46 100.051V91.899C180.46 89.227 178.827 87.5 176.3 87.5H167.65ZM176.3 105.95H167.65C164.27 105.95 162 103.579 162 100.051V91.899C162 88.371 164.27 86 167.65 86H176.3C179.685 86 181.96 88.371 181.96 91.899V100.051C181.96 103.579 179.685 105.95 176.3 105.95Z" fill="#61646B"/>
</g>
<path fill-rule="evenodd" clip-rule="evenodd" d="M165.282 101.18C165.096 101.18 164.911 101.112 164.766 100.974C164.465 100.69 164.453 100.214 164.738 99.9154L166.266 98.3024C167.075 97.4434 168.44 97.4014 169.303 98.2114L170.26 99.1834C170.528 99.4534 170.962 99.4584 171.23 99.1944C171.331 99.0754 173.509 96.4304 173.509 96.4304C173.922 95.9284 174.507 95.6184 175.156 95.5544C175.806 95.4974 176.436 95.6864 176.939 96.0994C176.983 96.1344 177.021 96.1684 179.217 98.4234C179.506 98.7194 179.502 99.1944 179.205 99.4834C178.909 99.7744 178.432 99.7654 178.144 99.4694C178.144 99.4694 176.094 97.3664 175.948 97.2244C175.793 97.0974 175.545 97.0234 175.3 97.0474C175.051 97.0724 174.827 97.1914 174.668 97.3844C172.344 100.203 172.316 100.23 172.278 100.267C171.42 101.109 170.035 101.095 169.192 100.235C169.192 100.235 168.262 99.2914 168.246 99.2724C168.015 99.0584 167.602 99.0724 167.355 99.3334L165.826 100.946C165.678 101.102 165.48 101.18 165.282 101.18Z" fill="#61646B"/>
<path fill-rule="evenodd" clip-rule="evenodd" d="M168.558 92.1289C168.005 92.1289 167.555 92.5789 167.555 93.1329C167.555 93.6869 168.005 94.1379 168.559 94.1379C169.113 94.1379 169.564 93.6869 169.564 93.1329C169.564 92.5799 169.113 92.1299 168.558 92.1289ZM168.559 95.6379C167.178 95.6379 166.055 94.5139 166.055 93.1329C166.055 91.7519 167.178 90.6289 168.559 90.6289C169.941 90.6299 171.064 91.7539 171.064 93.1329C171.064 94.5139 169.94 95.6379 168.559 95.6379Z" fill="#61646B"/>
<rect x="1" y="1" width="341" height="189" rx="7" stroke="#AFB1B6" stroke-width="2"/>
</svg>
