<svg width="65" height="64" viewBox="0 0 65 64" fill="none" xmlns="http://www.w3.org/2000/svg">
<rect x="1.5" y="1" width="62" height="62" rx="31" fill="#EFEFF0"/>
<mask id="mask0_636_7437" style="mask-type:luminance" maskUnits="userSpaceOnUse" x="22" y="22" width="21" height="20">
<path fill-rule="evenodd" clip-rule="evenodd" d="M22.5005 22.0002H42.4601V41.95H22.5005V22.0002Z" fill="white"/>
</mask>
<g mask="url(#mask0_636_7437)">
<path fill-rule="evenodd" clip-rule="evenodd" d="M28.1505 23.5C25.6295 23.5 24.0005 25.227 24.0005 27.899V36.051C24.0005 38.724 25.6295 40.45 28.1505 40.45H36.8005C39.3275 40.45 40.9605 38.724 40.9605 36.051V27.899C40.9605 25.227 39.3275 23.5 36.8005 23.5H28.1505ZM36.8005 41.95H28.1505C24.7705 41.95 22.5005 39.579 22.5005 36.051V27.899C22.5005 24.371 24.7705 22 28.1505 22H36.8005C40.1855 22 42.4605 24.371 42.4605 27.899V36.051C42.4605 39.579 40.1855 41.95 36.8005 41.95Z" fill="#AFB1B6"/>
</g>
<path fill-rule="evenodd" clip-rule="evenodd" d="M25.7815 37.1804C25.5955 37.1804 25.4105 37.1124 25.2655 36.9744C24.9645 36.6904 24.9525 36.2144 25.2375 35.9154L26.7655 34.3024C27.5745 33.4434 28.9395 33.4014 29.8025 34.2114L30.7605 35.1834C31.0275 35.4534 31.4615 35.4584 31.7295 35.1944C31.8305 35.0754 34.0085 32.4304 34.0085 32.4304C34.4225 31.9284 35.0065 31.6184 35.6555 31.5544C36.3055 31.4974 36.9365 31.6864 37.4395 32.0994C37.4825 32.1344 37.5215 32.1684 39.7175 34.4234C40.0065 34.7194 40.0015 35.1944 39.7045 35.4834C39.4085 35.7744 38.9325 35.7654 38.6435 35.4694C38.6435 35.4694 36.5945 33.3664 36.4485 33.2244C36.2935 33.0974 36.0445 33.0234 35.7995 33.0474C35.5505 33.0724 35.3265 33.1914 35.1675 33.3844C32.8435 36.2034 32.8155 36.2304 32.7775 36.2674C31.9195 37.1094 30.5345 37.0954 29.6915 36.2354C29.6915 36.2354 28.7615 35.2914 28.7455 35.2724C28.5145 35.0584 28.1025 35.0724 27.8555 35.3334L26.3255 36.9464C26.1775 37.1024 25.9795 37.1804 25.7815 37.1804Z" fill="#AFB1B6"/>
<path fill-rule="evenodd" clip-rule="evenodd" d="M29.0577 28.1289C28.5047 28.1289 28.0547 28.5789 28.0547 29.1329C28.0547 29.6869 28.5047 30.1379 29.0587 30.1379C29.6127 30.1379 30.0637 29.6869 30.0637 29.1329C30.0637 28.5799 29.6127 28.1299 29.0577 28.1289ZM29.0587 31.6379C27.6777 31.6379 26.5547 30.5139 26.5547 29.1329C26.5547 27.7519 27.6777 26.6289 29.0587 26.6289C30.4407 26.6299 31.5637 27.7539 31.5637 29.1329C31.5637 30.5139 30.4397 31.6379 29.0587 31.6379Z" fill="#AFB1B6"/>
<rect x="1.5" y="1" width="62" height="62" rx="31" stroke="#AFB1B6" stroke-width="2"/>
</svg>
