<svg width="70" height="70" viewBox="0 0 70 70" fill="none" xmlns="http://www.w3.org/2000/svg">
<mask id="mask0_222_5389" style="mask-type:luminance" maskUnits="userSpaceOnUse" x="5" y="5" width="60" height="60">
<path fill-rule="evenodd" clip-rule="evenodd" d="M5.83447 5.83398H64.05V64.0209H5.83447V5.83398Z" fill="white"/>
</mask>
<g mask="url(#mask0_222_5389)">
<path fill-rule="evenodd" clip-rule="evenodd" d="M22.3136 10.209C14.9607 10.209 10.2095 15.2461 10.2095 23.0394V46.8161C10.2095 54.6123 14.9607 59.6465 22.3136 59.6465H47.5428C54.9132 59.6465 59.6761 54.6123 59.6761 46.8161V23.0394C59.6761 15.2461 54.9132 10.209 47.5428 10.209H22.3136ZM47.5428 64.0215H22.3136C12.4553 64.0215 5.83447 57.1061 5.83447 46.8161V23.0394C5.83447 12.7494 12.4553 5.83398 22.3136 5.83398H47.5428C57.4157 5.83398 64.0511 12.7494 64.0511 23.0394V46.8161C64.0511 57.1061 57.4157 64.0215 47.5428 64.0215Z" fill="#AFB1B6"/>
</g>
<path fill-rule="evenodd" clip-rule="evenodd" d="M15.4041 50.11C14.8616 50.11 14.322 49.9117 13.8991 49.5092C13.0212 48.6809 12.9862 47.2925 13.8174 46.4205L18.2741 41.7159C20.6337 39.2105 24.6149 39.088 27.132 41.4505L29.9262 44.2855C30.7049 45.073 31.9707 45.0875 32.7524 44.3175C33.047 43.9705 39.3995 36.2559 39.3995 36.2559C40.607 34.7917 42.3103 33.8875 44.2032 33.7009C46.0991 33.5346 47.9395 34.0859 49.4066 35.2905C49.532 35.3925 49.6457 35.4917 56.0507 42.0688C56.8937 42.9321 56.8791 44.3175 56.0128 45.1605C55.1495 46.0092 53.7612 45.983 52.9182 45.1196C52.9182 45.1196 46.942 38.9859 46.5162 38.5717C46.0641 38.2013 45.3378 37.9855 44.6232 38.0555C43.897 38.1284 43.2437 38.4755 42.7799 39.0384C36.0016 47.2605 35.9199 47.3392 35.8091 47.4471C33.3066 49.903 29.267 49.8621 26.8082 47.3538C26.8082 47.3538 24.0957 44.6005 24.0491 44.545C23.3753 43.9209 22.1737 43.9617 21.4532 44.723L16.9907 49.4275C16.5591 49.8825 15.9816 50.11 15.4041 50.11Z" fill="#AFB1B6"/>
<path fill-rule="evenodd" clip-rule="evenodd" d="M24.9596 23.709C23.3467 23.709 22.0342 25.0215 22.0342 26.6373C22.0342 28.2532 23.3467 29.5686 24.9625 29.5686C26.5783 29.5686 27.8938 28.2532 27.8938 26.6373C27.8938 25.0244 26.5783 23.7119 24.9596 23.709ZM24.9625 33.9436C20.9346 33.9436 17.6592 30.6652 17.6592 26.6373C17.6592 22.6094 20.9346 19.334 24.9625 19.334C28.9933 19.3369 32.2688 22.6152 32.2688 26.6373C32.2688 30.6652 28.9904 33.9436 24.9625 33.9436Z" fill="#AFB1B6"/>
</svg>
