<svg width="186" height="180" viewBox="0 0 186 180" fill="none" xmlns="http://www.w3.org/2000/svg">
<circle cx="95.5002" cy="90.5" r="70.5" fill="#9B9B9B"/>
<circle cx="178.467" cy="27.5" r="7.5" fill="#9B9B9B"/>
<circle cx="20.0334" cy="10" r="10" fill="#9B9B9B"/>
<circle cx="10.0334" cy="133" r="5" fill="#9B9B9B"/>
<circle cx="165.533" cy="160.5" r="2.5" fill="#9B9B9B"/>
<path fill-rule="evenodd" clip-rule="evenodd" d="M74.6049 86.3646C74.6049 75.0566 84.0544 65.9167 95.4846 65.9167C106.947 65.9167 116.397 75.0566 116.397 86.3646C116.397 92.0628 114.324 97.353 110.913 101.837C107.15 106.783 102.512 111.092 97.2917 114.475C96.0969 115.257 95.0185 115.316 93.7072 114.475C88.4569 111.092 83.8189 106.783 80.0882 101.837C76.6747 97.353 74.6049 92.0628 74.6049 86.3646ZM88.6028 87.0012C88.6028 90.7894 91.694 93.7688 95.4842 93.7688C99.2769 93.7688 102.398 90.7894 102.398 87.0012C102.398 83.2425 99.2769 80.1181 95.4842 80.1181C91.694 80.1181 88.6028 83.2425 88.6028 87.0012Z" fill="white"/>
<circle cx="106.533" cy="4.5" r="2.5" fill="#9B9B9B"/>
<circle cx="62.5334" cy="176.5" r="3.5" fill="#9B9B9B"/>
<circle cx="122.033" cy="171" r="1" fill="#9B9B9B"/>
<circle cx="170.533" cy="110.5" r="2.5" fill="#9B9B9B"/>
<circle cx="1.03345" cy="75" r="1" fill="#9B9B9B"/>
</svg>
