<svg width="22" height="24" viewBox="0 0 22 24" fill="none" xmlns="http://www.w3.org/2000/svg">
<path fill-rule="evenodd" clip-rule="evenodd" d="M4.757 12C4.27759 12 3.88894 12.4477 3.88894 13V20C3.88894 20.5523 4.27759 21 4.757 21H16.9098C17.3892 21 17.7778 20.5523 17.7778 20V13C17.7778 12.4477 17.3892 12 16.9098 12H4.757ZM2.15283 13C2.15283 11.3431 3.31876 10 4.757 10H16.9098C18.348 10 19.5139 11.3431 19.5139 13V20C19.5139 21.6569 18.348 23 16.9098 23H4.757C3.31876 23 2.15283 21.6569 2.15283 20V13Z" fill="black"/>
<path fill-rule="evenodd" clip-rule="evenodd" d="M10.8333 3C9.91244 3 9.02927 3.42143 8.3781 4.17157C7.72693 4.92172 7.36111 5.93913 7.36111 7V11C7.36111 11.5523 6.97247 12 6.49306 12C6.01364 12 5.625 11.5523 5.625 11V7C5.625 5.4087 6.17373 3.88258 7.15049 2.75736C8.12724 1.63214 9.452 1 10.8333 1C12.2147 1 13.5394 1.63214 14.5162 2.75736C15.4929 3.88258 16.0417 5.4087 16.0417 7V11C16.0417 11.5523 15.653 12 15.1736 12C14.6942 12 14.3056 11.5523 14.3056 11V7C14.3056 5.93913 13.9397 4.92172 13.2886 4.17157C12.6374 3.42143 11.7542 3 10.8333 3Z" fill="black"/>
</svg>
