<svg width="62" height="49" viewBox="0 0 62 49" fill="none" xmlns="http://www.w3.org/2000/svg">
<g id="TPI logo - vertical 1" clip-path="url(#clip0_3372_16354)">
<g id="Group">
<g id="Group_2">
<path id="Vector" d="M35.048 2.21468C35.6956 3.07579 36.0814 4.14587 36.0814 5.3055C36.0814 8.1575 33.769 10.4699 30.9147 10.4699C28.065 10.4699 25.7503 8.1575 25.7503 5.3055C25.7503 2.4535 28.0627 0.141127 30.9147 0.141127C31.0134 0.141127 31.1122 0.150312 31.2086 0.157201C30.9996 0.131942 30.7884 0.118164 30.5702 0.118164C27.3462 0.118164 24.7354 2.73135 24.7354 5.95535C24.7354 9.17705 27.3485 11.7902 30.5702 11.7902C33.7942 11.7902 36.4074 9.17705 36.4074 5.95535C36.4074 4.53165 35.8954 3.22735 35.048 2.21468Z" fill="#86BBE7"/>
<path id="Vector_2" d="M32.6715 14.0639C39.4708 11.8893 39.31 1.22988 32.0813 0.332031C38.6648 1.51922 37.7325 9.88462 34.04 11.8893C27.6104 15.3797 23.174 9.34729 13.7959 12.3669C22.4506 10.6768 26.6735 15.9813 32.6715 14.0639Z" fill="#4A9FDC"/>
<path id="Vector_3" d="M42.9841 9.98535C36.4328 17.57 26.2166 15.0142 20.0396 13.5423C27.3142 16.1762 37.4386 20.1763 42.9841 9.98535Z" fill="#86BBE7"/>
<path id="Vector_4" d="M40.9245 16.6401C29.753 24.3006 27.273 11.5952 13.9224 16.5414C24.3567 13.2485 27.3603 26.6933 40.9245 16.6401Z" fill="#86BBE7"/>
<path id="Vector_5" d="M26.4302 5.08919C26.4302 7.58986 28.4578 9.61978 30.9608 9.61978C33.4637 9.61978 35.4914 7.58986 35.4914 5.08919C35.4914 2.58623 33.4637 0.558596 30.9608 0.558596C28.4578 0.556299 26.4302 2.58623 26.4302 5.08919Z" fill="url(#paint0_radial_3372_16354)"/>
</g>
<g id="Group_3">
<g id="Group_4">
<path id="Vector_6" d="M4.71423 33.5179C4.69816 33.5685 4.6752 33.596 4.64764 33.6052C4.61779 33.6144 4.5512 33.6259 4.41112 33.6259H1.41216C1.26061 33.6259 1.21927 33.6121 1.21009 33.6098C1.20779 33.6075 1.18023 33.5937 1.13661 33.5111L1.11594 33.4697H0.918457L1.19172 34.1609H1.38461L1.35705 34.0668C1.33868 34.0025 1.33638 33.9749 1.33638 33.9657C1.33638 33.9405 1.34098 33.9336 1.34098 33.9336C1.35016 33.929 1.39149 33.9175 1.53846 33.9175H2.59475V37.7799C2.59475 37.9682 2.5649 38.0256 2.55112 38.0416C2.54194 38.0531 2.49831 38.0922 2.31461 38.1037L2.24572 38.1082V38.2942H3.61661V38.1037H3.54312C3.43061 38.1037 3.37779 38.0945 3.35253 38.0853C3.32957 38.0761 3.30661 38.0531 3.29053 38.0141C3.27675 37.9797 3.25838 37.9016 3.25838 37.7156V33.9175H4.3652C4.45016 33.9175 4.48461 33.9267 4.50068 33.9336C4.50068 33.9336 4.50527 33.9382 4.50527 33.9565C4.50527 34.0185 4.50068 34.053 4.49609 34.0714L4.47312 34.1609H4.66142L4.93468 33.4697H4.73031L4.71423 33.5179Z" fill="white"/>
<path id="Vector_7" d="M8.25527 33.8169H8.32875C8.43898 33.8169 8.51016 33.8376 8.52853 33.8743C8.5469 33.9134 8.56986 34.0052 8.56986 34.2188V35.7642H6.22994V34.0672C6.22994 33.9248 6.25979 33.8812 6.27357 33.8697C6.29194 33.8537 6.34475 33.8238 6.48942 33.8146L6.55831 33.81V33.624H5.24253V33.8123L5.31142 33.8146C5.47675 33.8215 5.51349 33.8605 5.52038 33.872C5.53186 33.8927 5.55942 33.9662 5.55942 34.2279V37.8653C5.55942 37.9571 5.53875 38.0214 5.49972 38.0582C5.46298 38.0926 5.40098 38.1087 5.31831 38.1018L5.24023 38.0972V38.2947H6.55601V38.1041H6.48253C6.36772 38.1041 6.32179 38.0834 6.30572 38.0719C6.27586 38.049 6.2552 38.0237 6.24601 37.9939C6.23912 37.9732 6.22764 37.9066 6.22764 37.7045V36.0374H8.56757V37.6862C8.56757 37.9755 8.53083 38.0398 8.52164 38.0536C8.49409 38.0857 8.4252 38.1041 8.32646 38.1041H8.25298V38.2947H9.55268V38.1041H9.4792C9.36898 38.1041 9.32764 38.0857 9.31157 38.0742C9.28401 38.0536 9.26335 38.0306 9.25186 37.9985C9.24498 37.9824 9.2312 37.9204 9.2312 37.6908V34.2211C9.2312 33.9822 9.24498 33.9179 9.25186 33.9019C9.26105 33.8743 9.27942 33.8559 9.30697 33.8422C9.32994 33.8307 9.38046 33.8169 9.4792 33.8169H9.55268V33.6263H8.25298V33.8169H8.25527Z" fill="white"/>
<path id="Vector_8" d="M13.2038 37.5897C13.1716 37.7987 13.1303 37.8676 13.1096 37.8905C13.0706 37.9319 13.0224 37.9594 12.965 37.9732C12.9213 37.9847 12.8042 37.9962 12.4965 37.9962H11.6997C11.5344 37.9962 11.4127 37.9847 11.3346 37.964C11.2726 37.9457 11.2267 37.902 11.1968 37.8308C11.1624 37.7482 11.144 37.6035 11.144 37.4037V36.0788H12.4942C12.6159 36.0788 12.6573 36.0948 12.671 36.1017C12.6871 36.1109 12.7009 36.1339 12.7055 36.1706L12.717 36.2303H12.8961V35.6585H12.7078L12.7055 35.7274C12.7032 35.7596 12.6917 35.7734 12.6779 35.7825C12.6733 35.7848 12.6366 35.8078 12.4575 35.8078H11.144V33.9225H12.5631C12.7698 33.9225 12.8134 33.957 12.8203 33.9639C12.8318 33.9754 12.8754 34.0351 12.9558 34.3382L12.9696 34.3933H13.1441V33.624H10.1566V33.8215H10.2301C10.3472 33.8215 10.4253 33.8422 10.439 33.8789C10.4551 33.9179 10.4758 34.0075 10.4758 34.2004V37.8515C10.4758 37.9778 10.4505 38.0375 10.4276 38.0513C10.3839 38.0788 10.315 38.0949 10.2232 38.0995L10.1543 38.1041V38.2924H13.3921V37.5277H13.2107L13.2038 37.5897Z" fill="white"/>
<path id="Vector_9" d="M17.6701 33.7867C17.4496 33.6788 17.1121 33.626 16.639 33.626H15.2773V33.8166H15.3508C15.4909 33.8166 15.5368 33.8487 15.5506 33.8671C15.5667 33.8878 15.5965 33.9543 15.5965 34.1403V37.8833C15.5965 38.0372 15.523 38.1015 15.3508 38.1015H15.2773V38.2921H16.6161V38.1015H16.5426C16.3865 38.1015 16.329 38.0739 16.3107 38.0555C16.3084 38.0532 16.2625 38.0119 16.2625 37.7203V33.9222H16.5128C16.8228 33.9222 17.0524 33.9635 17.1993 34.0485C17.344 34.1312 17.4565 34.2529 17.5369 34.4136C17.6173 34.5766 17.6586 34.7649 17.6586 34.9762C17.6586 35.2449 17.5782 35.4561 17.4106 35.6192C17.243 35.7822 17.0317 35.8626 16.763 35.8626H16.6896V36.0532L16.7608 36.0555C17.2269 36.0646 17.6035 35.9659 17.879 35.7638C18.1615 35.5572 18.3039 35.2472 18.3039 34.8407C18.3039 34.5789 18.251 34.3608 18.15 34.1978C18.0513 34.0324 17.8882 33.8946 17.6701 33.7867Z" fill="white"/>
<path id="Vector_10" d="M21.7801 37.5897C21.7479 37.7987 21.7066 37.8676 21.6859 37.8905C21.6469 37.9319 21.5987 37.9594 21.5413 37.9732C21.4976 37.9847 21.3782 37.9962 21.0728 37.9962H20.276C20.1107 37.9962 19.989 37.9847 19.9109 37.964C19.8466 37.9457 19.803 37.9043 19.7731 37.8308C19.7387 37.7482 19.7203 37.6035 19.7203 37.4037V36.0788H21.0705C21.1922 36.0788 21.2336 36.0948 21.2474 36.1017C21.2634 36.1109 21.2772 36.1339 21.2818 36.1706L21.2933 36.2303H21.4724V35.6585H21.2841L21.2818 35.7274C21.2795 35.7596 21.268 35.7734 21.2542 35.7825C21.2496 35.7848 21.2129 35.8078 21.0338 35.8078H19.7226V33.9225H21.1417C21.3484 33.9225 21.392 33.957 21.3989 33.9639C21.4104 33.9754 21.454 34.0351 21.5344 34.3382L21.5482 34.3933H21.7227V33.624H18.7329V33.8215H18.8064C18.9212 33.8215 19.0016 33.8422 19.0154 33.8789C19.0314 33.9179 19.0521 34.0075 19.0521 34.2004V37.8515C19.0521 37.9778 19.0268 38.0375 19.0062 38.0513C18.9625 38.0788 18.8936 38.0949 18.8018 38.0995L18.7329 38.1041V38.2924H21.9707V37.5277H21.7893L21.7801 37.5897Z" fill="white"/>
<path id="Vector_11" d="M26.2031 37.8832C26.1021 37.6697 26.0883 37.6237 26.086 37.6237L24.4671 33.6006L24.4488 33.5547H24.2697L22.6117 37.7362C22.5222 37.959 22.4625 38.0279 22.4349 38.0462C22.3867 38.0807 22.3247 38.0991 22.2512 38.0991H22.1777V38.2896H22.9952V38.0991H22.9217C22.8437 38.0991 22.8437 38.0784 22.8437 38.0715C22.8437 38.0646 22.8483 38.0279 22.908 37.8717L23.5739 36.2092H24.8024L25.4316 37.7707L25.4385 37.7982C25.4454 37.8212 25.4545 37.8396 25.466 37.8534C25.5188 37.9819 25.5257 38.0394 25.5257 38.06C25.5257 38.0807 25.5257 38.1014 25.4545 38.1014H25.3811V38.2919H26.582V38.1014H26.5085C26.3754 38.1037 26.2743 38.0302 26.2031 37.8832ZM23.6795 35.9405L24.1847 34.6684L24.6899 35.9405H23.6795Z" fill="white"/>
<path id="Vector_12" d="M31.6819 37.84C31.4982 37.9502 31.3351 38.0054 31.1974 38.0054C31.0573 38.0054 30.908 37.9617 30.7565 37.8768C30.6026 37.7918 30.3776 37.5438 30.0837 37.1374C29.7874 36.7263 29.6014 36.4577 29.5302 36.3337L29.2524 35.9065C29.482 35.7642 29.6634 35.5942 29.7966 35.3968C29.9413 35.1786 30.0171 34.9444 30.0171 34.701C30.0171 34.4897 29.9757 34.306 29.8908 34.1568C29.8058 34.0075 29.6795 33.8858 29.5165 33.7985C29.3557 33.7136 29.1973 33.6631 29.0434 33.647C28.8965 33.6332 28.6554 33.624 28.3293 33.624H26.9722V33.8146H27.0434C27.1122 33.8146 27.2316 33.8261 27.2569 33.8881C27.2845 33.9547 27.2982 34.0442 27.2982 34.1522V37.7459C27.2982 37.9479 27.273 38.0191 27.2569 38.0444C27.25 38.0559 27.211 38.0972 27.0434 38.1041L26.9745 38.1064V38.2947H28.2856V38.1041H28.2122C28.1042 38.1041 28.0308 38.0834 28.0101 38.049C27.9894 38.0168 27.9665 37.9434 27.9665 37.7872V36.1293L28.6232 36.1178L29.048 36.7722L29.0618 36.7952C29.5371 37.5025 29.8632 37.925 30.0584 38.0857C30.2582 38.2511 30.5016 38.3337 30.7794 38.3337C31.1882 38.3337 31.5257 38.2281 31.7829 38.0168L31.8197 37.987L31.7599 37.7895L31.6819 37.84ZM28.366 35.8675H27.9642V33.8904H28.2627C28.6829 33.8904 28.9791 34.0052 29.1399 34.2325C29.3075 34.4668 29.3925 34.7194 29.3925 34.9811C29.3925 35.2498 29.3121 35.4588 29.1445 35.6241C28.9791 35.7848 28.7174 35.8675 28.366 35.8675Z" fill="white"/>
<path id="Vector_13" d="M35.1058 37.1321C35.0921 37.4742 35.0301 37.7085 34.9175 37.8256C34.8096 37.9404 34.6305 38.0001 34.3871 38.0001H33.836C33.5375 38.0001 33.3285 37.9496 33.2114 37.8508C33.0989 37.7544 33.0415 37.5799 33.0415 37.3296V34.1538C33.0415 33.9793 33.053 33.9287 33.0576 33.915C33.0667 33.892 33.0851 33.869 33.1173 33.8507C33.1356 33.8392 33.1861 33.8185 33.3147 33.8185H33.3882V33.6279H32.0288V33.8185L32.1 33.8208C32.2952 33.8254 32.3296 33.869 32.3342 33.8782C32.3526 33.9104 32.3733 33.9793 32.3733 34.1262V37.8279C32.3733 37.9679 32.348 38.0276 32.325 38.0552C32.3136 38.0713 32.2676 38.108 32.1069 38.108H32.0334V38.2986H35.2964V37.0655H35.1081L35.1058 37.1321Z" fill="white"/>
<path id="Vector_14" d="M37.287 33.8212L37.3627 33.8166C37.4408 33.812 37.5419 33.8166 37.574 33.8694C37.5924 33.8992 37.6245 33.9911 37.6245 34.2529V37.6904C37.6245 37.9522 37.5947 38.028 37.5809 38.0486C37.574 38.0601 37.5327 38.1015 37.3604 38.1015H37.287V38.2921H38.6395V38.1015H38.566C38.4374 38.1015 38.3869 38.0831 38.3685 38.0716C38.3387 38.0532 38.318 38.0303 38.3088 38.0027C38.3042 37.9912 38.2904 37.9338 38.2904 37.6835V34.2138C38.2904 33.9934 38.3019 33.9222 38.3065 33.8992C38.3157 33.8694 38.3616 33.851 38.3892 33.8418C38.4512 33.8212 38.5086 33.812 38.5568 33.8166L38.6372 33.8258V33.626H37.2847V33.8212H37.287Z" fill="white"/>
<path id="Vector_15" d="M41.2024 35.7495C41.0279 35.6691 40.7133 35.552 40.2449 35.3959C39.99 35.2949 39.8223 35.1869 39.7466 35.0767C39.6708 34.9665 39.6318 34.8333 39.6318 34.684C39.6318 34.4521 39.7144 34.2592 39.8821 34.0962C40.0474 33.9331 40.2793 33.8505 40.5663 33.8505C40.7386 33.8505 40.897 33.8803 41.0325 33.94C41.1703 33.9997 41.292 34.087 41.3999 34.1995C41.4757 34.2799 41.5262 34.3327 41.5492 34.358V34.4154L41.7581 34.3809L41.5124 33.7334L41.5032 33.6874H41.4527C41.4389 33.6806 41.4137 33.6668 41.1404 33.614C40.4837 33.4854 39.9854 33.5933 39.6363 33.9377C39.3838 34.188 39.2529 34.5026 39.2529 34.87C39.2529 35.0721 39.3034 35.2719 39.4021 35.4625C39.5009 35.6554 39.6295 35.8046 39.7787 35.9011C39.9257 35.9952 40.1691 36.1031 40.525 36.2271C40.8649 36.3443 41.0991 36.443 41.2162 36.5234C41.331 36.6014 41.4229 36.691 41.4872 36.7897C41.5492 36.8862 41.579 37.0079 41.579 37.148C41.579 37.3845 41.4895 37.582 41.3035 37.7519C41.1175 37.9218 40.8396 38.0068 40.4745 38.0068C40.0703 38.0068 39.7718 37.9264 39.5858 37.7657C39.4021 37.6095 39.308 37.3202 39.3034 36.9091V36.838H39.1128V38.2984H40.3918C40.4584 38.2984 40.5893 38.2869 40.7937 38.264C41.0026 38.241 41.1519 38.2066 41.2529 38.1583C41.3517 38.1124 41.4481 38.0412 41.5446 37.9517C41.6387 37.8621 41.7191 37.7634 41.7857 37.6554C41.8523 37.5475 41.9028 37.4327 41.9326 37.3133C41.9625 37.1962 41.9786 37.0722 41.9786 36.9436C41.9786 36.6336 41.8936 36.3741 41.7237 36.172C41.5561 35.9723 41.3815 35.8322 41.2024 35.7495Z" fill="white"/>
<path id="Vector_16" d="M45.37 37.1321C45.3562 37.4742 45.2942 37.7085 45.1817 37.8256C45.0738 37.9404 44.8947 38.0001 44.6513 38.0001H44.1002C43.8016 38.0001 43.5927 37.9496 43.4756 37.8508C43.363 37.7544 43.3056 37.5799 43.3056 37.3296V34.1538C43.3056 33.9793 43.3171 33.9287 43.3217 33.915C43.3309 33.892 43.3493 33.869 43.3814 33.8507C43.3998 33.8392 43.4503 33.8185 43.5789 33.8185H43.6524V33.6279H42.293V33.8185L42.3642 33.8208C42.5593 33.8254 42.5938 33.869 42.5984 33.8782C42.6167 33.9104 42.6374 33.9793 42.6374 34.1262V37.8279C42.6374 37.9679 42.6122 38.0276 42.5892 38.0552C42.5777 38.0713 42.5318 38.108 42.371 38.108H42.2976V38.2986H45.5606V37.0655H45.3723L45.37 37.1321Z" fill="white"/>
<path id="Vector_17" d="M49.9375 37.8832C49.8365 37.6697 49.8227 37.6237 49.8204 37.6237L48.2015 33.6006L48.1831 33.5547H48.004L46.3461 37.7362C46.2566 37.959 46.1968 38.0279 46.1693 38.0462C46.1211 38.0807 46.0591 38.0991 45.9856 38.0991H45.9121V38.2896H46.7296V38.0991H46.6561C46.578 38.0991 46.578 38.0784 46.578 38.0715C46.578 38.0646 46.5826 38.0279 46.6423 37.8717L47.3083 36.2092H48.5368L49.166 37.7707L49.1728 37.7982C49.1797 37.8212 49.1889 37.8396 49.2004 37.8534C49.2532 37.9819 49.2601 38.0394 49.2601 38.06C49.2601 38.0807 49.2601 38.1014 49.1889 38.1014H49.1154V38.2919H50.3164V38.1014H50.2429C50.1097 38.1037 50.0087 38.0302 49.9375 37.8832ZM47.4139 35.9405L47.9191 34.6684L48.4243 35.9405H47.4139Z" fill="white"/>
<path id="Vector_18" d="M54.4153 33.8163H54.4888C54.5715 33.8163 54.6381 33.8324 54.6863 33.8622C54.7001 33.8714 54.7437 33.9127 54.7437 34.1148V37.1229L51.4784 33.6464L51.4577 33.6234H50.5024V33.8186L50.5782 33.814C50.8147 33.8025 50.964 33.8668 51.026 34.0069C51.0972 34.1676 51.1316 34.3789 51.1316 34.6338V37.6924C51.1316 37.9542 51.1018 38.0277 51.088 38.0484C51.0788 38.0598 51.0398 38.0989 50.8584 38.0989H50.7849V38.2895H51.7999V38.1081L51.7378 38.0989C51.5771 38.0736 51.5404 38.0575 51.5335 38.0529C51.5197 38.0438 51.5059 38.0208 51.4944 37.9887C51.4853 37.9588 51.4738 37.8968 51.4738 37.7751V34.6131L55.0813 38.4548V34.1538C55.0813 33.9609 55.1157 33.8967 55.1364 33.8737C55.1616 33.8484 55.2213 33.8163 55.3637 33.8117L55.4349 33.8094V33.6211H54.4153V33.8163Z" fill="white"/>
<path id="Vector_19" d="M60.7988 34.866C60.661 34.5789 60.4727 34.3401 60.2385 34.1564C60.0043 33.9727 59.7265 33.8372 59.4119 33.7523C59.1019 33.6673 58.6725 33.626 58.142 33.626H55.9927V33.8166H56.0662C56.2108 33.8166 56.2568 33.8487 56.2728 33.8671C56.2797 33.8763 56.3187 33.9406 56.3187 34.2666V37.5595C56.3187 37.8374 56.2935 37.9614 56.2705 38.0165C56.2545 38.0578 56.2223 38.1038 56.1213 38.1038H55.9927V38.2943H58.1902C58.7459 38.2943 59.1639 38.2507 59.4325 38.1635C59.7058 38.0762 59.9676 37.9109 60.211 37.6743C60.4544 37.4378 60.6496 37.1531 60.7896 36.827C60.932 36.5009 61.0032 36.1634 61.0032 35.8258C61.0055 35.4745 60.9366 35.153 60.7988 34.866ZM59.8642 37.4034C59.5382 37.819 58.9549 38.028 58.1351 38.028C57.8366 38.028 57.6001 38.005 57.4256 37.9591C57.2625 37.9155 57.1477 37.8466 57.0834 37.7547C57.0168 37.6606 56.9847 37.509 56.9847 37.3023V33.8648H57.607C58.5301 33.8648 59.2259 34.0806 59.6805 34.5078C60.1329 34.9326 60.3625 35.4446 60.3625 36.0233C60.3625 36.5216 60.1949 36.9855 59.8642 37.4034Z" fill="white"/>
</g>
<g id="Group_5">
<path id="Vector_20" d="M33.5124 24.8262H33.4297V24.9088V24.9525V25.0328C33.4297 25.0328 33.5445 25.0351 33.5583 25.0351C33.7558 25.0351 33.7741 25.1063 33.7741 25.4691V28.9526C33.7741 29.3384 33.7672 29.3499 33.5124 29.3591L33.432 29.3614V29.4417V29.4877V29.5703H33.5146H34.7363H34.8189V29.4877V29.4417V29.3568L34.734 29.3591H34.7133C34.4768 29.3591 34.4699 29.3177 34.4699 28.9457V25.4301C34.4699 25.2441 34.4745 25.2097 34.4745 25.2074V25.2005V25.1936C34.4745 25.1293 34.4952 25.0902 34.5434 25.065C34.5939 25.0374 34.6582 25.0351 34.6927 25.0351C34.7087 25.0351 34.8189 25.0374 34.8189 25.0374V24.9548V24.9111V24.8285H34.7363H33.5124V24.8262Z" fill="white"/>
<path id="Vector_21" d="M31.549 25.0327L31.6339 25.035C31.7304 25.0281 31.797 25.0419 31.8314 25.0764C31.8934 25.1338 31.8934 25.283 31.8934 25.469V28.9525C31.8934 29.1064 31.8911 29.2189 31.8659 29.2786H28.8072C28.7796 29.2143 28.7796 29.0972 28.7796 28.9456V25.43C28.7796 25.244 28.7842 25.2095 28.7865 25.1935C28.7865 25.1453 28.8003 25.1085 28.8279 25.0833C28.883 25.0327 28.9886 25.0281 29.0414 25.0327L29.131 25.035V24.8261H27.7463V25.0304L27.8313 25.0327C27.9277 25.0258 27.9943 25.0396 28.0287 25.0741C28.0907 25.1315 28.0907 25.2807 28.0907 25.4667V28.9502C28.0907 29.1041 28.0885 29.2166 28.0632 29.2763H24.1205L24.5935 28.5024C24.6233 28.4565 24.6509 28.4106 24.6807 28.3601C24.9265 27.9284 25.0573 27.4186 25.0573 26.8858C25.0573 25.6504 24.1021 24.7549 22.7863 24.7549C20.9607 24.7549 20.1387 26.3255 20.1387 27.4415C20.1387 28.693 21.1054 29.6368 22.3845 29.6368C22.6646 29.6368 22.9333 29.6024 23.1836 29.5312C23.0274 29.77 22.5888 30.3969 22.2834 30.7459C22.1847 30.863 21.9114 31.0858 21.5876 31.0858C21.4338 31.0858 21.3672 31.0559 21.3098 31.0284C21.2409 30.9985 21.1858 30.9664 21.1445 30.9411C21.1261 30.9296 21.11 30.9204 21.0985 30.9158L21.0113 30.8699L20.947 31.0812L20.9929 31.1156C21.1353 31.2213 21.2271 31.2764 21.3626 31.3315C21.4912 31.382 21.7392 31.4394 22.0102 31.4394C22.3959 31.4394 22.7082 31.2833 22.97 30.9641C23.3213 30.5347 23.7485 29.8986 23.753 29.894L23.9459 29.5679H32.9359V29.359L32.8533 29.3613C32.7407 29.3635 32.6696 29.3498 32.6374 29.3176C32.5869 29.2671 32.5869 29.1339 32.5869 28.9479V25.4323C32.5869 25.2463 32.5915 25.2118 32.5915 25.2095V25.1981C32.5915 25.1498 32.6053 25.1131 32.6328 25.0878C32.6879 25.0373 32.7936 25.0327 32.8464 25.0373L32.9359 25.0396V24.8307H31.5513V25.0327H31.549ZM22.7656 29.235C21.6588 29.235 20.6507 28.1075 20.6507 26.8721C20.6507 25.8502 21.5348 25.1636 22.3592 25.1636C23.2754 25.1636 24.6073 26.0546 24.6073 27.4507C24.6073 28.3991 23.7462 29.235 22.7656 29.235Z" fill="white"/>
<path id="Vector_22" d="M20.3431 26.0275L20.35 25.9953L20.3982 25.7335L20.4189 25.6302L20.3339 25.6945L20.3247 25.7014C20.2512 25.7588 20.1869 25.807 19.9091 25.807H19.6404C19.3396 25.6784 19.1766 25.4901 19.1766 25.2789C19.1766 25.2375 19.1904 25.2008 19.2202 25.1709C19.2868 25.1043 19.42 25.0676 19.5876 25.0676C19.8425 25.0676 19.9987 25.1732 20.0951 25.2536L20.1686 25.3133L20.1617 25.2192L20.1456 24.9826L20.1433 24.9574L20.1181 24.9482C19.9734 24.8931 19.73 24.8701 19.5646 24.8701C19.0503 24.8701 18.7655 25.0355 18.7655 25.3386C18.7655 25.4947 18.8643 25.6715 19.0181 25.807C18.8436 25.807 18.7012 25.7909 18.6117 25.6164C18.6048 25.5866 18.5658 25.5866 18.5474 25.5866H18.5198L18.5061 25.6118L18.5038 25.6164V25.6233C18.5015 25.644 18.5015 25.6807 18.5015 25.7083V25.7289C18.5015 25.8093 18.5061 25.8989 18.5405 25.954C18.5818 26.0206 18.7081 26.0252 18.9102 26.0252L20.3064 26.0275H20.3431Z" fill="white"/>
<path id="Vector_23" d="M16.3865 25.0324L16.4715 25.0347C16.5679 25.0278 16.6345 25.0416 16.6689 25.076C16.7309 25.1334 16.7309 25.2827 16.7309 25.4687V28.9522C16.7309 29.106 16.7286 29.2185 16.7034 29.2782H12.7583L13.2291 28.5067C13.2612 28.4608 13.2888 28.4148 13.3186 28.362L13.3875 28.2403H13.3806C13.585 27.8339 13.6929 27.37 13.6929 26.8878C13.6929 25.6524 12.7377 24.7568 11.4196 24.7568C9.59405 24.7568 8.77197 26.3275 8.77197 27.4435C8.77197 28.695 9.73642 29.6388 11.0178 29.6388C11.2979 29.6388 11.5666 29.6043 11.8169 29.5331C11.6584 29.7742 11.2175 30.4034 10.9167 30.7479C10.818 30.865 10.547 31.0877 10.2209 31.0877C10.0648 31.0877 9.99819 31.0556 9.94308 31.0303C9.87419 31.0005 9.81679 30.966 9.77545 30.9431C9.75708 30.9339 9.74331 30.9247 9.73182 30.9178L9.64457 30.8719L9.58027 31.0854L9.62619 31.1199C9.76856 31.2278 9.86042 31.2806 9.9959 31.3357C10.1245 31.3862 10.3702 31.4436 10.6435 31.4436C11.0269 31.4436 11.3415 31.2875 11.6033 30.9683C11.9225 30.5802 12.3083 30.0131 12.384 29.9005L12.5769 29.5722H17.7643V29.3632L17.6816 29.3655C17.5691 29.3701 17.4979 29.354 17.4657 29.3219C17.4152 29.2714 17.4152 29.1382 17.4152 28.9522V25.4687C17.4152 25.2896 17.4175 25.2207 17.4198 25.2069V25.1954C17.4198 25.1472 17.4336 25.1105 17.4612 25.0852C17.5163 25.0347 17.6219 25.0301 17.6747 25.0347L17.7643 25.037V24.828H16.3796V25.0324H16.3865ZM11.4035 29.2346C10.2967 29.2346 9.28864 28.1071 9.28864 26.8717C9.28864 25.8499 10.1727 25.1633 10.9971 25.1633C11.9133 25.1633 13.2452 26.0542 13.2452 27.4504C13.2452 28.3988 12.384 29.2346 11.4035 29.2346Z" fill="white"/>
<path id="Vector_24" d="M8.96941 26.0271L8.9763 25.995L9.02453 25.7332L9.0429 25.6298L8.95793 25.6941L8.94875 25.701C8.87527 25.7584 8.81097 25.809 8.53312 25.809H8.26675C7.96593 25.6804 7.8006 25.4921 7.8006 25.2808C7.8006 25.1522 7.96364 25.0696 8.21393 25.0696C8.46653 25.0696 8.62497 25.1752 8.72371 25.2556L8.79719 25.3153L8.7903 25.2211L8.77193 24.9846L8.76964 24.9593L8.74438 24.9501C8.60201 24.895 8.3586 24.8721 8.19097 24.8721C7.6766 24.8721 7.39186 25.0374 7.39186 25.3405C7.39186 25.4967 7.4883 25.6735 7.64215 25.809C7.47223 25.809 7.32527 25.7929 7.23571 25.6184C7.22882 25.5885 7.18978 25.5885 7.17141 25.5885H7.14386L7.13008 25.6138L7.12778 25.6184V25.6253C7.12549 25.6459 7.12549 25.6827 7.12549 25.7102V25.7309C7.12549 25.8113 7.13008 25.9008 7.16453 25.9559C7.20586 26.0225 7.33215 26.0248 7.53653 26.0271L8.93267 26.0294L8.96941 26.0271Z" fill="white"/>
<path id="Vector_25" d="M4.53517 24.7783C2.72339 24.7783 1.9082 26.3375 1.9082 27.4443C1.9082 28.6843 2.86576 29.6189 4.13331 29.6189C5.41006 29.6189 6.78554 28.7647 6.78554 26.8909C6.78783 25.667 5.83946 24.7783 4.53517 24.7783ZM4.5168 29.2538C3.3985 29.2538 2.38124 28.1171 2.38124 26.8702C2.38124 25.8369 3.2745 25.1411 4.11035 25.1411C4.90257 25.1411 6.38139 25.9334 6.38139 27.4489C6.37909 28.4111 5.5088 29.2538 4.5168 29.2538Z" fill="white"/>
<path id="Vector_26" d="M2.29874 25.4764C2.49163 25.4764 2.64778 25.3202 2.64778 25.1274C2.64778 24.9345 2.49163 24.7783 2.29874 24.7783C2.10586 24.7783 1.94971 24.9345 1.94971 25.1274C1.94971 25.3202 2.10586 25.4764 2.29874 25.4764Z" fill="white"/>
<path id="Vector_27" d="M1.43986 24.7783C1.24697 24.7783 1.09082 24.9345 1.09082 25.1274C1.09082 25.3202 1.24697 25.4764 1.43986 25.4764C1.63275 25.4764 1.78889 25.3202 1.78889 25.1274C1.78889 24.9345 1.63275 24.7783 1.43986 24.7783Z" fill="white"/>
<path id="Vector_28" d="M40.5161 24.7783C38.7043 24.7783 37.8892 26.3375 37.8892 27.4443C37.8892 28.6843 38.8467 29.6189 40.1143 29.6189C41.391 29.6189 42.7665 28.7647 42.7665 26.8909C42.7688 25.667 41.8204 24.7783 40.5161 24.7783ZM40.4978 29.2538C39.3795 29.2538 38.3622 28.1171 38.3622 26.8702C38.3622 25.8369 39.2555 25.1411 40.0913 25.1411C40.8835 25.1411 42.3623 25.9334 42.3623 27.4489C42.36 28.4111 41.4898 29.2538 40.4978 29.2538Z" fill="white"/>
<path id="Vector_29" d="M38.2792 25.4764C38.4721 25.4764 38.6283 25.3202 38.6283 25.1274C38.6283 24.9345 38.4721 24.7783 38.2792 24.7783C38.0863 24.7783 37.9302 24.9345 37.9302 25.1274C37.9302 25.3202 38.0863 25.4764 38.2792 25.4764Z" fill="white"/>
<path id="Vector_30" d="M37.4203 24.7783C37.2274 24.7783 37.0713 24.9345 37.0713 25.1274C37.0713 25.3202 37.2274 25.4764 37.4203 25.4764C37.6132 25.4764 37.7694 25.3202 37.7694 25.1274C37.7694 24.9345 37.6132 24.7783 37.4203 24.7783Z" fill="white"/>
<path id="Vector_31" d="M51.3407 30.3301C51.1478 30.3301 50.9917 30.4862 50.9917 30.6791C50.9917 30.872 51.1478 31.0282 51.3407 31.0282C51.5336 31.0282 51.6898 30.872 51.6898 30.6791C51.6898 30.4862 51.5336 30.3301 51.3407 30.3301Z" fill="white"/>
<path id="Vector_32" d="M50.4818 30.3301C50.289 30.3301 50.1328 30.4862 50.1328 30.6791C50.1328 30.872 50.289 31.0282 50.4818 31.0282C50.6747 31.0282 50.8309 30.872 50.8309 30.6791C50.8309 30.4862 50.6747 30.3301 50.4818 30.3301Z" fill="white"/>
<path id="Vector_33" d="M60.8265 29.1478H60.4315C60.3994 27.0444 59.3661 24.8262 57.6737 24.8262C56.6082 24.8262 56.1076 25.4508 55.7356 26.1006C55.5749 26.3624 55.4692 26.4542 55.3108 26.5438L55.7471 27.3957C56.0778 26.2246 56.6955 25.2234 57.6415 25.2234C58.505 25.2234 59.3454 26.5759 59.3775 29.1478L59.3821 29.281H55.2764H55.1363H54.1374C54.2086 28.8837 54.2224 28.4543 54.2224 28.0341V26.9457L54.2178 25.4324C54.2178 25.2464 54.2224 25.2119 54.2224 25.2097V25.2028V25.1959C54.2224 25.1316 54.243 25.0925 54.2912 25.0673C54.3418 25.0397 54.4061 25.0374 54.4405 25.0374C54.4566 25.0374 54.5668 25.0397 54.5668 25.0397V24.9571V24.9134V24.8308H54.4841H53.2625H53.1798V24.9134V24.9571V25.0374C53.1798 25.0374 53.2947 25.0397 53.3084 25.0397C53.5059 25.0397 53.5243 25.1109 53.5243 25.4737L53.5381 27.1707V28.6219C53.4761 30.087 52.9135 30.6404 51.7837 30.9458C52.073 30.9688 52.243 30.978 52.344 30.978C53.4347 30.978 53.8963 30.3694 54.0823 29.5749H55.134H55.2741H59.389H59.4189H60.8311L60.8265 29.1478Z" fill="white"/>
<path id="Vector_34" d="M50.7871 29.5683C51.4507 29.5683 51.9168 29.2101 51.9168 28.5556V27.1274V25.4327C51.9168 25.2467 51.9214 25.2122 51.9214 25.2099V25.2031V25.1962C51.9214 25.1319 51.9421 25.0928 51.9903 25.0676C52.0408 25.04 52.1051 25.0377 52.1396 25.0377C52.1557 25.0377 52.2659 25.04 52.2659 25.04V24.9573V24.9137V24.8311H52.1832H50.9616H50.8789V24.9137V24.9573V25.0377C50.8789 25.0377 50.9937 25.04 51.0075 25.04C51.205 25.04 51.2234 25.1112 51.2234 25.474L51.2417 27.1319V28.5373C51.2417 28.9896 51.0695 29.279 50.6562 29.2859H50.1717H50.0316H49.0878H48.9477H48.0039H47.3013H46.3667H46.2174H45.2277C45.2989 28.8886 45.3127 28.4592 45.3127 28.039V26.9505L45.3081 25.4373C45.3081 25.2513 45.3127 25.2168 45.3127 25.2145V25.2076V25.2008C45.3127 25.1365 45.3334 25.0974 45.3816 25.0722C45.4321 25.0446 45.4964 25.0423 45.5308 25.0423C45.5469 25.0423 45.6571 25.0446 45.6571 25.0446V24.9619V24.9183V24.8356H45.5745H44.3528H44.2702V24.9183V24.9619V25.0423C44.2702 25.0423 44.385 25.0446 44.3988 25.0446C44.5962 25.0446 44.6146 25.1158 44.6146 25.4786L44.6284 27.1756V28.6268C44.5664 30.0919 44.0038 30.6453 42.874 30.9507C43.1634 30.9736 43.3333 30.9828 43.4343 30.9828C44.5251 30.9828 44.9866 30.3743 45.1726 29.5798H46.2174H46.3667H47.3013H48.0039H48.9477H49.0878H50.0316H50.1717H50.7871V29.5683Z" fill="white"/>
<path id="Vector_35" d="M53.7426 24.2957C53.9355 24.2957 54.0916 24.1396 54.0916 23.9467C54.0916 23.7538 53.9355 23.5977 53.7426 23.5977C53.5497 23.5977 53.3936 23.7538 53.3936 23.9467C53.3936 24.1396 53.5497 24.2957 53.7426 24.2957Z" fill="white"/>
<path id="Vector_36" d="M58.4843 30.3301C58.2914 30.3301 58.1353 30.4862 58.1353 30.6791C58.1353 30.872 58.2914 31.0282 58.4843 31.0282C58.6772 31.0282 58.8333 30.872 58.8333 30.6791C58.8333 30.4862 58.6749 30.3301 58.4843 30.3301Z" fill="white"/>
</g>
<g id="Group_6">
<path id="Vector_37" d="M18.1383 46.6528C18.1038 46.6528 18.074 46.6666 18.0304 46.6896C17.9821 46.7125 17.9155 46.747 17.8627 46.747C17.787 46.747 17.6928 46.7378 17.539 46.6367C17.3277 46.4967 17.183 46.4048 17.0797 46.3428C17.7915 46.1407 18.221 45.5552 18.221 44.7538C18.221 43.8467 17.5229 43.1602 16.5975 43.1602C15.656 43.1602 14.9487 43.8536 14.9487 44.7722C14.9487 45.3302 15.1554 45.7963 15.5251 46.0787C15.3827 46.1959 15.2633 46.3887 15.2633 46.5885C15.2633 46.7033 15.3276 46.7722 15.4355 46.7722C15.5412 46.7722 15.571 46.6666 15.594 46.5885C15.6376 46.4393 15.679 46.3405 15.8489 46.3405C16.0555 46.3405 16.3632 46.5357 16.6618 46.724C16.9901 46.9307 17.3024 47.1282 17.555 47.1282C17.9041 47.1282 18.1314 47.0179 18.2187 46.9238C18.2692 46.871 18.2784 46.8205 18.2761 46.7952C18.2761 46.6987 18.2049 46.6528 18.1383 46.6528ZM15.4493 44.6527C15.4493 44.0925 15.7685 43.4908 16.4712 43.4908C17.2542 43.4908 17.7204 44.2142 17.7204 44.9145C17.7204 45.6103 17.3024 46.0971 16.7031 46.0971C15.8879 46.0971 15.4493 45.3531 15.4493 44.6527Z" fill="white"/>
<path id="Vector_38" d="M21.9179 46.1009C21.8444 46.0871 21.7663 46.0756 21.7158 45.9976C21.6492 45.8965 21.6033 45.7771 21.5597 45.66C21.5436 45.6164 21.5275 45.5727 21.5091 45.5291L20.6296 43.3499L20.6251 43.3362C20.6021 43.2627 20.5631 43.1387 20.4597 43.1387C20.361 43.1387 20.338 43.1915 20.2048 43.4808C20.1681 43.5612 20.1222 43.6622 20.0625 43.7908L19.0521 45.9493C19.0016 46.0596 18.9327 46.0825 18.8707 46.1009C18.8225 46.117 18.7329 46.1445 18.7329 46.2433C18.7329 46.319 18.788 46.3787 18.8592 46.3787C18.9166 46.3787 18.974 46.3742 19.0314 46.3696C19.0865 46.365 19.1417 46.3604 19.1968 46.3604C19.2542 46.3604 19.3116 46.365 19.369 46.3696C19.431 46.3742 19.4907 46.3787 19.5527 46.3787H19.5711H19.594C19.7433 46.3787 19.7548 46.2616 19.7548 46.2272C19.7548 46.1124 19.6399 46.0917 19.5871 46.0825C19.4999 46.0664 19.4562 46.0596 19.4562 45.947C19.4562 45.908 19.47 45.8552 19.4792 45.8345L19.7479 45.2421C19.7639 45.2099 19.78 45.2053 19.8673 45.2053H20.7996C20.8547 45.2053 20.8616 45.2122 20.9029 45.3087L21.0384 45.6577C21.0476 45.683 21.0591 45.7128 21.0728 45.7427C21.1096 45.8345 21.1647 45.9723 21.1647 46.0274C21.1647 46.0458 21.1555 46.0573 21.0751 46.0848C21.0131 46.1055 20.9098 46.1399 20.9098 46.2479C20.9098 46.2869 20.9282 46.3764 21.0912 46.3764C21.1509 46.3764 21.2106 46.3719 21.2703 46.3673C21.3254 46.3627 21.3805 46.3581 21.4357 46.3581C21.5206 46.3581 21.6079 46.3627 21.6928 46.3673C21.7801 46.3719 21.8697 46.3764 21.9569 46.3764C22.0878 46.3764 22.1016 46.2892 22.1016 46.2502C22.1016 46.1307 21.9822 46.1101 21.9179 46.1009ZM19.9454 44.8448L20.3518 43.9699L20.71 44.8448H19.9454Z" fill="white"/>
<path id="Vector_39" d="M25.4403 43.4104C25.4334 43.2658 25.3714 43.2061 25.229 43.2061C25.2084 43.2061 25.167 43.2061 25.105 43.2083C24.9282 43.2129 24.5631 43.2221 23.989 43.2221C23.6836 43.2221 23.4471 43.2175 23.2381 43.2129C23.0751 43.2084 22.9304 43.2061 22.7858 43.2061C22.6365 43.2061 22.6273 43.3783 22.625 43.4357V43.4541L22.5791 43.8605C22.5791 43.9363 22.6319 44.0098 22.71 44.0098C22.8248 44.0098 22.8501 43.9041 22.8593 43.8651L22.8638 43.849L22.873 43.8215C22.9396 43.6194 22.9396 43.6171 23.1279 43.6171H23.7732C23.7755 43.6332 23.7755 43.6607 23.7732 43.7021V43.725V45.9249C23.7732 46.0098 23.7204 46.0374 23.6078 46.0764C23.5367 46.1017 23.4379 46.1361 23.4379 46.2372C23.4379 46.3267 23.4907 46.3795 23.578 46.3795C23.5849 46.3795 23.5941 46.3795 23.6078 46.3772C23.6538 46.3726 23.7778 46.3612 24.159 46.3612C24.221 46.3612 24.2807 46.3658 24.3404 46.3704C24.3978 46.3749 24.4529 46.3795 24.5034 46.3795C24.5493 46.3795 24.5769 46.3589 24.593 46.3428C24.6297 46.3061 24.6274 46.2578 24.6274 46.2418C24.6274 46.1224 24.5126 46.0948 24.4483 46.081C24.3495 46.0581 24.283 46.0443 24.283 45.8927V43.7342V43.6722C24.283 43.6515 24.283 43.6309 24.283 43.6148C24.2875 43.6148 24.2921 43.6148 24.2967 43.6148H24.3243H24.3633H24.9695C25.1601 43.6148 25.1647 43.6699 25.1739 43.7549C25.1785 43.81 25.19 43.9363 25.3301 43.9363C25.3829 43.9363 25.415 43.9133 25.4311 43.8949C25.4747 43.849 25.4678 43.787 25.4655 43.748L25.4403 43.4104Z" fill="white"/>
<path id="Vector_40" d="M29.1353 46.1012C29.0595 46.0875 28.9815 46.076 28.9332 45.9979C28.8666 45.8946 28.8207 45.7729 28.7771 45.6535C28.761 45.6121 28.7449 45.5685 28.7289 45.5295L27.8471 43.348L27.8448 43.3388C27.8218 43.263 27.7851 43.1367 27.6795 43.1367C27.5807 43.1367 27.5577 43.1872 27.4269 43.472C27.3901 43.5523 27.3419 43.6557 27.2822 43.7889L26.2718 45.9474C26.2213 46.0576 26.1524 46.0806 26.0904 46.0989C26.0422 46.115 25.9526 46.1426 25.9526 46.2413C25.9526 46.3171 26.0077 46.3768 26.0789 46.3768C26.1363 46.3768 26.1937 46.3722 26.2512 46.3676C26.3063 46.363 26.3614 46.3584 26.4165 46.3584C26.4739 46.3584 26.5313 46.363 26.5887 46.3676C26.6507 46.3722 26.7104 46.3768 26.7724 46.3768H26.7908H26.8137C26.9584 46.3768 26.9745 46.2712 26.9745 46.2252C26.9745 46.1104 26.8597 46.0898 26.8046 46.0806C26.7173 46.0645 26.6714 46.0576 26.6714 45.9451C26.6714 45.9061 26.6852 45.8555 26.6943 45.8303L26.963 45.2401C26.9791 45.208 26.9952 45.2034 27.0824 45.2034H28.0147C28.0698 45.2034 28.0767 45.208 28.118 45.3044L28.2558 45.6558C28.265 45.6833 28.2788 45.7155 28.2926 45.7522C28.327 45.8395 28.3798 45.9726 28.3798 46.0255C28.3798 46.0438 28.3706 46.0553 28.2903 46.0829C28.2283 46.1035 28.1249 46.138 28.1249 46.2459C28.1249 46.2849 28.1433 46.3745 28.3063 46.3745C28.366 46.3745 28.4257 46.3699 28.4832 46.3653C28.5383 46.3607 28.5911 46.3561 28.6462 46.3561C28.7312 46.3561 28.8184 46.3607 28.9034 46.3653C28.9906 46.3699 29.0802 46.3745 29.1675 46.3745C29.3006 46.3745 29.3144 46.2872 29.3144 46.2482C29.319 46.1311 29.1996 46.1104 29.1353 46.1012ZM27.1605 44.8452L27.5692 43.9703L27.9252 44.8452H27.1605Z" fill="white"/>
<path id="Vector_41" d="M32.5981 46.1056C32.5246 46.0896 32.3891 46.0597 32.2077 45.7819L31.5556 44.7945C31.8541 44.6383 32.047 44.3398 32.047 44.0252C32.047 43.5039 31.6865 43.2031 31.0596 43.2031C31.0205 43.2031 30.9907 43.2054 30.9723 43.2054H30.9563C30.8483 43.2054 30.7335 43.21 30.6187 43.2146C30.4993 43.2192 30.3753 43.2238 30.2513 43.2238C30.1227 43.2238 30.0837 43.2169 30.0561 43.2123C30.0331 43.2077 30.0148 43.2054 29.9803 43.2054C29.8839 43.2054 29.8081 43.2651 29.8081 43.3432C29.8081 43.4695 29.9275 43.4925 29.9941 43.5039C30.0974 43.5246 30.1732 43.5384 30.1732 43.7198V45.8737C30.1732 46.0184 30.0974 46.0505 30.0125 46.085C29.9528 46.1079 29.8655 46.1447 29.8655 46.2411C29.8655 46.3169 29.9229 46.3766 29.9941 46.3766C30.0768 46.3766 30.1571 46.372 30.2398 46.3674C30.3179 46.3628 30.3983 46.3582 30.4763 46.3582C30.7381 46.3582 30.8575 46.3674 30.9149 46.372C30.9379 46.3743 30.954 46.3743 30.9631 46.3743H30.9884C31.0871 46.3743 31.1216 46.3077 31.1216 46.2526C31.1216 46.1263 30.9976 46.0988 30.9057 46.0781C30.7657 46.0459 30.6807 46.0207 30.6807 45.876V44.9828C30.6807 44.9759 30.6807 44.969 30.6807 44.9598C30.6807 44.9575 30.6807 44.9552 30.6807 44.9529C30.6853 44.9529 30.6945 44.9506 30.7037 44.9506H30.7748H30.83C31.0803 44.9506 31.0803 44.9506 31.1514 45.0677C31.1629 45.0884 31.1767 45.109 31.1951 45.1343L31.6635 45.8737C31.8059 46.085 31.9965 46.372 32.3731 46.372C32.5958 46.372 32.7359 46.3491 32.7359 46.2319C32.7336 46.1355 32.644 46.1148 32.5981 46.1056ZM31.055 44.636C31.0206 44.636 30.9861 44.636 30.9494 44.6383C30.9126 44.6383 30.8782 44.6406 30.8437 44.6406C30.7519 44.6406 30.706 44.636 30.683 44.6314V43.5912C30.683 43.5223 30.683 43.5223 30.8001 43.5223H30.8185H30.8368C31.1055 43.5223 31.5579 43.6004 31.5579 44.1262C31.5556 44.5878 31.2043 44.636 31.055 44.636Z" fill="white"/>
<path id="Vector_42" d="M45.5953 43.7364C45.7261 43.7364 45.8341 43.6308 45.8341 43.4976C45.8341 43.3644 45.7261 43.2588 45.5953 43.2588C45.4644 43.2588 45.3564 43.3667 45.3564 43.4976C45.3564 43.6285 45.4621 43.7364 45.5953 43.7364Z" fill="white"/>
<path id="Vector_43" d="M46.3458 43.7364C46.4766 43.7364 46.5846 43.6308 46.5846 43.4976C46.5846 43.3644 46.4766 43.2588 46.3458 43.2588C46.2149 43.2588 46.1069 43.3667 46.1069 43.4976C46.1069 43.6285 46.2149 43.7364 46.3458 43.7364Z" fill="white"/>
<path id="Vector_44" d="M46.8213 46.1036C46.7317 46.0761 46.6307 46.0462 46.6307 45.789V44.6983C46.6307 44.4434 46.7111 44.4388 46.8052 44.4342C46.8557 44.4319 46.9774 44.425 46.9774 44.2987C46.9774 44.2184 46.92 44.1587 46.8443 44.1587C46.8328 44.1587 46.8121 44.161 46.78 44.161C46.7065 44.1656 46.5871 44.1748 46.4126 44.1748C46.3092 44.1748 46.2403 44.1702 46.1737 44.1656C46.1049 44.161 46.036 44.1564 45.9326 44.1564C45.1794 44.1564 44.7294 44.4893 44.7294 45.045C44.7294 45.0542 44.7409 45.9291 45.8293 45.9291C45.8316 45.9291 46.0337 45.9291 46.1347 45.8556C46.1094 46.0325 46.0383 46.0348 45.9831 46.0348C45.9717 46.0348 45.9602 46.0348 45.9579 46.0348H42.58C42.6122 45.8763 42.6283 45.7087 42.6283 45.5365C42.6283 44.6868 41.8246 44.1173 41.0737 44.1173C40.8624 44.1173 40.681 44.1219 40.5134 44.1288H40.4766V43.6489C40.4766 43.5065 40.5455 43.4882 40.6328 43.4629C40.6879 43.4491 40.7797 43.4239 40.7797 43.3274C40.7797 43.208 40.6649 43.208 40.6236 43.208C40.557 43.208 40.4904 43.2126 40.4238 43.2172C40.2837 43.2264 40.1437 43.2241 40.0036 43.2172C39.9255 43.2126 39.8474 43.208 39.7671 43.208C39.7234 43.208 39.65 43.2241 39.65 43.3297C39.65 43.4239 39.7441 43.4468 39.8061 43.4606C39.9209 43.4882 39.9898 43.5157 39.9921 43.6443V45.8005C39.9921 45.9705 39.9324 46.0141 39.8957 46.0302H36.5247V44.5422C36.5247 44.3883 36.5775 44.3768 36.6441 44.3607C36.6854 44.3516 36.7727 44.3309 36.7727 44.239C36.7727 44.177 36.7314 44.1036 36.6166 44.1036C36.5752 44.1036 36.5339 44.1059 36.4834 44.1105C36.4168 44.115 36.3364 44.1219 36.2216 44.1219C36.1274 44.1219 36.0586 44.1173 35.992 44.1127C35.9231 44.1082 35.8565 44.1036 35.7669 44.1036C35.6636 44.1036 35.6269 44.1679 35.6269 44.2253C35.6269 44.3263 35.7256 44.347 35.7968 44.363C35.9185 44.3906 36.0356 44.4182 36.0356 44.6317V47.1186C36.0356 47.4332 35.946 47.6536 35.8174 47.6536C35.7807 47.6536 35.7348 47.6077 35.7003 47.571C35.6567 47.5273 35.6154 47.4837 35.5557 47.4837C35.3972 47.4837 35.3857 47.7937 35.3857 47.796C35.3857 47.9613 35.4523 48.0233 35.6269 48.0233C36.1274 48.0233 36.5201 47.4745 36.5201 46.7742V46.3379H46.3115H46.3391H46.3551C46.4631 46.3379 46.5549 46.3425 46.6353 46.347C46.6996 46.3493 46.7593 46.3539 46.8144 46.3539C46.8833 46.3539 46.9591 46.3103 46.9591 46.2276C46.9591 46.1473 46.8741 46.1197 46.8213 46.1036ZM42.1437 46.0416H40.557C40.4973 46.0164 40.4743 45.9819 40.4743 45.9176V44.572C40.4743 44.4113 40.4743 44.3837 40.8142 44.3837C41.634 44.3883 42.1621 44.9348 42.1621 45.7776C42.1644 45.8648 42.1575 45.9498 42.1437 46.0416ZM46.1439 45.6673C46.114 45.649 46.0934 45.6421 46.013 45.6559C45.9671 45.6627 45.8982 45.6742 45.7994 45.6742C45.5239 45.6742 45.1932 45.587 45.1932 45.1667C45.1932 44.6478 45.6249 44.4641 45.9946 44.4641C46.1439 44.4641 46.1439 44.471 46.1439 44.5146V45.6673Z" fill="white"/>
</g>
</g>
</g>
</g>
<defs>
<radialGradient id="paint0_radial_3372_16354" cx="0" cy="0" r="1" gradientUnits="userSpaceOnUse" gradientTransform="translate(31.5097 3.35833) scale(7.47624)">
<stop stop-color="white"/>
<stop offset="1" stop-color="#816D4E"/>
</radialGradient>
<clipPath id="clip0_3372_16354">
<rect width="60.0872" height="47.9191" fill="white" transform="translate(0.918457 0.118164)"/>
</clipPath>
</defs>
</svg>
