<svg xmlns="http://www.w3.org/2000/svg" width="33" height="32" viewBox="0 0 33 32" fill="none">
  <path d="M16.504 19.423C18.2331 19.423 19.6795 18.8128 20.8433 17.5923C22.0071 16.3718 22.5891 14.9521 22.5891 13.3333V7.24357H16.4993C14.8591 7.24357 13.4341 7.82303 12.2243 8.98197C11.0145 10.1409 10.4096 11.596 10.4096 13.3472C10.4096 13.9567 10.516 14.5624 10.7288 15.1641C10.9416 15.7658 11.2455 16.3683 11.6403 16.9718L10.766 17.8333C10.6087 17.9921 10.5301 18.1703 10.5301 18.3678C10.5301 18.5653 10.6093 18.7427 10.7678 18.9C10.9263 19.0572 11.1041 19.1337 11.3011 19.1294C11.4982 19.1252 11.6754 19.0444 11.8326 18.8871L12.6865 18.0923C13.2557 18.5179 13.8732 18.8461 14.539 19.0769C15.2049 19.3076 15.8599 19.423 16.504 19.423ZM16.4993 17.9102C16.0532 17.9102 15.5916 17.8265 15.1147 17.659C14.6377 17.4914 14.1907 17.2692 13.7736 16.9923L17.766 13C17.9232 12.8401 18.0018 12.6561 18.0018 12.448C18.0018 12.2399 17.9226 12.0572 17.7641 11.9C17.6057 11.7427 17.4279 11.6641 17.2308 11.6641C17.0337 11.6641 16.8566 11.7427 16.6993 11.9L12.6737 15.9256C12.4617 15.4949 12.2835 15.05 12.139 14.591C11.9946 14.132 11.9224 13.7096 11.9224 13.3238C11.9224 11.9943 12.3788 10.9007 13.2916 10.043C14.2044 9.18523 15.2737 8.75637 16.4993 8.75637H21.0762V13.3333C21.0762 14.5975 20.6314 15.6764 19.7418 16.57C18.8523 17.4635 17.7714 17.9102 16.4993 17.9102ZM16.4993 28.3845L12.7814 24.6666H7.08912C6.56625 24.6666 6.11502 24.4739 5.73542 24.0884C5.35582 23.7029 5.16602 23.2546 5.16602 22.7435V3.9231C5.16602 3.40023 5.35582 2.949 5.73542 2.5694C6.11502 2.1898 6.56625 2 7.08912 2H25.9095C26.4206 2 26.8689 2.1898 27.2544 2.5694C27.6399 2.949 27.8326 3.40023 27.8326 3.9231V22.7435C27.8326 23.2546 27.6399 23.7029 27.2544 24.0884C26.8689 24.4739 26.4206 24.6666 25.9095 24.6666H20.2172L16.4993 28.3845ZM7.08912 23.1538H13.4019L16.4993 26.2512L19.5967 23.1538H25.9095C26.0292 23.1538 26.1275 23.1153 26.2044 23.0384C26.2813 22.9615 26.3198 22.8632 26.3198 22.7435V3.9231C26.3198 3.80343 26.2813 3.70513 26.2044 3.6282C26.1275 3.55127 26.0292 3.5128 25.9095 3.5128H7.08912C6.96945 3.5128 6.87115 3.55127 6.79422 3.6282C6.71728 3.70513 6.67882 3.80343 6.67882 3.9231V22.7435C6.67882 22.8632 6.71728 22.9615 6.79422 23.0384C6.87115 23.1153 6.96945 23.1538 7.08912 23.1538Z" fill="#00336A"/>
</svg>