<svg width="16" height="16" viewBox="0 0 16 16" fill="none" xmlns="http://www.w3.org/2000/svg">
<path d="M8.00016 8.66732C8.36835 8.66732 8.66683 8.36884 8.66683 8.00065C8.66683 7.63246 8.36835 7.33398 8.00016 7.33398C7.63197 7.33398 7.3335 7.63246 7.3335 8.00065C7.3335 8.36884 7.63197 8.66732 8.00016 8.66732Z" stroke="#00336A" stroke-width="2" stroke-linecap="round" stroke-linejoin="round"/>
<path d="M12.6667 8.66732C13.0349 8.66732 13.3333 8.36884 13.3333 8.00065C13.3333 7.63246 13.0349 7.33398 12.6667 7.33398C12.2985 7.33398 12 7.63246 12 8.00065C12 8.36884 12.2985 8.66732 12.6667 8.66732Z" stroke="#00336A" stroke-width="2" stroke-linecap="round" stroke-linejoin="round"/>
<path d="M3.33317 8.66732C3.70136 8.66732 3.99984 8.36884 3.99984 8.00065C3.99984 7.63246 3.70136 7.33398 3.33317 7.33398C2.96498 7.33398 2.6665 7.63246 2.6665 8.00065C2.6665 8.36884 2.96498 8.66732 3.33317 8.66732Z" stroke="#00336A" stroke-width="2" stroke-linecap="round" stroke-linejoin="round"/>
</svg>
