<svg xmlns="http://www.w3.org/2000/svg" width="33" height="32" viewBox="0 0 33 32" fill="none">
  <g clip-path="url(#clip0_3372_17915)">
    <path d="M2.16732 27.6663V11.0074C1.76732 10.7845 1.4451 10.5075 1.20065 10.1764C0.956207 9.84526 0.833984 9.4636 0.833984 9.0314C0.833984 8.63547 1.02544 8.15727 1.40835 7.5968C1.79124 7.03633 2.29636 6.45781 2.92372 5.86123C3.55107 6.45781 4.05621 7.03633 4.43912 7.5968C4.82201 8.15727 5.01345 8.63547 5.01345 9.0314C5.01345 9.4636 4.89123 9.84526 4.64678 10.1764C4.40234 10.5075 4.08012 10.7845 3.68012 11.0074V17.6664H7.74425V14.1253C7.74425 13.6091 7.94126 13.1591 8.33528 12.7753C8.72931 12.3916 9.21862 12.2082 9.80322 12.2253H10.2648C9.87334 11.745 9.57761 11.2501 9.37758 10.7407C9.17758 10.2313 9.07758 9.71142 9.07758 9.18107C9.07758 8.39151 9.26275 7.65537 9.63308 6.97264C10.0034 6.2899 10.5174 5.73909 11.175 5.3202L16.5007 1.73047L21.8263 5.3202C22.4839 5.74005 22.9979 6.29208 23.3682 6.9763C23.7385 7.66052 23.9237 8.39558 23.9237 9.18147C23.9237 9.71156 23.8237 10.2313 23.6237 10.7407C23.4237 11.2501 23.128 11.745 22.7365 12.2253H23.1981C23.7827 12.2082 24.272 12.3916 24.666 12.7753C25.06 13.1591 25.257 13.6091 25.257 14.1253V17.6664H29.3212V11.0074C28.9212 10.7845 28.599 10.5075 28.3545 10.1764C28.1101 9.84526 27.9879 9.4636 27.9879 9.0314C27.9879 8.63547 28.1793 8.15727 28.5622 7.5968C28.9451 7.03633 29.4502 6.45781 30.0775 5.86123C30.7049 6.45781 31.21 7.03633 31.5929 7.5968C31.9758 8.15727 32.1673 8.63547 32.1673 9.0314C32.1673 9.4636 32.0451 9.84526 31.8006 10.1764C31.5562 10.5075 31.2339 10.7889 30.834 11.0205V27.6663H18.4109V22.6663C18.4109 22.1257 18.2282 21.6722 17.8629 21.3057C17.4976 20.9393 17.0454 20.7561 16.5065 20.7561C15.9675 20.7561 15.5135 20.9393 15.1442 21.3057C14.775 21.6722 14.5904 22.1257 14.5904 22.6663V27.6663H2.16732ZM13.7007 12.2792H19.3006C20.1737 12.2792 20.9104 11.9807 21.5106 11.3837C22.1108 10.7866 22.4109 10.0539 22.4109 9.18557C22.4109 8.64284 22.2857 8.14326 22.0353 7.68683C21.7849 7.23043 21.4517 6.86076 21.0359 6.5778L16.5007 3.5535L11.9654 6.5778C11.5496 6.86076 11.2164 7.23043 10.966 7.68683C10.7156 8.14326 10.5904 8.64284 10.5904 9.18557C10.5904 10.0539 10.8905 10.7866 11.4907 11.3837C12.0909 11.9807 12.8276 12.2792 13.7007 12.2792ZM3.68012 26.1535H13.0776V22.6663C13.0776 21.7155 13.4107 20.9073 14.0769 20.2417C14.7431 19.5761 15.5521 19.2433 16.5038 19.2433C17.4555 19.2433 18.2635 19.5761 18.9275 20.2417C19.5917 20.9073 19.9237 21.7155 19.9237 22.6663V26.1535H29.3212V19.1791H23.7442V14.1253C23.7442 14.0398 23.7122 13.9629 23.6481 13.8945C23.584 13.8262 23.5049 13.792 23.4109 13.792H9.59042C9.49637 13.792 9.41731 13.8262 9.35322 13.8945C9.28911 13.9629 9.25705 14.0398 9.25705 14.1253V19.1791H3.68012V26.1535Z" fill="#00336A"/>
  </g>
  <defs>
    <clipPath id="clip0_3372_17915">
      <rect width="32" height="32" fill="white" transform="translate(0.5)"/>
    </clipPath>
  </defs>
</svg>