<svg width="158" height="85" viewBox="0 0 158 85" fill="none" xmlns="http://www.w3.org/2000/svg">
<path d="M80.359 0.555364C21.5835 -0.851804 7.87174 55.0608 8.33521 83.9993H150.992C151.919 57.3084 139.134 1.96253 80.359 0.555364Z" fill="black" fill-opacity="0.11" stroke="white"/>
<path d="M3.35986 83.6963H154.555" stroke="black" stroke-width="2"/>
<path d="M155.675 83.6963L157.915 83.6963" stroke="black" stroke-width="2"/>
<path d="M0 83.6963L2.23992 83.6963" stroke="black" stroke-width="2"/>
<g style="mix-blend-mode:multiply" opacity="0.3">
<path d="M105.276 78.0388C112.699 78.0388 118.716 77.7855 118.716 77.473C118.716 77.1605 112.699 76.9072 105.276 76.9072C97.854 76.9072 91.8369 77.1605 91.8369 77.473C91.8369 77.7855 97.854 78.0388 105.276 78.0388Z" fill="black"/>
</g>
<path d="M131.316 64.4603C130.928 64.4604 130.549 64.3442 130.227 64.1266C129.904 63.9091 129.653 63.5998 129.505 63.238C129.356 62.8762 129.318 62.478 129.393 62.0939C129.469 61.7098 129.656 61.3569 129.93 61.08C130.204 60.8031 130.553 60.6145 130.933 60.5381C131.313 60.4616 131.707 60.5009 132.066 60.6507C132.424 60.8006 132.73 61.0544 132.945 61.38C133.16 61.7057 133.275 62.0885 133.275 62.4801C133.275 63.0051 133.068 63.5085 132.701 63.8797C132.333 64.2509 131.835 64.4597 131.316 64.4603ZM131.316 60.7514C130.977 60.7514 130.646 60.8527 130.365 61.0427C130.083 61.2327 129.864 61.5027 129.735 61.8186C129.605 62.1345 129.571 62.4821 129.637 62.8174C129.703 63.1528 129.866 63.4608 130.106 63.7026C130.345 63.9444 130.65 64.1091 130.982 64.1758C131.314 64.2425 131.658 64.2082 131.97 64.0774C132.283 63.9465 132.55 63.7249 132.738 63.4406C132.926 63.1563 133.027 62.8221 133.027 62.4801C133.026 62.0218 132.846 61.5824 132.525 61.2583C132.204 60.9342 131.769 60.7519 131.316 60.7514Z" fill="black"/>
<path d="M40.8785 69.5522C40.3248 69.5522 39.7834 69.3863 39.323 69.0754C38.8625 68.7646 38.5037 68.3228 38.2918 67.8059C38.0798 67.289 38.0244 66.7202 38.1324 66.1715C38.2404 65.6228 38.5071 65.1187 38.8987 64.7231C39.2902 64.3275 39.7891 64.0581 40.3322 63.9489C40.8754 63.8397 41.4383 63.8957 41.9499 64.1098C42.4615 64.3239 42.8988 64.6865 43.2065 65.1517C43.5142 65.6169 43.6784 66.1638 43.6784 66.7233C43.6776 67.4733 43.3823 68.1923 42.8574 68.7226C42.3325 69.253 41.6208 69.5513 40.8785 69.5522ZM40.8785 64.2536C40.395 64.2536 39.9224 64.3985 39.5204 64.6699C39.1184 64.9412 38.8051 65.327 38.6201 65.7782C38.4351 66.2295 38.3867 66.7261 38.481 67.2052C38.5753 67.6843 38.8082 68.1243 39.15 68.4697C39.4919 68.8151 39.9275 69.0504 40.4017 69.1456C40.8759 69.2409 41.3674 69.192 41.814 69.0051C42.2607 68.8181 42.6425 68.5016 42.9111 68.0954C43.1797 67.6892 43.323 67.2117 43.323 66.7233C43.3222 66.0685 43.0645 65.4408 42.6062 64.9778C42.1479 64.5148 41.5266 64.2544 40.8785 64.2536Z" fill="black"/>
<ellipse cx="83.7573" cy="48.4872" rx="14.5595" ry="14.7099" fill="url(#paint0_linear_222_4614)"/>
<path d="M76.1575 3.92383H78.3974V6.75265L76.1575 3.92383Z" fill="black" stroke="black"/>
<path d="M81.7603 39.8939C81.3726 39.8939 80.9937 39.7778 80.6714 39.5602C80.3491 39.3427 80.0978 39.0334 79.9495 38.6716C79.8011 38.3097 79.7623 37.9116 79.8379 37.5275C79.9136 37.1434 80.1002 36.7905 80.3743 36.5136C80.6484 36.2367 80.9976 36.0481 81.3778 35.9716C81.758 35.8952 82.1521 35.9344 82.5102 36.0843C82.8684 36.2342 83.1745 36.488 83.3898 36.8136C83.6052 37.1393 83.7202 37.5221 83.7202 37.9137C83.7196 38.4387 83.5129 38.942 83.1455 39.3133C82.7781 39.6845 82.2799 39.8933 81.7603 39.8939ZM81.7603 36.185C81.4218 36.185 81.091 36.2863 80.8096 36.4763C80.5282 36.6663 80.3089 36.9363 80.1793 37.2522C80.0498 37.5681 80.0159 37.9157 80.082 38.251C80.148 38.5864 80.311 38.8944 80.5503 39.1362C80.7896 39.378 81.0945 39.5427 81.4264 39.6094C81.7583 39.6761 82.1024 39.6418 82.4151 39.511C82.7277 39.3801 82.995 39.1585 83.183 38.8742C83.371 38.5899 83.4714 38.2557 83.4714 37.9137C83.4709 37.4554 83.2904 37.016 82.9696 36.6919C82.6489 36.3678 82.2139 36.1855 81.7603 36.185Z" fill="black"/>
<path d="M91.6228 18H53V66.6991H91.6228V18Z" fill="black" fill-opacity="0.15"/>
<path d="M53.5 66.1991V18.5H91.1228V66.1991H53.5Z" stroke="black" stroke-opacity="0.06"/>
<path d="M63.3601 25.7129H59.0779C58.6049 25.7129 58.2214 26.1003 58.2214 26.5782V30.9046C58.2214 31.3825 58.6049 31.7699 59.0779 31.7699H63.3601C63.8331 31.7699 64.2165 31.3825 64.2165 30.9046V26.5782C64.2165 26.1003 63.8331 25.7129 63.3601 25.7129Z" fill="black" fill-opacity="0.15"/>
<path d="M59.0779 26.2129H63.3601C63.5521 26.2129 63.7165 26.3716 63.7165 26.5782V30.9046C63.7165 31.1112 63.5521 31.2699 63.3601 31.2699H59.0779C58.8858 31.2699 58.7214 31.1112 58.7214 30.9046V26.5782C58.7214 26.3716 58.8858 26.2129 59.0779 26.2129Z" stroke="black" stroke-opacity="0.06"/>
<path d="M78.0269 26.4277H68.7574C68.2455 26.4277 67.8304 26.847 67.8304 27.3643C67.8304 27.8815 68.2455 28.3008 68.7574 28.3008H78.0269C78.5388 28.3008 78.9538 27.8815 78.9538 27.3643C78.9538 26.847 78.5388 26.4277 78.0269 26.4277Z" fill="black" fill-opacity="0.15"/>
<path d="M68.7574 26.9277H78.0269C78.2578 26.9277 78.4538 27.1183 78.4538 27.3643C78.4538 27.6102 78.2578 27.8008 78.0269 27.8008H68.7574C68.5264 27.8008 68.3304 27.6102 68.3304 27.3643C68.3304 27.1183 68.5264 26.9277 68.7574 26.9277Z" stroke="black" stroke-opacity="0.06"/>
<path d="M86.9874 29.5498H68.7574C68.2455 29.5498 67.8304 29.9691 67.8304 30.4863C67.8304 31.0036 68.2455 31.4228 68.7574 31.4228H86.9874C87.4993 31.4228 87.9143 31.0036 87.9143 30.4863C87.9143 29.9691 87.4993 29.5498 86.9874 29.5498Z" fill="black" fill-opacity="0.15"/>
<path d="M68.7574 30.0498H86.9874C87.2183 30.0498 87.4143 30.2404 87.4143 30.4863C87.4143 30.7323 87.2183 30.9228 86.9874 30.9228H68.7574C68.5264 30.9228 68.3304 30.7323 68.3304 30.4863C68.3304 30.2404 68.5264 30.0498 68.7574 30.0498Z" stroke="black" stroke-opacity="0.06"/>
<path d="M63.307 37.1367H58.7591C58.2567 37.1367 57.8495 37.5482 57.8495 38.0557V41.9613C57.8495 42.4689 58.2567 42.8803 58.7591 42.8803H63.307C63.8093 42.8803 64.2166 42.4689 64.2166 41.9613V38.0557C64.2166 37.5482 63.8093 37.1367 63.307 37.1367Z" fill="black" fill-opacity="0.15"/>
<path d="M58.7591 37.6367H63.307C63.5284 37.6367 63.7166 37.8194 63.7166 38.0557V41.9613C63.7166 42.1976 63.5284 42.3803 63.307 42.3803H58.7591C58.5377 42.3803 58.3495 42.1976 58.3495 41.9613V38.0557C58.3495 37.8194 58.5377 37.6367 58.7591 37.6367Z" stroke="black" stroke-opacity="0.06"/>
<path d="M63.3069 37.252H58.759C58.3195 37.252 57.9631 37.612 57.9631 38.0561V41.9617C57.9631 42.4058 58.3195 42.7658 58.759 42.7658H63.3069C63.7465 42.7658 64.1028 42.4058 64.1028 41.9617V38.0561C64.1028 37.612 63.7465 37.252 63.3069 37.252Z" fill="black" fill-opacity="0.15" stroke="black" stroke-opacity="0.06"/>
<path d="M78.1812 37.9795H68.6028C68.1762 37.9795 67.8303 38.3289 67.8303 38.7599C67.8303 39.1909 68.1762 39.5404 68.6028 39.5404H78.1812C78.6079 39.5404 78.9537 39.1909 78.9537 38.7599C78.9537 38.3289 78.6079 37.9795 78.1812 37.9795Z" fill="black" fill-opacity="0.15"/>
<path d="M68.6028 38.4795H78.1812C78.3269 38.4795 78.4537 38.6002 78.4537 38.7599C78.4537 38.9197 78.3269 39.0404 78.1812 39.0404H68.6028C68.4571 39.0404 68.3303 38.9197 68.3303 38.7599C68.3303 38.6002 68.4571 38.4795 68.6028 38.4795Z" stroke="black" stroke-opacity="0.06"/>
<path d="M86.9872 40.7881H68.7573C68.2453 40.7881 67.8303 41.2074 67.8303 41.7246C67.8303 42.2418 68.2453 42.6611 68.7573 42.6611H86.9872C87.4992 42.6611 87.9142 42.2418 87.9142 41.7246C87.9142 41.2074 87.4992 40.7881 86.9872 40.7881Z" fill="black" fill-opacity="0.15"/>
<path d="M68.7573 41.2881H86.9872C87.2182 41.2881 87.4142 41.4787 87.4142 41.7246C87.4142 41.9705 87.2182 42.1611 86.9872 42.1611H68.7573C68.5263 42.1611 68.3303 41.9705 68.3303 41.7246C68.3303 41.4787 68.5263 41.2881 68.7573 41.2881Z" stroke="black" stroke-opacity="0.06"/>
<path d="M67.2127 47.3447H57.6342C57.1223 47.3447 56.7073 47.764 56.7073 48.2812C56.7073 48.7985 57.1223 49.2178 57.6342 49.2178H67.2127C67.7246 49.2178 68.1396 48.7985 68.1396 48.2812C68.1396 47.764 67.7246 47.3447 67.2127 47.3447Z" fill="black" fill-opacity="0.15"/>
<path d="M57.6342 47.8447H67.2127C67.4437 47.8447 67.6396 48.0353 67.6396 48.2812C67.6396 48.5272 67.4437 48.7178 67.2127 48.7178H57.6342C57.4033 48.7178 57.2073 48.5272 57.2073 48.2812C57.2073 48.0353 57.4033 47.8447 57.6342 47.8447Z" stroke="black" stroke-opacity="0.06"/>
<path d="M86.9876 50.4658H57.6342C57.1223 50.4658 56.7073 50.8851 56.7073 51.4023C56.7073 51.9196 57.1223 52.3389 57.6342 52.3389H86.9876C87.4995 52.3389 87.9145 51.9196 87.9145 51.4023C87.9145 50.8851 87.4995 50.4658 86.9876 50.4658Z" fill="black" fill-opacity="0.15"/>
<path d="M57.6342 50.9658H86.9876C87.2185 50.9658 87.4145 51.1564 87.4145 51.4023C87.4145 51.6483 87.2185 51.8389 86.9876 51.8389H57.6342C57.4033 51.8389 57.2073 51.6483 57.2073 51.4023C57.2073 51.1564 57.4033 50.9658 57.6342 50.9658Z" stroke="black" stroke-opacity="0.06"/>
<path d="M86.8331 53.9004H57.7887C57.1915 53.9004 56.7073 54.3896 56.7073 54.993C56.7073 55.5964 57.1915 56.0856 57.7887 56.0856H86.8331C87.4303 56.0856 87.9145 55.5964 87.9145 54.993C87.9145 54.3896 87.4303 53.9004 86.8331 53.9004Z" fill="black" fill-opacity="0.15"/>
<path d="M57.7887 54.4004H86.8331C87.1494 54.4004 87.4145 54.6609 87.4145 54.993C87.4145 55.3251 87.1494 55.5856 86.8331 55.5856H57.7887C57.4724 55.5856 57.2073 55.3251 57.2073 54.993C57.2073 54.6609 57.4724 54.4004 57.7887 54.4004Z" stroke="black" stroke-opacity="0.06"/>
<path d="M87.1421 57.6465H57.4797C57.0531 57.6465 56.7073 57.9959 56.7073 58.4269C56.7073 58.8579 57.0531 59.2074 57.4797 59.2074H87.1421C87.5687 59.2074 87.9145 58.8579 87.9145 58.4269C87.9145 57.9959 87.5687 57.6465 87.1421 57.6465Z" fill="black" fill-opacity="0.15"/>
<path d="M57.4797 58.1465H87.1421C87.2877 58.1465 87.4145 58.2672 87.4145 58.4269C87.4145 58.5867 87.2877 58.7074 87.1421 58.7074H57.4797C57.3341 58.7074 57.2073 58.5867 57.2073 58.4269C57.2073 58.2672 57.3341 58.1465 57.4797 58.1465Z" stroke="black" stroke-opacity="0.06"/>
<defs>
<linearGradient id="paint0_linear_222_4614" x1="83.7573" y1="33.7773" x2="112.018" y2="97.4906" gradientUnits="userSpaceOnUse">
<stop stop-color="white"/>
<stop offset="1"/>
</linearGradient>
</defs>
</svg>
