<svg width="24" height="24" viewBox="0 0 24 24" fill="none" xmlns="http://www.w3.org/2000/svg">
<g id="notifications_active_FILL0_wght400_GRAD0_opsz48">
<path id="Vector" d="M3.1001 9.825C3.1001 8.475 3.38343 7.19583 3.9501 5.9875C4.51676 4.77917 5.3251 3.75 6.3751 2.9L7.4001 4.025C6.51676 4.74167 5.82926 5.60417 5.3376 6.6125C4.84593 7.62083 4.6001 8.69167 4.6001 9.825H3.1001ZM19.4251 9.825C19.4251 8.69167 19.1918 7.62083 18.7251 6.6125C18.2584 5.60417 17.5834 4.74167 16.7001 4.025L17.7251 2.9C18.7584 3.76667 19.5501 4.8 20.1001 6C20.6501 7.2 20.9251 8.475 20.9251 9.825H19.4251ZM4.0001 19V17.5H6.1001V9.85C6.1001 8.45 6.5126 7.20417 7.3376 6.1125C8.1626 5.02083 9.2501 4.33333 10.6001 4.05V3.325C10.6001 2.94167 10.7376 2.625 11.0126 2.375C11.2876 2.125 11.6168 2 12.0001 2C12.3834 2 12.7126 2.125 12.9876 2.375C13.2626 2.625 13.4001 2.94167 13.4001 3.325V4.05C14.7501 4.33333 15.8418 5.02083 16.6751 6.1125C17.5084 7.20417 17.9251 8.45 17.9251 9.85V17.5H20.0001V19H4.0001ZM12.0001 22C11.4668 22 11.0001 21.8042 10.6001 21.4125C10.2001 21.0208 10.0001 20.55 10.0001 20H14.0001C14.0001 20.55 13.8043 21.0208 13.4126 21.4125C13.0209 21.8042 12.5501 22 12.0001 22ZM7.6001 17.5H16.4251V9.85C16.4251 8.61667 16.0001 7.56667 15.1501 6.7C14.3001 5.83333 13.2584 5.4 12.0251 5.4C10.7918 5.4 9.74593 5.83333 8.8876 6.7C8.02926 7.56667 7.6001 8.61667 7.6001 9.85V17.5Z" fill="#00336A"/>
</g>
</svg>
