<svg width="20" height="20" viewBox="0 0 20 20" fill="none" xmlns="http://www.w3.org/2000/svg">
<g clip-path="url(#clip0_186_3885)">
<path fill-rule="evenodd" clip-rule="evenodd" d="M9.58353 2.49967C8.32007 2.49967 7.10835 3.02646 6.21495 3.96414C5.32155 4.90182 4.81964 6.17359 4.81964 7.49967V11.6663C4.81964 12.2565 4.67051 12.8306 4.39415 13.333H14.7729C14.4965 12.8306 14.3474 12.2565 14.3474 11.6663V7.49967C14.3474 6.17359 13.8455 4.90182 12.9521 3.96414C12.0587 3.02646 10.847 2.49967 9.58353 2.49967ZM17.5233 13.333C17.1022 13.333 16.6983 13.1574 16.4005 12.8449C16.1027 12.5323 15.9354 12.1084 15.9354 11.6663V7.49967C15.9354 5.73156 15.2662 4.03587 14.075 2.78563C12.8838 1.53539 11.2681 0.833008 9.58353 0.833008C7.89891 0.833008 6.28329 1.53539 5.09209 2.78563C3.90089 4.03587 3.23168 5.73156 3.23168 7.49967V11.6663C3.23168 12.1084 3.06437 12.5323 2.76657 12.8449C2.46877 13.1574 2.06487 13.333 1.64371 13.333C1.20521 13.333 0.849731 13.7061 0.849731 14.1663C0.849731 14.6266 1.20521 14.9997 1.64371 14.9997H17.5233V13.333ZM7.81154 16.7788C8.19085 16.5479 8.6767 16.6834 8.89673 17.0815C8.96653 17.2078 9.06671 17.3126 9.18724 17.3855C9.30777 17.4584 9.44443 17.4967 9.58353 17.4967C9.72263 17.4967 9.85928 17.4584 9.97981 17.3855C10.1003 17.3126 10.2005 17.2078 10.2703 17.0815C10.4903 16.6834 10.9762 16.5479 11.3555 16.7788C11.7348 17.0098 11.8639 17.5197 11.6439 17.9178C11.4345 18.2967 11.134 18.6111 10.7724 18.8297C10.4108 19.0483 10.0008 19.1634 9.58353 19.1634C9.16624 19.1634 8.75627 19.0483 8.39467 18.8297C8.03307 18.6111 7.73253 18.2967 7.52315 17.9178C7.30312 17.5197 7.43224 17.0098 7.81154 16.7788Z" fill="black"/>
</g>
<defs>
<clipPath id="clip0_186_3885">
<rect width="19.0556" height="20" fill="white" transform="translate(0.0557861)"/>
</clipPath>
</defs>
</svg>
