<svg xmlns="http://www.w3.org/2000/svg" width="51" height="63" viewBox="0 0 51 63" fill="none">
  <g filter="url(#filter0_d_4155_17412)">
    <path d="M49.875 26.084C49.875 45.0423 25.5 61.2923 25.5 61.2923C25.5 61.2923 1.125 45.0423 1.125 26.084C1.125 19.6193 3.69307 13.4195 8.26427 8.84826C12.8355 4.27706 19.0353 1.70898 25.5 1.70898C31.9647 1.70898 38.1645 4.27706 42.7357 8.84826C47.3069 13.4195 49.875 19.6193 49.875 26.084Z" fill="#8C8C8C"/>
    <path d="M49.875 26.084C49.875 45.0423 25.5 61.2923 25.5 61.2923C25.5 61.2923 1.125 45.0423 1.125 26.084C1.125 19.6193 3.69307 13.4195 8.26427 8.84826C12.8355 4.27706 19.0353 1.70898 25.5 1.70898C31.9647 1.70898 38.1645 4.27706 42.7357 8.84826C47.3069 13.4195 49.875 19.6193 49.875 26.084Z" stroke="white" stroke-width="2" stroke-linecap="round" stroke-linejoin="round"/>
  </g>
  <defs>
    <filter id="filter0_d_4155_17412" x="0.125" y="0.708984" width="50.75" height="61.584" filterUnits="userSpaceOnUse" color-interpolation-filters="sRGB">
      <feFlood flood-opacity="0" result="BackgroundImageFix"/>
      <feColorMatrix in="SourceAlpha" type="matrix" values="0 0 0 0 0 0 0 0 0 0 0 0 0 0 0 0 0 0 127 0" result="hardAlpha"/>
      <feMorphology radius="26" operator="erode" in="SourceAlpha" result="effect1_dropShadow_4155_17412"/>
      <feOffset dy="5"/>
      <feGaussianBlur stdDeviation="4"/>
      <feComposite in2="hardAlpha" operator="out"/>
      <feColorMatrix type="matrix" values="0 0 0 0 0 0 0 0 0 0 0 0 0 0 0 0 0 0 0.16 0"/>
      <feBlend mode="normal" in2="BackgroundImageFix" result="effect1_dropShadow_4155_17412"/>
      <feBlend mode="normal" in="SourceGraphic" in2="effect1_dropShadow_4155_17412" result="shape"/>
    </filter>
  </defs>
</svg>