<svg width="18" height="17" viewBox="0 0 18 17" fill="none" xmlns="http://www.w3.org/2000/svg">
<rect x="1.41602" y="1.44141" width="15.1667" height="14.6905" rx="1.25" stroke="#191919" stroke-width="1.5"/>
<path d="M6.22364 13V4.805H9.28164C9.83897 4.805 10.3303 4.90767 10.7556 5.113C11.1883 5.311 11.5256 5.60433 11.7676 5.993C12.0096 6.37433 12.1306 6.84 12.1306 7.39C12.1306 7.93267 12.006 8.39833 11.7566 8.787C11.5146 9.16833 11.181 9.46167 10.7556 9.667C10.3303 9.87233 9.83897 9.975 9.28164 9.975H7.71964V13H6.22364ZM7.71964 8.655H9.30364C9.57497 8.655 9.80964 8.60367 10.0076 8.501C10.2056 8.391 10.3596 8.24067 10.4696 8.05C10.5796 7.85933 10.6346 7.63933 10.6346 7.39C10.6346 7.13333 10.5796 6.91333 10.4696 6.73C10.3596 6.53933 10.2056 6.39267 10.0076 6.29C9.80964 6.18 9.57497 6.125 9.30364 6.125H7.71964V8.655Z" fill="#191919"/>
</svg>
