<svg xmlns="http://www.w3.org/2000/svg" width="33" height="32" viewBox="0 0 33 32" fill="none">
  <path d="M11.5955 22.482H13.1083V21.0205H14.7981C15.1109 21.0205 15.3643 20.9042 15.5583 20.6717C15.7523 20.4393 15.8493 20.1749 15.8493 19.8786V16.3529C15.8493 16.0287 15.7523 15.7538 15.5583 15.5282C15.3643 15.3026 15.1109 15.1897 14.7981 15.1897H10.2724V12.4923H15.8493V10.9795H13.1083V9.51793H11.5955V10.9795H9.91858C9.59723 10.9795 9.32373 11.0957 9.09808 11.3282C8.87244 11.5607 8.75962 11.8374 8.75962 12.1585V15.6517C8.75962 15.9728 8.87244 16.2282 9.09808 16.4179C9.32373 16.6076 9.59723 16.7025 9.91858 16.7025H14.3366V19.5077H8.75962V21.0205H11.5955V22.482ZM22.0775 21.5076L23.9493 19.6359H20.2058L22.0775 21.5076ZM20.2058 12.6974H23.9493L22.0775 10.8256L20.2058 12.6974ZM5.75708 25.9999C5.23422 25.9999 4.78298 25.8101 4.40338 25.4305C4.02378 25.0509 3.83398 24.5997 3.83398 24.0768V7.9231C3.83398 7.40023 4.02378 6.949 4.40338 6.5694C4.78298 6.1898 5.23422 6 5.75708 6H27.2442C27.767 6 28.2183 6.1898 28.5979 6.5694C28.9775 6.949 29.1673 7.40023 29.1673 7.9231V24.0768C29.1673 24.5997 28.9775 25.0509 28.5979 25.4305C28.2183 25.8101 27.767 25.9999 27.2442 25.9999H5.75708ZM5.75708 24.4871H27.2442C27.3467 24.4871 27.4408 24.4444 27.5263 24.3589C27.6117 24.2734 27.6545 24.1794 27.6545 24.0768V7.9231C27.6545 7.82052 27.6117 7.72649 27.5263 7.641C27.4408 7.55553 27.3467 7.5128 27.2442 7.5128H5.75708C5.65451 7.5128 5.56047 7.55553 5.47498 7.641C5.38952 7.72649 5.34678 7.82052 5.34678 7.9231V24.0768C5.34678 24.1794 5.38952 24.2734 5.47498 24.3589C5.56047 24.4444 5.65451 24.4871 5.75708 24.4871Z" fill="#00336A"/>
</svg>