<svg xmlns="http://www.w3.org/2000/svg" width="24" height="24" viewBox="0 0 24 24" fill="none">
  <path d="M7.9375 13.875H7.625V12H7.9375C8.45703 12 8.875 12.418 8.875 12.9375C8.875 13.457 8.45703 13.875 7.9375 13.875ZM12 12H12.3125C12.6562 12 12.9375 12.2812 12.9375 12.625V15.125C12.9375 15.4688 12.6562 15.75 12.3125 15.75H12V12ZM13.25 2V7C13.25 7.69141 13.8086 8.25 14.5 8.25H19.5V19.5C19.5 20.8789 18.3789 22 17 22H7C5.61914 22 4.5 20.8789 4.5 19.5V4.5C4.5 3.11914 5.61914 2 7 2H13.25ZM7 10.75C6.65469 10.75 6.375 11.0312 6.375 11.375V16.375C6.375 16.7188 6.65469 17 7 17C7.34531 17 7.625 16.7188 7.625 16.375V15.125H7.9375C9.14453 15.125 10.125 14.1445 10.125 12.9375C10.125 11.7305 9.14453 10.75 7.9375 10.75H7ZM10.75 16.375C10.75 16.7188 11.0312 17 11.375 17H12.3125C13.3477 17 14.1875 16.1602 14.1875 15.125V12.625C14.1875 11.5898 13.3477 10.75 12.3125 10.75H11.375C11.0312 10.75 10.75 11.0312 10.75 11.375V16.375ZM15.75 10.75C15.4062 10.75 15.125 11.0312 15.125 11.375V16.375C15.125 16.7188 15.4062 17 15.75 17C16.0938 17 16.375 16.7188 16.375 16.375V14.5H17.625C17.9688 14.5 18.25 14.2188 18.25 13.875C18.25 13.5312 17.9688 13.25 17.625 13.25H16.375V12H17.625C17.9688 12 18.25 11.7188 18.25 11.375C18.25 11.0312 17.9688 10.75 17.625 10.75H15.75ZM14.5 2L19.5 7H14.5V2Z" fill="#00336A"/>
</svg>