<svg width="21" height="20" viewBox="0 0 21 20" fill="none" xmlns="http://www.w3.org/2000/svg">
<path fill-rule="evenodd" clip-rule="evenodd" d="M3.5 7.5C3.5 5.09517 5.47017 3.125 7.875 3.125H12.875C15.2798 3.125 17.25 5.09517 17.25 7.5V11.875H12.0417C11.6965 11.875 11.4167 12.1548 11.4167 12.5C11.4167 13.0715 10.9465 13.5417 10.375 13.5417C9.8035 13.5417 9.33333 13.0715 9.33333 12.5C9.33333 12.1548 9.0535 11.875 8.70833 11.875H3.5V7.5ZM2.25 12.5C2.25 15.5952 4.77982 18.125 7.875 18.125H12.875C15.9702 18.125 18.5 15.5952 18.5 12.5V7.5C18.5 4.40482 15.9702 1.875 12.875 1.875H7.875C4.77982 1.875 2.25 4.40482 2.25 7.5V12.5ZM3.54491 13.125H8.17026C8.44356 14.0849 9.32967 14.7917 10.375 14.7917C11.4203 14.7917 12.3064 14.0849 12.5798 13.125H17.2051C16.8992 15.237 15.0677 16.875 12.875 16.875H7.875C5.68224 16.875 3.85085 15.237 3.54491 13.125Z" fill="#AFB1B6"/>
</svg>
