<svg width="20" height="21" viewBox="0 0 20 21" fill="none" xmlns="http://www.w3.org/2000/svg">
<path fill-rule="evenodd" clip-rule="evenodd" d="M5.61358 6.41536C5.61358 8.7487 7.51914 10.7487 9.74229 10.7487C11.9654 10.7487 13.871 8.7487 13.871 6.41536C13.871 4.08203 11.9654 2.08203 9.74229 2.08203C7.51914 2.08203 5.61358 4.08203 5.61358 6.41536ZM9.74229 9.08203C8.39615 9.08203 7.20155 7.82822 7.20155 6.41536C7.20155 5.00251 8.39615 3.7487 9.74229 3.7487C11.0884 3.7487 12.283 5.00251 12.283 6.41536C12.283 7.82822 11.0884 9.08203 9.74229 9.08203Z" fill="black"/>
<path fill-rule="evenodd" clip-rule="evenodd" d="M16.5706 14.7886C16.7293 14.9737 16.8881 15.1589 17.0469 15.3256C17.5233 15.9922 17.6821 16.8256 17.3645 17.6589C17.0469 18.3256 16.2529 18.8256 15.459 18.8256H3.70803C2.59645 18.8256 1.64368 17.8256 1.64368 16.6589C1.64368 16.1589 1.80247 15.6589 2.12007 15.3256C5.45479 10.9922 11.489 10.3256 15.6178 13.8256C15.9353 14.0478 16.253 14.4182 16.5706 14.7886ZM14.62 15.1221L14.6765 15.17L14.7369 15.2123C14.8041 15.2593 14.9324 15.3785 15.1655 15.6435C15.2171 15.7022 15.28 15.7755 15.3497 15.8567C15.4918 16.0222 15.6623 16.2209 15.8235 16.3965C15.9404 16.5881 15.9654 16.7651 15.9203 16.9448C15.8969 16.9718 15.8545 17.0129 15.7852 17.0557C15.6678 17.1282 15.5462 17.1589 15.459 17.1589H3.70803C3.61168 17.1589 3.48942 17.1141 3.38187 17.0012C3.27432 16.8883 3.23164 16.76 3.23164 16.6589C3.23164 16.5899 3.24317 16.5338 3.25513 16.4993C3.25706 16.4937 3.25879 16.4893 3.2602 16.486L3.30248 16.4416L3.35541 16.3728C6.13779 12.7572 11.1719 12.1992 14.62 15.1221Z" fill="black"/>
</svg>
