<svg width="24" height="24" viewBox="0 0 24 24" fill="none" xmlns="http://www.w3.org/2000/svg">
<g id="phonelink_lock_FILL0_wght400_GRAD0_opsz48 1">
<path id="Vector" d="M15.85 16C15.6167 16 15.4167 15.9167 15.25 15.75C15.0833 15.5833 15 15.3833 15 15.15V11.85C15 11.6167 15.0833 11.4167 15.25 11.25C15.4167 11.0833 15.6167 11 15.85 11H16V10C16 9.45 16.1958 8.97917 16.5875 8.5875C16.9792 8.19583 17.45 8 18 8C18.55 8 19.0208 8.19583 19.4125 8.5875C19.8042 8.97917 20 9.45 20 10V11H20.15C20.3833 11 20.5833 11.0833 20.75 11.25C20.9167 11.4167 21 11.6167 21 11.85V15.15C21 15.3833 20.9167 15.5833 20.75 15.75C20.5833 15.9167 20.3833 16 20.15 16H15.85ZM17 11H19V10C19 9.71667 18.9042 9.47917 18.7125 9.2875C18.5208 9.09583 18.2833 9 18 9C17.7167 9 17.4792 9.09104 17.2875 9.27312C17.0958 9.45521 17 9.68083 17 9.95V11ZM6.5 23C6.0875 23 5.73438 22.8531 5.44063 22.5594C5.14688 22.2656 5 21.9125 5 21.5V2.5C5 2.0875 5.14688 1.73438 5.44063 1.44063C5.73438 1.14688 6.0875 1 6.5 1H17.5C17.9125 1 18.2656 1.14688 18.5594 1.44063C18.8531 1.73438 19 2.0875 19 2.5V6.15H17.5V4.75H6.5V19.25H17.5V17.85H19V21.5C19 21.9125 18.8531 22.2656 18.5594 22.5594C18.2656 22.8531 17.9125 23 17.5 23H6.5ZM6.5 20.75V21.5H17.5V20.75H6.5ZM6.5 3.25H17.5V2.5H6.5V3.25Z" fill="#00336A"/>
</g>
</svg>
