<svg width="22" height="23" viewBox="0 0 22 23" fill="none" xmlns="http://www.w3.org/2000/svg">
<path fill-rule="evenodd" clip-rule="evenodd" d="M11 22.177C4.92487 22.177 0 17.2143 0 11.0924C0 4.97055 4.92487 0.0078125 11 0.0078125C17.0751 0.0078125 22 4.97055 22 11.0924C22 17.2143 17.0751 22.177 11 22.177ZM11 20.1616C15.9706 20.1616 20 16.1012 20 11.0924C20 6.08362 15.9706 2.02319 11 2.02319C6.02944 2.02319 2 6.08362 2 11.0924C2 16.1012 6.02944 20.1616 11 20.1616ZM16 10.0847H12V6.05396H10V10.0847H6V12.1001H10V16.1309H12V12.1001H16V10.0847Z" fill="#111F48"/>
</svg>
