<svg width="20" height="23" viewBox="0 0 20 23" fill="none" xmlns="http://www.w3.org/2000/svg">
<path fill-rule="evenodd" clip-rule="evenodd" d="M3.54175 3.83366C3.33455 3.83366 3.13583 3.93463 2.98932 4.11435C2.84281 4.29407 2.7605 4.53783 2.7605 4.79199V10.542C2.7605 12.8295 3.50129 15.0233 4.8199 16.6408C5.47282 17.4417 6.24793 18.077 7.101 18.5105C7.95407 18.9439 8.86839 19.167 9.79175 19.167C11.6566 19.167 13.445 18.2583 14.7636 16.6408C16.0822 15.0233 16.823 12.8295 16.823 10.542V4.79199C16.823 4.53783 16.7407 4.29407 16.5942 4.11435C16.4477 3.93463 16.2489 3.83366 16.0417 3.83366H3.54175ZM3.54175 1.91699H16.0417C16.6634 1.91699 17.2595 2.21989 17.699 2.75906C18.1386 3.29823 18.3855 4.02949 18.3855 4.79199V10.542C18.3855 13.3378 17.4801 16.0191 15.8684 17.9961C14.2568 19.973 12.071 21.0837 9.79175 21.0837C8.6632 21.0837 7.5457 20.811 6.50306 20.2812C5.46042 19.7515 4.51305 18.975 3.71505 17.9961C2.10341 16.0191 1.198 13.3378 1.198 10.542V4.79199C1.198 4.0295 1.44493 3.29823 1.88447 2.75906C2.324 2.21989 2.92015 1.91699 3.54175 1.91699Z" fill="black"/>
<path fill-rule="evenodd" clip-rule="evenodd" d="M6.11432 8.90569C6.41942 8.53144 6.91408 8.53144 7.21918 8.90569L9.79175 12.0614L12.3643 8.90569C12.6694 8.53144 13.1641 8.53144 13.4692 8.90569C13.7743 9.27994 13.7743 9.88672 13.4692 10.261L10.3442 14.0943C10.0391 14.4686 9.54442 14.4686 9.23932 14.0943L6.11432 10.261C5.80922 9.88672 5.80922 9.27994 6.11432 8.90569Z" fill="black"/>
</svg>
