<svg width="24" height="24" viewBox="0 0 24 24" fill="none" xmlns="http://www.w3.org/2000/svg">
<g id="local_police_FILL0_wght400_GRAD0_opsz48">
<path id="Vector" d="M9.35 15.1746L12 13.2246L14.575 15.1746L13.5 12.0246L16.15 10.1246H12.95L12 6.99961L11.05 10.1246H7.85L10.45 12.0246L9.35 15.1746ZM12 21.9746C9.66667 21.3913 7.75 20.0371 6.25 17.9121C4.75 15.7871 4 13.4579 4 10.9246V4.97461L12 1.97461L20 4.97461V10.9246C20 13.4579 19.25 15.7871 17.75 17.9121C16.25 20.0371 14.3333 21.3913 12 21.9746ZM12 20.4246C13.9167 19.7913 15.4792 18.5954 16.6875 16.8371C17.8958 15.0788 18.5 13.1079 18.5 10.9246V6.02461L12 3.57461L5.5 6.02461V10.9246C5.5 13.1079 6.10417 15.0788 7.3125 16.8371C8.52083 18.5954 10.0833 19.7913 12 20.4246Z" fill="#00336A"/>
</g>
</svg>
