<svg width="343" height="144" viewBox="0 0 343 144" fill="none" xmlns="http://www.w3.org/2000/svg">
<path d="M308.963 -78.0372C320.997 -62.0338 328.167 -42.147 328.167 -20.5958C328.167 32.4073 285.193 75.3817 232.147 75.3817C179.186 75.3817 136.169 32.4073 136.169 -20.5958C136.169 -73.5989 179.144 -116.573 232.147 -116.573C233.982 -116.573 235.817 -116.403 237.609 -116.275C233.726 -116.744 229.8 -117 225.745 -117C165.829 -117 117.307 -68.4352 117.307 -8.51859C117.307 51.3553 165.872 99.9202 225.745 99.9202C285.662 99.9202 334.227 51.3553 334.227 -8.51859C334.227 -34.9775 324.71 -59.2172 308.963 -78.0372Z" fill="#E6EBF0" fill-opacity="0.16"/>
<path d="M264.794 142.17C391.156 101.756 388.169 -96.3441 253.826 -113.03C376.177 -90.967 358.851 64.5003 290.228 101.756C170.737 166.623 88.2872 54.5142 -86 110.633C74.8444 79.2234 153.325 177.804 264.794 142.17Z" fill="#E6EBF0" fill-opacity="0.16"/>
<path d="M456.449 66.377C334.696 207.335 144.832 159.837 30.0347 132.481C165.231 181.43 353.388 255.771 456.449 66.377Z" fill="#E6EBF0" fill-opacity="0.16"/>
<path d="M418.17 190.051C210.553 332.417 164.464 96.2932 -83.6523 188.216C110.266 127.02 166.085 376.885 418.17 190.051Z" fill="#E6EBF0" fill-opacity="0.16"/>
</svg>
