<svg width="21" height="20" viewBox="0 0 21 20" fill="none" xmlns="http://www.w3.org/2000/svg">
<mask id="mask0_636_7715" style="mask-type:luminance" maskUnits="userSpaceOnUse" x="3" y="12" width="14" height="7">
<path fill-rule="evenodd" clip-rule="evenodd" d="M3.45825 12.0801H16.6582V18.2251H3.45825V12.0801Z" fill="white"/>
</mask>
<g mask="url(#mask0_636_7715)">
<path fill-rule="evenodd" clip-rule="evenodd" d="M10.0591 13.3301C6.50825 13.3301 4.70825 13.9401 4.70825 15.1442C4.70825 16.3592 6.50825 16.9751 10.0591 16.9751C13.6091 16.9751 15.4083 16.3651 15.4083 15.1609C15.4083 13.9459 13.6091 13.3301 10.0591 13.3301ZM10.0591 18.2251C8.42659 18.2251 3.45825 18.2251 3.45825 15.1442C3.45825 12.3976 7.22575 12.0801 10.0591 12.0801C11.6916 12.0801 16.6583 12.0801 16.6583 15.1609C16.6583 17.9076 12.8916 18.2251 10.0591 18.2251Z" fill="#AFB1B6"/>
</g>
<mask id="mask1_636_7715" style="mask-type:luminance" maskUnits="userSpaceOnUse" x="5" y="1" width="10" height="10">
<path fill-rule="evenodd" clip-rule="evenodd" d="M5.63306 1.66675H14.4831V10.5156H5.63306V1.66675Z" fill="white"/>
</mask>
<g mask="url(#mask1_636_7715)">
<path fill-rule="evenodd" clip-rule="evenodd" d="M10.0589 2.8565C8.27475 2.8565 6.82308 4.30734 6.82308 6.0915C6.81725 7.86984 8.25808 9.31984 10.0347 9.3265L10.0589 9.9215V9.3265C11.8422 9.3265 13.2931 7.87484 13.2931 6.0915C13.2931 4.30734 11.8422 2.8565 10.0589 2.8565ZM10.0589 10.5157H10.0322C7.59725 10.5082 5.62475 8.52234 5.63308 6.089C5.63308 3.6515 7.61808 1.6665 10.0589 1.6665C12.4989 1.6665 14.4831 3.6515 14.4831 6.0915C14.4831 8.5315 12.4989 10.5157 10.0589 10.5157Z" fill="#AFB1B6"/>
</g>
</svg>
