<svg width="19" height="20" viewBox="0 0 19 20" fill="none" xmlns="http://www.w3.org/2000/svg">
<path fill-rule="evenodd" clip-rule="evenodd" d="M7.64175 0.0593168C7.9428 -0.186439 8.36436 -0.186439 8.66541 0.0593168L16.1685 6.18432C16.3716 6.35009 16.4904 6.60498 16.4904 6.875V16.5C16.4904 17.1962 16.2269 17.8639 15.7578 18.3562C15.2888 18.8484 14.6527 19.125 13.9893 19.125H2.31781C1.6545 19.125 1.01835 18.8484 0.549311 18.3562C0.0802743 17.8639 -0.183228 17.1962 -0.183228 16.5V6.875C-0.183228 6.60498 -0.0644507 6.35009 0.138623 6.18432L7.64175 0.0593168ZM1.48413 7.30295V16.5C1.48413 16.7321 1.57197 16.9546 1.72831 17.1187C1.88466 17.2828 2.09671 17.375 2.31781 17.375H13.9893C14.2104 17.375 14.4225 17.2828 14.5788 17.1187C14.7352 16.9546 14.823 16.7321 14.823 16.5V7.30295L8.15358 1.8585L1.48413 7.30295Z" fill="black"/>
<path fill-rule="evenodd" clip-rule="evenodd" d="M4.81886 9.5C4.81886 9.01675 5.19211 8.625 5.65254 8.625H10.6546C11.115 8.625 11.4883 9.01675 11.4883 9.5V18.25C11.4883 18.7332 11.115 19.125 10.6546 19.125C10.1942 19.125 9.82094 18.7332 9.82094 18.25V10.375H6.48622V18.25C6.48622 18.7332 6.11297 19.125 5.65254 19.125C5.19211 19.125 4.81886 18.7332 4.81886 18.25V9.5Z" fill="black"/>
</svg>
