<svg width="20" height="20" viewBox="0 0 20 20" fill="none" xmlns="http://www.w3.org/2000/svg">
<circle cx="10" cy="10" r="10" transform="rotate(180 10 10)" fill="#FB4A46"/>
<path fill-rule="evenodd" clip-rule="evenodd" d="M9.45555 15.1595C9.75595 15.4599 10.243 15.4599 10.5434 15.1595L15.928 9.77485C16.2284 9.47444 16.2284 8.98739 15.928 8.68699C15.6276 8.38659 15.1406 8.38659 14.8402 8.68699L10.7687 12.7584L10.7687 3.8463C10.7687 3.42147 10.4243 3.07707 9.99947 3.07707C9.57464 3.07707 9.23024 3.42147 9.23024 3.8463L9.23024 12.7584L5.15879 8.68699C4.85838 8.38659 4.37133 8.38659 4.07093 8.68699C3.77053 8.9874 3.77053 9.47445 4.07093 9.77485L9.45555 15.1595Z" fill="black"/>
</svg>
