<svg width="18" height="17" viewBox="0 0 18 17" fill="none" xmlns="http://www.w3.org/2000/svg">
<g clip-path="url(#clip0_186_3864)">
<path fill-rule="evenodd" clip-rule="evenodd" d="M7.96455 1.41667C7.77503 1.41667 7.59327 1.49129 7.45926 1.62413C7.32525 1.75697 7.24997 1.93714 7.24997 2.125V8.06223L9.07415 7.15811C9.17337 7.10894 9.28278 7.08333 9.39372 7.08333H15.1104C15.2999 7.08333 15.4817 7.00871 15.6157 6.87587C15.7497 6.74303 15.825 6.56286 15.825 6.375V2.125C15.825 1.93714 15.7497 1.75697 15.6157 1.62413C15.4817 1.49129 15.2999 1.41667 15.1104 1.41667H7.96455ZM6.44869 0.622398C6.85072 0.223883 7.39599 0 7.96455 0H15.1104C15.6789 0 16.2242 0.223883 16.6262 0.622398C17.0283 1.02091 17.2541 1.56141 17.2541 2.125V6.375C17.2541 6.93859 17.0283 7.47909 16.6262 7.8776C16.2242 8.27612 15.6789 8.5 15.1104 8.5H9.56241L6.85496 9.84189C6.63344 9.95167 6.37038 9.93994 6.15971 9.81088C5.94903 9.68182 5.8208 9.45383 5.8208 9.20833V2.125C5.8208 1.56141 6.04666 1.02091 6.44869 0.622398Z" fill="#111111"/>
<path fill-rule="evenodd" clip-rule="evenodd" d="M1.44662 2.03939C1.84865 1.64088 2.39392 1.41699 2.96248 1.41699H4.03435C4.429 1.41699 4.74893 1.73412 4.74893 2.12533C4.74893 2.51653 4.429 2.83366 4.03435 2.83366H2.96248C2.77296 2.83366 2.5912 2.90829 2.45719 3.04112C2.32318 3.17396 2.24789 3.35413 2.24789 3.54199V14.8753C2.24789 15.0632 2.32318 15.2434 2.45719 15.3762C2.5912 15.509 2.77296 15.5837 2.96248 15.5837H10.8229C11.0124 15.5837 11.1942 15.509 11.3282 15.3762C11.4622 15.2434 11.5375 15.0632 11.5375 14.8753V10.6253C11.5375 10.2341 11.8574 9.91699 12.2521 9.91699C12.6467 9.91699 12.9666 10.2341 12.9666 10.6253V14.8753C12.9666 15.4389 12.7408 15.9794 12.3388 16.3779C11.9367 16.7764 11.3915 17.0003 10.8229 17.0003H2.96248C2.39392 17.0003 1.84865 16.7764 1.44662 16.3779C1.04458 15.9794 0.818726 15.4389 0.818726 14.8753V3.54199C0.818726 2.97841 1.04458 2.43791 1.44662 2.03939Z" fill="#111111"/>
<ellipse cx="7.24998" cy="13.4583" rx="0.714584" ry="0.708333" fill="#111111"/>
</g>
<defs>
<clipPath id="clip0_186_3864">
<rect width="17.15" height="17" fill="white" transform="translate(0.104126)"/>
</clipPath>
</defs>
</svg>
