<svg width="20" height="20" viewBox="0 0 20 20" fill="none" xmlns="http://www.w3.org/2000/svg">
<g id="success-tick">
<path id="Vector" d="M1.6665 9.99984C1.6665 5.39697 5.39697 1.6665 9.99984 1.6665C14.6027 1.6665 18.3332 5.39697 18.3332 9.99984C18.3332 14.6027 14.6027 18.3332 9.99984 18.3332C5.39697 18.3332 1.6665 14.6027 1.6665 9.99984ZM13.7694 8.56104C14.1242 8.20622 14.1242 7.62679 13.7694 7.27197C13.4146 6.91716 12.8351 6.91716 12.4803 7.27197L8.95817 10.7941L7.51937 9.35531C7.16455 9.00049 6.58512 9.00049 6.23031 9.35531C5.87549 9.71012 5.87549 10.2896 6.23031 10.6444L8.31364 12.7277C8.66846 13.0825 9.24788 13.0825 9.6027 12.7277L13.7694 8.56104Z" fill="#7AC05F"/>
</g>
</svg>
