<svg width="22" height="22" viewBox="0 0 22 22" fill="none" xmlns="http://www.w3.org/2000/svg">
<g clip-path="url(#clip0_1525_13108)">
<path fill-rule="evenodd" clip-rule="evenodd" d="M6.92502 12.6108C7.90776 11.5793 9.24065 10.9998 10.6305 10.9998C12.0203 10.9998 13.3532 11.5793 14.3359 12.6108C15.3186 13.6422 15.8707 15.0411 15.8707 16.4998C15.8707 17.0061 15.4797 17.4165 14.9974 17.4165C14.515 17.4165 14.124 17.0061 14.124 16.4998C14.124 15.5274 13.7559 14.5947 13.1007 13.9071C12.4456 13.2195 11.557 12.8332 10.6305 12.8332C9.70392 12.8332 8.81533 13.2195 8.16017 13.9071C7.50501 14.5947 7.13694 15.5274 7.13694 16.4998C7.13694 17.0061 6.74591 17.4165 6.26356 17.4165C5.78121 17.4165 5.39018 17.0061 5.39018 16.4998C5.39018 15.0411 5.94228 13.6422 6.92502 12.6108Z" fill="black"/>
<path fill-rule="evenodd" clip-rule="evenodd" d="M10.6305 0.916504C11.1128 0.916504 11.5038 1.32691 11.5038 1.83317V8.24984C11.5038 8.7561 11.1128 9.1665 10.6305 9.1665C10.1481 9.1665 9.75708 8.7561 9.75708 8.24984V1.83317C9.75708 1.32691 10.1481 0.916504 10.6305 0.916504Z" fill="black"/>
<path fill-rule="evenodd" clip-rule="evenodd" d="M3.21799 8.71999C3.55907 8.36201 4.11206 8.36201 4.45314 8.71999L5.69334 10.0217C6.03441 10.3796 6.03441 10.96 5.69334 11.318C5.35226 11.676 4.79927 11.676 4.45819 11.318L3.21799 10.0164C2.87692 9.65837 2.87692 9.07797 3.21799 8.71999Z" fill="black"/>
<path fill-rule="evenodd" clip-rule="evenodd" d="M0.149902 16.4998C0.149902 15.9936 0.540928 15.5832 1.02328 15.5832H2.77004C3.2524 15.5832 3.64342 15.9936 3.64342 16.4998C3.64342 17.0061 3.2524 17.4165 2.77004 17.4165H1.02328C0.540928 17.4165 0.149902 17.0061 0.149902 16.4998Z" fill="black"/>
<path fill-rule="evenodd" clip-rule="evenodd" d="M17.6175 16.4998C17.6175 15.9936 18.0085 15.5832 18.4909 15.5832H20.2376C20.72 15.5832 21.111 15.9936 21.111 16.4998C21.111 17.0061 20.72 17.4165 20.2376 17.4165H18.4909C18.0085 17.4165 17.6175 17.0061 17.6175 16.4998Z" fill="black"/>
<path fill-rule="evenodd" clip-rule="evenodd" d="M18.0429 8.71999C18.384 9.07797 18.384 9.65837 18.0429 10.0164L16.8027 11.318C16.4617 11.676 15.9087 11.676 15.5676 11.318C15.2265 10.96 15.2265 10.3796 15.5676 10.0217L16.8078 8.71999C17.1489 8.36201 17.7018 8.36201 18.0429 8.71999Z" fill="black"/>
<path fill-rule="evenodd" clip-rule="evenodd" d="M0.149902 20.1665C0.149902 19.6602 0.540928 19.2498 1.02328 19.2498H20.2376C20.72 19.2498 21.111 19.6602 21.111 20.1665C21.111 20.6728 20.72 21.0832 20.2376 21.0832H1.02328C0.540928 21.0832 0.149902 20.6728 0.149902 20.1665Z" fill="black"/>
<path fill-rule="evenodd" clip-rule="evenodd" d="M6.51937 3.93499C6.86044 3.57701 7.41344 3.57701 7.75451 3.93499L10.6305 6.95348L13.5064 3.93499C13.8475 3.57701 14.4005 3.57701 14.7416 3.93499C15.0826 4.29297 15.0826 4.87337 14.7416 5.23135L11.248 8.89802C10.907 9.256 10.354 9.256 10.0129 8.89802L6.51937 5.23135C6.17829 4.87337 6.17829 4.29297 6.51937 3.93499Z" fill="black"/>
</g>
<defs>
<clipPath id="clip0_1525_13108">
<rect width="20.9611" height="22" fill="white" transform="translate(0.149902)"/>
</clipPath>
</defs>
</svg>
