<svg width="50" height="35" viewBox="0 0 50 35" fill="none" xmlns="http://www.w3.org/2000/svg">
<path d="M36.4054 3.59094C37.5125 5.0683 38.1775 6.89792 38.1775 8.88569C38.1775 13.7707 34.2199 17.7318 29.3278 17.7318C24.4356 17.7318 20.4816 13.7707 20.4816 8.88569C20.4816 4.00072 24.4428 0.0395399 29.3278 0.0395399C29.5003 0.0395399 29.6657 0.053918 29.831 0.0647016C29.4716 0.0251617 29.1085 0 28.7347 0C23.2135 0 18.7383 4.4752 18.7383 10C18.7383 15.5248 23.2135 19.9964 28.7347 19.9964C34.2559 19.9964 38.7347 15.5176 38.7347 10C38.7347 7.55931 37.854 5.3271 36.4054 3.59094Z" fill="#86BBE7"/>
<path d="M32.3329 23.8857C43.9791 20.1618 43.7024 1.90516 31.3228 0.366699C42.5989 2.40121 41.0029 16.729 34.6765 20.1618C23.6664 26.1431 16.064 15.8088 0 20.9814C14.8275 18.0842 22.0597 27.1712 32.3329 23.8857Z" fill="#4A9FDC"/>
<path d="M49.9999 16.9014C38.7742 29.8956 21.2796 25.5175 10.6973 22.9941C23.1559 27.5052 40.4996 34.3564 49.9999 16.9014Z" fill="#86BBE7"/>
<path d="M46.4701 28.3C27.3364 41.4201 23.0841 19.6588 0.219238 28.1311C18.0913 22.4913 23.2351 45.5215 46.4701 28.3Z" fill="#86BBE7"/>
<path d="M21.6426 8.51549C21.6426 12.7966 25.1149 16.2761 29.4032 16.2761C33.6915 16.2761 37.1638 12.8002 37.1638 8.51549C37.1638 4.2308 33.6879 0.754883 29.4032 0.754883C25.1185 0.754883 21.6426 4.2272 21.6426 8.51549Z" fill="url(#paint0_radial_1525_13646)"/>
<defs>
<radialGradient id="paint0_radial_1525_13646" cx="0" cy="0" r="1" gradientUnits="userSpaceOnUse" gradientTransform="translate(30.3449 5.54999) scale(12.8073)">
<stop stop-color="white"/>
<stop offset="1" stop-color="#816D4E"/>
</radialGradient>
</defs>
</svg>
