<svg xmlns="http://www.w3.org/2000/svg" width="24" height="25" viewBox="0 0 24 25" fill="none">
  <path d="M12 17.0625C12.9319 17.0625 13.6875 17.8189 13.6875 18.75C13.6875 19.6811 12.9319 20.4375 12 20.4375C11.0681 20.4375 10.3125 19.6811 10.3125 18.75C10.3125 17.8189 11.0681 17.0625 12 17.0625ZM12 10.8125C12.9319 10.8125 13.6875 11.5689 13.6875 12.5C13.6875 13.4311 12.9319 14.1875 12 14.1875C11.0681 14.1875 10.3125 13.4311 10.3125 12.5C10.3125 11.5689 11.0681 10.8125 12 10.8125ZM12 7.9375C11.0681 7.9375 10.3125 7.18106 10.3125 6.25C10.3125 5.31794 11.0679 4.5625 12 4.5625C12.9321 4.5625 13.6875 5.31794 13.6875 6.25C13.6875 7.18106 12.9319 7.9375 12 7.9375Z" fill="#D0D0D0" stroke="#D0D0D0"/>
</svg>