<svg width="22" height="22" viewBox="0 0 22 22" fill="none" xmlns="http://www.w3.org/2000/svg">
<path fill-rule="evenodd" clip-rule="evenodd" d="M8.95913 1.46088C9.09931 1.12984 9.41208 0.916504 9.75723 0.916504C10.6838 0.916504 11.5724 1.30281 12.2275 1.99045C12.8827 2.67808 13.2508 3.61071 13.2508 4.58317V7.33317H17.3162C17.6942 7.3295 18.0685 7.4117 18.4133 7.57415C18.7599 7.73739 19.0684 7.97774 19.3177 8.27856C19.5669 8.57938 19.7508 8.93348 19.8567 9.31633C19.9626 9.69917 19.9879 10.1016 19.931 10.4957L18.7257 18.7456C18.7257 18.7459 18.7257 18.7454 18.7257 18.7456C18.6308 19.4011 18.3134 19.9992 17.8321 20.4286C17.352 20.857 16.7409 21.0893 16.1109 21.0832H3.64358C2.94867 21.0832 2.28223 20.7934 1.79086 20.2777C1.29949 19.762 1.02344 19.0625 1.02344 18.3332V11.9165C1.02344 11.1872 1.29949 10.4877 1.79086 9.97196C2.28223 9.45624 2.94867 9.1665 3.64358 9.1665H5.69613L8.95913 1.46088ZM7.13709 10.2777L10.2881 2.83655C10.5513 2.92469 10.7934 3.07795 10.9924 3.28681C11.32 3.63062 11.504 4.09694 11.504 4.58317V8.24984C11.504 8.7561 11.895 9.1665 12.3774 9.1665H17.3207L17.3306 9.16645C17.4572 9.16494 17.5826 9.19234 17.6981 9.24675C17.8136 9.30116 17.9165 9.38128 17.9995 9.48156C18.0826 9.58183 18.1439 9.69986 18.1792 9.82748C18.2145 9.95497 18.223 10.089 18.204 10.2202C18.204 10.2204 18.204 10.2201 18.204 10.2202L16.9987 18.4707C16.9671 18.6893 16.8613 18.8885 16.7008 19.0317C16.5403 19.1749 16.3359 19.2524 16.1253 19.2499L7.13709 19.2498V10.2777ZM5.39034 19.2498V10.9998H3.64358C3.41194 10.9998 3.18979 11.0964 3.026 11.2683C2.86221 11.4402 2.7702 11.6734 2.7702 11.9165V18.3332C2.7702 18.5763 2.86221 18.8094 3.026 18.9814C3.18979 19.1533 3.41194 19.2498 3.64358 19.2498H5.39034Z" fill="black"/>
</svg>
