<svg width="90" height="92" viewBox="0 0 90 92" fill="none" xmlns="http://www.w3.org/2000/svg">
<g filter="url(#filter0_d_1525_32426)">
<path d="M85.8052 42C85.8052 65.196 67.5236 84 44.9719 84C22.4202 84 4.13855 65.196 4.13855 42C4.13855 18.804 22.4202 0 44.9719 0C67.5236 0 85.8052 18.804 85.8052 42ZM40.2487 64.2387L70.5444 33.0774C71.5732 32.0192 71.5732 30.3035 70.5444 29.2454L66.8189 25.4134C65.7901 24.3551 64.1221 24.3551 63.0932 25.4134L38.3859 50.8264L26.8506 38.9616C25.8219 37.9035 24.1538 37.9035 23.1249 38.9616L19.3993 42.7936C18.3706 43.8517 18.3706 45.5675 19.3993 46.6256L36.523 64.2385C37.5519 65.2968 39.2198 65.2968 40.2487 64.2387Z" fill="#D9D9D9"/>
</g>
<defs>
<filter id="filter0_d_1525_32426" x="0.13855" y="0" width="89.6666" height="92" filterUnits="userSpaceOnUse" color-interpolation-filters="sRGB">
<feFlood flood-opacity="0" result="BackgroundImageFix"/>
<feColorMatrix in="SourceAlpha" type="matrix" values="0 0 0 0 0 0 0 0 0 0 0 0 0 0 0 0 0 0 127 0" result="hardAlpha"/>
<feOffset dy="4"/>
<feGaussianBlur stdDeviation="2"/>
<feComposite in2="hardAlpha" operator="out"/>
<feColorMatrix type="matrix" values="0 0 0 0 0 0 0 0 0 0 0 0 0 0 0 0 0 0 0.25 0"/>
<feBlend mode="normal" in2="BackgroundImageFix" result="effect1_dropShadow_1525_32426"/>
<feBlend mode="normal" in="SourceGraphic" in2="effect1_dropShadow_1525_32426" result="shape"/>
</filter>
</defs>
</svg>
