<svg width="195" height="156" viewBox="0 0 195 156" fill="none" xmlns="http://www.w3.org/2000/svg">
<g clip-path="url(#clip0_3274_16250)">
<path d="M111.059 7.72585C113.148 10.5036 114.392 13.9555 114.392 17.6962C114.392 26.8962 106.933 34.3555 97.7258 34.3555C88.5332 34.3555 81.0666 26.8962 81.0666 17.6962C81.0666 8.49622 88.5258 1.03696 97.7258 1.03696C98.0443 1.03696 98.3629 1.06659 98.674 1.08882C97.9999 1.00734 97.3184 0.962891 96.6147 0.962891C86.2147 0.962891 77.7925 9.39252 77.7925 19.7925C77.7925 30.1851 86.2221 38.6147 96.6147 38.6147C107.015 38.6147 115.444 30.1851 115.444 19.7925C115.444 15.1999 113.792 10.9925 111.059 7.72585Z" fill="#86BBE7"/>
<path d="M103.392 45.9482C125.326 38.9333 124.807 4.54815 101.489 1.65186C122.726 5.48149 119.718 32.4667 107.807 38.9333C87.0664 50.1926 72.7553 30.7333 42.5034 40.4741C70.4219 35.0222 84.0442 52.1333 103.392 45.9482Z" fill="#4A9FDC"/>
<path d="M136.659 32.7925C115.526 57.2591 82.57 49.0147 62.644 44.2666C86.1107 52.7628 118.77 65.6666 136.659 32.7925Z" fill="#86BBE7"/>
<path d="M130.014 54.2592C93.9773 78.9703 85.9773 37.9851 42.9106 53.9407C76.5699 43.3185 86.2588 86.6889 130.014 54.2592Z" fill="#86BBE7"/>
<path d="M83.2588 17.0001C83.2588 25.0667 89.7995 31.6149 97.8736 31.6149C105.948 31.6149 112.488 25.0667 112.488 17.0001C112.488 8.926 105.948 2.38526 97.8736 2.38526C89.7995 2.37785 83.2588 8.926 83.2588 17.0001Z" fill="url(#paint0_radial_3274_16250)"/>
<path d="M13.2073 108.703C13.1555 108.866 13.0814 108.955 12.9925 108.985C12.8962 109.015 12.6814 109.052 12.2296 109.052H2.55548C2.06659 109.052 1.93326 109.007 1.90363 109C1.89622 108.992 1.80734 108.948 1.66659 108.681L1.59993 108.548H0.962891L1.84437 110.777H2.46659L2.37771 110.474C2.31845 110.266 2.31104 110.177 2.31104 110.148C2.31104 110.066 2.32585 110.044 2.32585 110.044C2.35548 110.029 2.48882 109.992 2.96289 109.992H6.3703V122.452C6.3703 123.059 6.274 123.244 6.22956 123.296C6.19993 123.333 6.05919 123.459 5.46659 123.496L5.24437 123.511V124.111H9.66659V123.496H9.42956C9.06659 123.496 8.89622 123.466 8.81474 123.437C8.74067 123.407 8.66659 123.333 8.61474 123.207C8.5703 123.096 8.51104 122.844 8.51104 122.244V109.992H12.0814C12.3555 109.992 12.4666 110.022 12.5184 110.044C12.5184 110.044 12.5333 110.059 12.5333 110.118C12.5333 110.318 12.5184 110.429 12.5036 110.489L12.4296 110.777H13.037L13.9184 108.548H13.2592L13.2073 108.703Z" fill="white"/>
<path d="M24.6297 109.666H24.8668C25.2223 109.666 25.452 109.733 25.5112 109.851C25.5705 109.977 25.6445 110.274 25.6445 110.962V115.948H18.0964V110.474C18.0964 110.014 18.1927 109.874 18.2371 109.837C18.2964 109.785 18.4668 109.688 18.9334 109.659L19.1557 109.644V109.044H14.9112V109.651L15.1334 109.659C15.6668 109.681 15.7853 109.807 15.8075 109.844C15.8446 109.911 15.9334 110.148 15.9334 110.992V122.725C15.9334 123.022 15.8668 123.229 15.7408 123.348C15.6223 123.459 15.4223 123.511 15.1557 123.488L14.9038 123.474V124.111H19.1483V123.496H18.9112C18.5408 123.496 18.3927 123.429 18.3408 123.392C18.2445 123.318 18.1779 123.237 18.1483 123.14C18.126 123.074 18.089 122.859 18.089 122.207V116.829H25.6371V122.148C25.6371 123.081 25.5186 123.288 25.489 123.333C25.4001 123.437 25.1779 123.496 24.8594 123.496H24.6223V124.111H28.8149V123.496H28.5779C28.2223 123.496 28.089 123.437 28.0371 123.399C27.9483 123.333 27.8816 123.259 27.8446 123.155C27.8223 123.103 27.7779 122.903 27.7779 122.162V110.97C27.7779 110.199 27.8223 109.992 27.8446 109.94C27.8742 109.851 27.9334 109.792 28.0223 109.748C28.0964 109.711 28.2594 109.666 28.5779 109.666H28.8149V109.051H24.6223V109.666H24.6297Z" fill="white"/>
<path d="M40.5924 121.837C40.4887 122.511 40.3554 122.733 40.2887 122.807C40.1628 122.94 40.0072 123.029 39.822 123.074C39.6813 123.111 39.3035 123.148 38.3109 123.148H35.7406C35.2072 123.148 34.8146 123.111 34.5628 123.044C34.3628 122.985 34.2146 122.844 34.1183 122.614C34.0072 122.348 33.948 121.881 33.948 121.237V116.962H38.3035C38.6961 116.962 38.8294 117.014 38.8739 117.037C38.9257 117.066 38.9702 117.14 38.985 117.259L39.022 117.451H39.5998V115.607H38.9924L38.985 115.829C38.9776 115.933 38.9406 115.977 38.8961 116.007C38.8813 116.014 38.7628 116.088 38.185 116.088H33.948V110.007H38.5257C39.1924 110.007 39.3331 110.118 39.3554 110.14C39.3924 110.177 39.5331 110.37 39.7924 111.348L39.8369 111.525H40.3998V109.044H30.7628V109.681H30.9998C31.3776 109.681 31.6294 109.748 31.6739 109.866C31.7257 109.992 31.7924 110.281 31.7924 110.903V122.681C31.7924 123.088 31.7109 123.281 31.6369 123.325C31.4961 123.414 31.2739 123.466 30.9776 123.481L30.7554 123.496V124.103H41.1998V121.637H40.6146L40.5924 121.837Z" fill="white"/>
<path d="M54.9998 109.57C54.2887 109.222 53.1998 109.052 51.6738 109.052H47.2812V109.667H47.5183C47.9701 109.667 48.1183 109.77 48.1627 109.83C48.2146 109.896 48.3109 110.111 48.3109 110.711V122.785C48.3109 123.281 48.0738 123.489 47.5183 123.489H47.2812V124.104H51.5998V123.489H51.3627C50.859 123.489 50.6738 123.4 50.6146 123.341C50.6072 123.333 50.459 123.2 50.459 122.259V110.007H51.2664C52.2664 110.007 53.0072 110.141 53.4813 110.415C53.9479 110.681 54.3109 111.074 54.5701 111.593C54.8294 112.118 54.9627 112.726 54.9627 113.407C54.9627 114.274 54.7035 114.955 54.1627 115.481C53.622 116.007 52.9405 116.267 52.0738 116.267H51.8368V116.881L52.0664 116.889C53.5701 116.918 54.785 116.6 55.6738 115.948C56.585 115.281 57.0442 114.281 57.0442 112.97C57.0442 112.126 56.8738 111.422 56.5479 110.896C56.2294 110.363 55.7035 109.918 54.9998 109.57Z" fill="white"/>
<path d="M68.2593 121.837C68.1556 122.511 68.0223 122.733 67.9556 122.807C67.8297 122.94 67.6741 123.029 67.4889 123.074C67.3482 123.111 66.963 123.148 65.9778 123.148H63.4075C62.8741 123.148 62.4815 123.111 62.2297 123.044C62.0223 122.985 61.8815 122.851 61.7852 122.614C61.6741 122.348 61.6149 121.881 61.6149 121.237V116.962H65.9704C66.363 116.962 66.4964 117.014 66.5408 117.037C66.5926 117.066 66.6371 117.14 66.6519 117.259L66.6889 117.451H67.2667V115.607H66.6593L66.6519 115.829C66.6445 115.933 66.6075 115.977 66.563 116.007C66.5482 116.014 66.4297 116.088 65.8519 116.088H61.6223V110.007H66.2001C66.8667 110.007 67.0075 110.118 67.0297 110.14C67.0667 110.177 67.2075 110.37 67.4667 111.348L67.5112 111.525H68.0741V109.044H58.4297V109.681H58.6667C59.0371 109.681 59.2964 109.748 59.3408 109.866C59.3926 109.992 59.4593 110.281 59.4593 110.903V122.681C59.4593 123.088 59.3778 123.281 59.3112 123.325C59.1704 123.414 58.9482 123.466 58.6519 123.481L58.4297 123.496V124.103H68.8741V121.637H68.2889L68.2593 121.837Z" fill="white"/>
<path d="M82.5257 122.785C82.1998 122.096 82.1553 121.948 82.1479 121.948L76.9257 108.97L76.8665 108.822H76.2887L70.9405 122.311C70.6516 123.029 70.459 123.251 70.3702 123.311C70.2146 123.422 70.0146 123.481 69.7776 123.481H69.5405V124.096H72.1776V123.481H71.9405C71.6887 123.481 71.6887 123.414 71.6887 123.392C71.6887 123.37 71.7035 123.251 71.8961 122.748L74.0442 117.385H78.0072L80.0368 122.422L80.059 122.511C80.0813 122.585 80.1109 122.644 80.1479 122.688C80.3183 123.103 80.3405 123.288 80.3405 123.355C80.3405 123.422 80.3405 123.488 80.1109 123.488H79.8739V124.103H83.7479V123.488H83.5109C83.0813 123.496 82.7553 123.259 82.5257 122.785ZM74.385 116.518L76.0146 112.414L77.6442 116.518H74.385Z" fill="white"/>
<path d="M100.2 122.644C99.6073 123 99.0814 123.177 98.637 123.177C98.1851 123.177 97.7036 123.037 97.2147 122.762C96.7184 122.488 95.9925 121.688 95.0444 120.377C94.0888 119.051 93.4888 118.185 93.2592 117.785L92.3629 116.407C93.1036 115.948 93.6888 115.4 94.1184 114.762C94.5851 114.059 94.8295 113.303 94.8295 112.518C94.8295 111.837 94.6962 111.244 94.4221 110.762C94.1481 110.281 93.7407 109.888 93.2147 109.607C92.6962 109.333 92.1851 109.17 91.6888 109.118C91.2147 109.074 90.437 109.044 89.3851 109.044H85.0073V109.659H85.237C85.4592 109.659 85.8444 109.696 85.9258 109.896C86.0147 110.111 86.0592 110.4 86.0592 110.748V122.34C86.0592 122.992 85.9777 123.222 85.9258 123.303C85.9036 123.34 85.7777 123.474 85.237 123.496L85.0147 123.503V124.111H89.2444V123.496H89.0073C88.6592 123.496 88.4221 123.429 88.3555 123.318C88.2888 123.214 88.2147 122.977 88.2147 122.474V117.125L90.3333 117.088L91.7036 119.199L91.7481 119.274C93.2814 121.555 94.3333 122.918 94.9629 123.437C95.6073 123.97 96.3925 124.237 97.2888 124.237C98.6073 124.237 99.6962 123.896 100.526 123.214L100.644 123.118L100.452 122.481L100.2 122.644ZM89.5036 116.281H88.2073V109.903H89.1703C90.5258 109.903 91.4814 110.274 91.9999 111.007C92.5407 111.762 92.8147 112.577 92.8147 113.422C92.8147 114.288 92.5555 114.962 92.0147 115.496C91.4814 116.014 90.637 116.281 89.5036 116.281Z" fill="white"/>
<path d="M111.244 120.363C111.2 121.466 111 122.222 110.637 122.6C110.289 122.97 109.711 123.163 108.926 123.163H107.148C106.185 123.163 105.511 123 105.133 122.681C104.77 122.37 104.585 121.807 104.585 121V110.755C104.585 110.192 104.622 110.029 104.637 109.985C104.667 109.911 104.726 109.837 104.829 109.778C104.889 109.741 105.052 109.674 105.467 109.674H105.704V109.059H101.318V109.674L101.548 109.681C102.178 109.696 102.289 109.837 102.304 109.866C102.363 109.97 102.429 110.192 102.429 110.666V122.607C102.429 123.059 102.348 123.252 102.274 123.341C102.237 123.392 102.089 123.511 101.57 123.511H101.333V124.126H111.859V120.148H111.252L111.244 120.363Z" fill="white"/>
<path d="M118.281 109.681L118.526 109.667C118.778 109.652 119.104 109.667 119.207 109.837C119.267 109.933 119.37 110.23 119.37 111.074V122.163C119.37 123.007 119.274 123.252 119.229 123.318C119.207 123.355 119.074 123.489 118.518 123.489H118.281V124.104H122.644V123.489H122.407C121.992 123.489 121.829 123.43 121.77 123.392C121.674 123.333 121.607 123.259 121.578 123.17C121.563 123.133 121.518 122.948 121.518 122.141V110.948C121.518 110.237 121.555 110.007 121.57 109.933C121.6 109.837 121.748 109.778 121.837 109.748C122.037 109.681 122.222 109.652 122.378 109.667L122.637 109.696V109.052H118.274V109.681H118.281Z" fill="white"/>
<path d="M130.911 115.903C130.348 115.644 129.333 115.266 127.822 114.763C127 114.437 126.459 114.088 126.215 113.733C125.97 113.377 125.844 112.948 125.844 112.466C125.844 111.718 126.111 111.096 126.652 110.57C127.185 110.044 127.933 109.777 128.859 109.777C129.415 109.777 129.926 109.874 130.363 110.066C130.807 110.259 131.2 110.54 131.548 110.903C131.793 111.163 131.956 111.333 132.03 111.414V111.6L132.704 111.488L131.911 109.4L131.882 109.251H131.719C131.674 109.229 131.593 109.185 130.711 109.014C128.593 108.6 126.985 108.948 125.859 110.059C125.044 110.866 124.622 111.881 124.622 113.066C124.622 113.718 124.785 114.363 125.104 114.977C125.422 115.6 125.837 116.081 126.319 116.392C126.793 116.696 127.578 117.044 128.726 117.444C129.822 117.822 130.578 118.14 130.956 118.4C131.326 118.651 131.622 118.94 131.83 119.259C132.03 119.57 132.126 119.963 132.126 120.414C132.126 121.177 131.837 121.814 131.237 122.363C130.637 122.911 129.741 123.185 128.563 123.185C127.259 123.185 126.296 122.925 125.696 122.407C125.104 121.903 124.8 120.97 124.785 119.644V119.414H124.17V124.125H128.296C128.511 124.125 128.933 124.088 129.593 124.014C130.267 123.94 130.748 123.829 131.074 123.674C131.393 123.525 131.704 123.296 132.015 123.007C132.319 122.718 132.578 122.4 132.793 122.051C133.007 121.703 133.17 121.333 133.267 120.948C133.363 120.57 133.415 120.17 133.415 119.755C133.415 118.755 133.141 117.918 132.593 117.266C132.052 116.622 131.489 116.17 130.911 115.903Z" fill="white"/>
<path d="M144.356 120.363C144.311 121.466 144.111 122.222 143.748 122.6C143.4 122.97 142.822 123.163 142.037 123.163H140.259C139.296 123.163 138.622 123 138.245 122.681C137.882 122.37 137.696 121.807 137.696 121V110.755C137.696 110.192 137.733 110.029 137.748 109.985C137.778 109.911 137.837 109.837 137.941 109.778C138 109.741 138.163 109.674 138.578 109.674H138.815V109.059H134.43V109.674L134.659 109.681C135.289 109.696 135.4 109.837 135.415 109.866C135.474 109.97 135.541 110.192 135.541 110.666V122.607C135.541 123.059 135.459 123.252 135.385 123.341C135.348 123.392 135.2 123.511 134.682 123.511H134.445V124.126H144.97V120.148H144.363L144.356 120.363Z" fill="white"/>
<path d="M159.089 122.785C158.763 122.096 158.718 121.948 158.711 121.948L153.489 108.97L153.429 108.822H152.852L147.504 122.311C147.215 123.029 147.022 123.251 146.933 123.311C146.778 123.422 146.578 123.481 146.341 123.481H146.104V124.096H148.741V123.481H148.504C148.252 123.481 148.252 123.414 148.252 123.392C148.252 123.37 148.266 123.251 148.459 122.748L150.607 117.385H154.57L156.6 122.422L156.622 122.511C156.644 122.585 156.674 122.644 156.711 122.688C156.881 123.103 156.904 123.288 156.904 123.355C156.904 123.422 156.904 123.488 156.674 123.488H156.437V124.103H160.311V123.488H160.074C159.644 123.496 159.318 123.259 159.089 122.785ZM150.948 116.518L152.578 112.414L154.207 116.518H150.948Z" fill="white"/>
<path d="M173.533 109.666H173.77C174.037 109.666 174.252 109.718 174.407 109.814C174.452 109.844 174.593 109.977 174.593 110.629V120.333L164.059 109.118L163.993 109.044H160.911V109.674L161.156 109.659C161.919 109.622 162.4 109.829 162.6 110.281C162.83 110.8 162.941 111.481 162.941 112.303V122.17C162.941 123.014 162.844 123.251 162.8 123.318C162.77 123.355 162.644 123.481 162.059 123.481H161.822V124.096H165.096V123.511L164.896 123.481C164.378 123.4 164.259 123.348 164.237 123.333C164.193 123.303 164.148 123.229 164.111 123.126C164.082 123.029 164.044 122.829 164.044 122.437V112.237L175.682 124.629V110.755C175.682 110.133 175.793 109.926 175.859 109.851C175.941 109.77 176.133 109.666 176.593 109.651L176.822 109.644V109.037H173.533V109.666Z" fill="white"/>
<path d="M194.126 113.052C193.681 112.126 193.074 111.355 192.318 110.763C191.563 110.17 190.667 109.733 189.652 109.459C188.652 109.185 187.267 109.052 185.555 109.052H178.622V109.667H178.859C179.326 109.667 179.474 109.77 179.526 109.83C179.548 109.859 179.674 110.067 179.674 111.118V121.741C179.674 122.637 179.592 123.037 179.518 123.215C179.467 123.348 179.363 123.496 179.037 123.496H178.622V124.111H185.711C187.504 124.111 188.852 123.97 189.718 123.689C190.6 123.407 191.444 122.874 192.229 122.111C193.015 121.348 193.644 120.43 194.096 119.378C194.555 118.326 194.785 117.237 194.785 116.148C194.792 115.015 194.57 113.978 194.126 113.052ZM191.111 121.237C190.059 122.578 188.178 123.252 185.533 123.252C184.57 123.252 183.807 123.178 183.244 123.03C182.718 122.889 182.348 122.667 182.141 122.37C181.926 122.067 181.822 121.578 181.822 120.911V109.822H183.829C186.807 109.822 189.052 110.518 190.518 111.896C191.978 113.267 192.718 114.918 192.718 116.785C192.718 118.392 192.178 119.889 191.111 121.237Z" fill="white"/>
<path d="M106.104 80.6665H105.837V80.9332V81.0739V81.3332C105.837 81.3332 106.207 81.3406 106.252 81.3406C106.889 81.3406 106.948 81.5702 106.948 82.7406V93.9776C106.948 95.2221 106.926 95.2591 106.104 95.2887L105.844 95.2961V95.5554V95.7035V95.9702H106.111H110.052H110.318V95.7035V95.5554V95.2813L110.044 95.2887H109.978C109.215 95.2887 109.192 95.1554 109.192 93.9554V82.6147C109.192 82.0147 109.207 81.9035 109.207 81.8961V81.8739V81.8517C109.207 81.6443 109.274 81.5184 109.429 81.4369C109.592 81.348 109.8 81.3406 109.911 81.3406C109.963 81.3406 110.318 81.348 110.318 81.348V81.0813V80.9406V80.6739H110.052H106.104V80.6665Z" fill="white"/>
<path d="M99.7703 81.3333L100.044 81.3407C100.355 81.3185 100.57 81.3629 100.681 81.474C100.881 81.6592 100.881 82.1407 100.881 82.7407V93.9778C100.881 94.474 100.874 94.837 100.793 95.0296H90.9259C90.837 94.8222 90.837 94.4444 90.837 93.9555V82.6148C90.837 82.0148 90.8518 81.9037 90.8592 81.8518C90.8592 81.6963 90.9036 81.5778 90.9925 81.4963C91.1703 81.3333 91.511 81.3185 91.6814 81.3333L91.9703 81.3407V80.6666H87.5036V81.3259L87.7777 81.3333C88.0888 81.3111 88.3036 81.3555 88.4147 81.4666C88.6147 81.6518 88.6147 82.1333 88.6147 82.7333V93.9703C88.6147 94.4666 88.6073 94.8296 88.5259 95.0222H75.8073L77.3333 92.5259C77.4296 92.3778 77.5185 92.2296 77.6147 92.0666C78.4073 90.674 78.8296 89.0296 78.8296 87.3111C78.8296 83.3259 75.7481 80.437 71.5036 80.437C65.6147 80.437 62.9629 85.5037 62.9629 89.1037C62.9629 93.1407 66.0814 96.1852 70.2073 96.1852C71.111 96.1852 71.9777 96.074 72.7851 95.8444C72.2814 96.6148 70.8666 98.637 69.8814 99.7629C69.5629 100.141 68.6814 100.859 67.637 100.859C67.1407 100.859 66.9259 100.763 66.7407 100.674C66.5185 100.578 66.3407 100.474 66.2073 100.393C66.1481 100.356 66.0962 100.326 66.0592 100.311L65.7777 100.163L65.5703 100.844L65.7184 100.956C66.1777 101.296 66.474 101.474 66.911 101.652C67.3259 101.815 68.1259 102 68.9999 102C70.2444 102 71.2518 101.496 72.0962 100.467C73.2296 99.0815 74.6073 97.0296 74.6222 97.0148L75.2444 95.9629H104.244V95.2889L103.978 95.2963C103.615 95.3037 103.385 95.2592 103.281 95.1555C103.118 94.9926 103.118 94.5629 103.118 93.9629V82.6222C103.118 82.0222 103.133 81.9111 103.133 81.9037V81.8666C103.133 81.7111 103.178 81.5926 103.267 81.5111C103.444 81.3481 103.785 81.3333 103.955 81.3481L104.244 81.3555V80.6815H99.7777V81.3333H99.7703ZM71.437 94.8889C67.8666 94.8889 64.6147 91.2518 64.6147 87.2666C64.6147 83.9703 67.4666 81.7555 70.1259 81.7555C73.0814 81.7555 77.3777 84.6296 77.3777 89.1333C77.3777 92.1926 74.5999 94.8889 71.437 94.8889Z" fill="white"/>
<path d="M63.6224 84.5405L63.6446 84.4368L63.8002 83.5923L63.8668 83.259L63.5928 83.4664L63.5631 83.4886C63.3261 83.6738 63.1187 83.8294 62.2224 83.8294H61.3557C60.3853 83.4145 59.8594 82.8071 59.8594 82.1256C59.8594 81.9923 59.9039 81.8738 60.0002 81.7775C60.215 81.5627 60.6446 81.4442 61.1853 81.4442C62.0076 81.4442 62.5113 81.7849 62.8224 82.0442L63.0594 82.2368L63.0372 81.9331L62.9853 81.1701L62.9779 81.0886L62.8965 81.059C62.4298 80.8812 61.6446 80.8071 61.1113 80.8071C59.452 80.8071 58.5335 81.3405 58.5335 82.3182C58.5335 82.8219 58.852 83.3923 59.3483 83.8294C58.7853 83.8294 58.3261 83.7775 58.0372 83.2145C58.015 83.1182 57.889 83.1182 57.8298 83.1182H57.7409L57.6965 83.1997L57.689 83.2145V83.2368C57.6816 83.3034 57.6816 83.4219 57.6816 83.5108V83.5775C57.6816 83.8368 57.6965 84.1256 57.8076 84.3034C57.9409 84.5182 58.3483 84.5331 59.0002 84.5331L63.5039 84.5405H63.6224Z" fill="white"/>
<path d="M50.8593 81.3332L51.1334 81.3406C51.4445 81.3184 51.6593 81.3629 51.7705 81.474C51.9705 81.6592 51.9705 82.1406 51.9705 82.7406V93.9777C51.9705 94.474 51.9631 94.8369 51.8816 95.0295H39.1556L40.6742 92.5406C40.7779 92.3925 40.8668 92.2443 40.9631 92.074L41.1853 91.6814H41.1631C41.8223 90.3703 42.1705 88.874 42.1705 87.3184C42.1705 83.3332 39.089 80.4443 34.8371 80.4443C28.9482 80.4443 26.2964 85.511 26.2964 89.111C26.2964 93.148 29.4075 96.1925 33.5408 96.1925C34.4445 96.1925 35.3112 96.0814 36.1186 95.8517C35.6075 96.6295 34.1853 98.6591 33.2149 99.7703C32.8964 100.148 32.0223 100.867 30.9705 100.867C30.4668 100.867 30.2519 100.763 30.0742 100.681C29.8519 100.585 29.6668 100.474 29.5334 100.4C29.4742 100.37 29.4297 100.341 29.3927 100.318L29.1112 100.17L28.9038 100.859L29.0519 100.97C29.5112 101.318 29.8075 101.489 30.2445 101.667C30.6593 101.83 31.4519 102.015 32.3334 102.015C33.5705 102.015 34.5853 101.511 35.4297 100.481C36.4593 99.2295 37.7038 97.3999 37.9482 97.0369L38.5705 95.9777H55.3038V95.3036L55.0371 95.311C54.6742 95.3258 54.4445 95.274 54.3408 95.1703C54.1779 95.0073 54.1779 94.5777 54.1779 93.9777V82.7406C54.1779 82.1629 54.1853 81.9406 54.1927 81.8962V81.8591C54.1927 81.7036 54.2371 81.5851 54.326 81.5036C54.5038 81.3406 54.8445 81.3258 55.0149 81.3406L55.3038 81.348V80.674H50.8371V81.3332H50.8593ZM34.7853 94.8888C31.2149 94.8888 27.9631 91.2517 27.9631 87.2666C27.9631 83.9703 30.8149 81.7554 33.4742 81.7554C36.4297 81.7554 40.726 84.6295 40.726 89.1332C40.726 92.1925 37.9482 94.8888 34.7853 94.8888Z" fill="white"/>
<path d="M26.9335 84.5409L26.9557 84.4372L27.1113 83.5927L27.1705 83.2594L26.8965 83.4668L26.8668 83.489C26.6298 83.6742 26.4224 83.8372 25.5261 83.8372H24.6668C23.6965 83.4223 23.1631 82.8149 23.1631 82.1335C23.1631 81.7186 23.6891 81.452 24.4965 81.452C25.3113 81.452 25.8224 81.7927 26.1409 82.052L26.3779 82.2446L26.3557 81.9409L26.2965 81.1779L26.2891 81.0964L26.2076 81.0668C25.7483 80.889 24.9631 80.8149 24.4224 80.8149C22.7631 80.8149 21.8446 81.3483 21.8446 82.326C21.8446 82.8298 22.1557 83.4001 22.652 83.8372C22.1039 83.8372 21.6298 83.7853 21.3409 83.2223C21.3187 83.1261 21.1928 83.126 21.1335 83.126H21.0446L21.0002 83.2075L20.9928 83.2223V83.2446C20.9854 83.3112 20.9854 83.4298 20.9854 83.5186V83.5853C20.9854 83.8446 21.0002 84.1335 21.1113 84.3112C21.2446 84.526 21.652 84.5335 22.3113 84.5409L26.815 84.5483L26.9335 84.5409Z" fill="white"/>
<path d="M12.6298 80.5112C6.78539 80.5112 4.15576 85.5409 4.15576 89.1112C4.15576 93.1112 7.24465 96.126 11.3335 96.126C15.4521 96.126 19.8891 93.3705 19.8891 87.326C19.8965 83.3779 16.8372 80.5112 12.6298 80.5112ZM12.5706 94.9483C8.96317 94.9483 5.68169 91.2816 5.68169 87.2594C5.68169 83.926 8.56317 81.6816 11.2595 81.6816C13.815 81.6816 18.5854 84.2372 18.5854 89.126C18.578 92.2297 15.7706 94.9483 12.5706 94.9483Z" fill="white"/>
<path d="M5.41499 82.7631C6.03721 82.7631 6.54091 82.2594 6.54091 81.6372C6.54091 81.0149 6.03721 80.5112 5.41499 80.5112C4.79277 80.5112 4.28906 81.0149 4.28906 81.6372C4.28906 82.2594 4.79277 82.7631 5.41499 82.7631Z" fill="white"/>
<path d="M2.64448 80.5112C2.02226 80.5112 1.51855 81.0149 1.51855 81.6372C1.51855 82.2594 2.02226 82.7631 2.64448 82.7631C3.2667 82.7631 3.77041 82.2594 3.77041 81.6372C3.77041 81.0149 3.2667 80.5112 2.64448 80.5112Z" fill="white"/>
<path d="M128.696 80.5112C122.852 80.5112 120.222 85.5409 120.222 89.1112C120.222 93.1112 123.311 96.126 127.4 96.126C131.518 96.126 135.956 93.3705 135.956 87.326C135.963 83.3779 132.904 80.5112 128.696 80.5112ZM128.637 94.9483C125.03 94.9483 121.748 91.2816 121.748 87.2594C121.748 83.926 124.63 81.6816 127.326 81.6816C129.881 81.6816 134.652 84.2372 134.652 89.126C134.644 92.2297 131.837 94.9483 128.637 94.9483Z" fill="white"/>
<path d="M121.481 82.7631C122.104 82.7631 122.607 82.2594 122.607 81.6372C122.607 81.0149 122.104 80.5112 121.481 80.5112C120.859 80.5112 120.355 81.0149 120.355 81.6372C120.355 82.2594 120.859 82.7631 121.481 82.7631Z" fill="white"/>
<path d="M118.711 80.5112C118.089 80.5112 117.585 81.0149 117.585 81.6372C117.585 82.2594 118.089 82.7631 118.711 82.7631C119.334 82.7631 119.837 82.2594 119.837 81.6372C119.837 81.0149 119.334 80.5112 118.711 80.5112Z" fill="white"/>
<path d="M163.615 98.4224C162.992 98.4224 162.489 98.9261 162.489 99.5483C162.489 100.171 162.992 100.674 163.615 100.674C164.237 100.674 164.741 100.171 164.741 99.5483C164.741 98.9261 164.237 98.4224 163.615 98.4224Z" fill="white"/>
<path d="M160.845 98.4224C160.222 98.4224 159.719 98.9261 159.719 99.5483C159.719 100.171 160.222 100.674 160.845 100.674C161.467 100.674 161.971 100.171 161.971 99.5483C161.971 98.9261 161.467 98.4224 160.845 98.4224Z" fill="white"/>
<path d="M194.215 94.6072H192.941C192.837 87.8221 189.504 80.6665 184.044 80.6665C180.607 80.6665 178.993 82.6813 177.793 84.7776C177.274 85.6221 176.933 85.9184 176.422 86.2072L177.83 88.9554C178.896 85.1776 180.889 81.948 183.941 81.948C186.726 81.948 189.437 86.3109 189.541 94.6072L189.556 95.0369H176.311H175.859H172.637C172.867 93.7554 172.911 92.3702 172.911 91.0147V87.5035L172.896 82.6221C172.896 82.0221 172.911 81.9109 172.911 81.9035V81.8813V81.8591C172.911 81.6517 172.978 81.5258 173.133 81.4443C173.296 81.3554 173.504 81.348 173.615 81.348C173.667 81.348 174.022 81.3554 174.022 81.3554V81.0887V80.948V80.6813H173.756H169.815H169.548V80.948V81.0887V81.348C169.548 81.348 169.919 81.3554 169.963 81.3554C170.6 81.3554 170.659 81.585 170.659 82.7554L170.704 88.2295V92.9109C170.504 97.6369 168.689 99.4221 165.044 100.407C165.978 100.481 166.526 100.511 166.852 100.511C170.37 100.511 171.859 98.548 172.459 95.985H175.852H176.304H189.578H189.674H194.23L194.215 94.6072Z" fill="white"/>
<path d="M161.83 95.9626C163.97 95.9626 165.474 94.8071 165.474 92.696V88.0886V82.6219C165.474 82.0219 165.489 81.9108 165.489 81.9034V81.8811V81.8589C165.489 81.6515 165.556 81.5256 165.711 81.4441C165.874 81.3552 166.081 81.3478 166.193 81.3478C166.244 81.3478 166.6 81.3552 166.6 81.3552V81.0886V80.9478V80.6812H166.333H162.393H162.126V80.9478V81.0886V81.3478C162.126 81.3478 162.496 81.3552 162.541 81.3552C163.178 81.3552 163.237 81.5849 163.237 82.7552L163.296 88.1034V92.6367C163.296 94.096 162.741 95.0293 161.407 95.0515H159.844H159.393H156.348H155.896H152.852H150.585H147.57H147.089H143.896C144.126 93.77 144.17 92.3849 144.17 91.0293V87.5182L144.156 82.6367C144.156 82.0367 144.17 81.9256 144.17 81.9182V81.896V81.8737C144.17 81.6663 144.237 81.5404 144.393 81.4589C144.556 81.37 144.763 81.3626 144.874 81.3626C144.926 81.3626 145.281 81.37 145.281 81.37V81.1034V80.9626V80.696H145.015H141.074H140.807V80.9626V81.1034V81.3626C140.807 81.3626 141.178 81.37 141.222 81.37C141.859 81.37 141.919 81.5997 141.919 82.77L141.963 88.2441V92.9256C141.763 97.6515 139.948 99.4367 136.304 100.422C137.237 100.496 137.785 100.526 138.111 100.526C141.63 100.526 143.119 98.5626 143.719 95.9997H147.089H147.57H150.585H152.852H155.896H156.348H159.393H159.844H161.83V95.9626Z" fill="white"/>
<path d="M171.363 78.9555C171.985 78.9555 172.489 78.4518 172.489 77.8295C172.489 77.2073 171.985 76.7036 171.363 76.7036C170.741 76.7036 170.237 77.2073 170.237 77.8295C170.237 78.4518 170.741 78.9555 171.363 78.9555Z" fill="white"/>
<path d="M186.659 98.4224C186.037 98.4224 185.533 98.9261 185.533 99.5483C185.533 100.171 186.037 100.674 186.659 100.674C187.281 100.674 187.785 100.171 187.785 99.5483C187.785 98.9261 187.274 98.4224 186.659 98.4224Z" fill="white"/>
<path d="M56.5111 151.074C56.3999 151.074 56.3036 151.119 56.1629 151.193C56.0074 151.267 55.7925 151.378 55.6222 151.378C55.3777 151.378 55.074 151.348 54.5777 151.022C53.8962 150.571 53.4296 150.274 53.0962 150.074C55.3925 149.422 56.7777 147.534 56.7777 144.948C56.7777 142.022 54.5259 139.808 51.5407 139.808C48.5036 139.808 46.2222 142.045 46.2222 145.008C46.2222 146.808 46.8888 148.311 48.0814 149.222C47.6222 149.6 47.237 150.222 47.237 150.867C47.237 151.237 47.4444 151.459 47.7925 151.459C48.1333 151.459 48.2296 151.119 48.3037 150.867C48.4444 150.385 48.5777 150.067 49.1259 150.067C49.7925 150.067 50.7851 150.697 51.7481 151.304C52.8074 151.971 53.8148 152.608 54.6296 152.608C55.7555 152.608 56.4888 152.252 56.7703 151.948C56.9333 151.778 56.9629 151.615 56.9555 151.534C56.9555 151.222 56.7259 151.074 56.5111 151.074ZM47.837 144.622C47.837 142.815 48.8666 140.874 51.1333 140.874C53.6592 140.874 55.1629 143.208 55.1629 145.467C55.1629 147.711 53.8148 149.282 51.8814 149.282C49.2518 149.282 47.837 146.882 47.837 144.622Z" fill="white"/>
<path d="M68.7038 149.296C68.4667 149.252 68.2149 149.215 68.0519 148.963C67.8371 148.637 67.6889 148.252 67.5482 147.874C67.4964 147.733 67.4445 147.593 67.3852 147.452L64.5482 140.422L64.5334 140.378C64.4593 140.141 64.3334 139.741 64.0001 139.741C63.6815 139.741 63.6075 139.911 63.1778 140.844C63.0593 141.104 62.9112 141.43 62.7186 141.844L59.4593 148.807C59.2964 149.163 59.0741 149.237 58.8741 149.296C58.7186 149.348 58.4297 149.437 58.4297 149.756C58.4297 150 58.6075 150.193 58.8371 150.193C59.0223 150.193 59.2075 150.178 59.3926 150.163C59.5704 150.148 59.7482 150.133 59.926 150.133C60.1112 150.133 60.2964 150.148 60.4815 150.163C60.6815 150.178 60.8741 150.193 61.0741 150.193H61.1334H61.2075C61.6889 150.193 61.726 149.815 61.726 149.704C61.726 149.333 61.3556 149.267 61.1852 149.237C60.9038 149.185 60.763 149.163 60.763 148.8C60.763 148.674 60.8075 148.504 60.8371 148.437L61.7038 146.526C61.7556 146.422 61.8075 146.407 62.0889 146.407H65.0964C65.2741 146.407 65.2964 146.43 65.4297 146.741L65.8667 147.867C65.8964 147.948 65.9334 148.044 65.9778 148.141C66.0964 148.437 66.2741 148.881 66.2741 149.059C66.2741 149.118 66.2445 149.156 65.9852 149.244C65.7852 149.311 65.4519 149.422 65.4519 149.77C65.4519 149.896 65.5112 150.185 66.0371 150.185C66.2297 150.185 66.4223 150.17 66.6149 150.156C66.7926 150.141 66.9704 150.126 67.1482 150.126C67.4223 150.126 67.7038 150.141 67.9778 150.156C68.2593 150.17 68.5482 150.185 68.8297 150.185C69.2519 150.185 69.2964 149.904 69.2964 149.778C69.2964 149.393 68.9112 149.326 68.7038 149.296ZM62.3408 145.244L63.6519 142.422L64.8075 145.244H62.3408Z" fill="white"/>
<path d="M80.0665 140.615C80.0443 140.148 79.8443 139.956 79.3851 139.956C79.3184 139.956 79.1851 139.956 78.9851 139.963C78.4147 139.978 77.2369 140.007 75.3851 140.007C74.3999 140.007 73.6369 139.993 72.9628 139.978C72.4369 139.963 71.9702 139.956 71.5036 139.956C71.0221 139.956 70.9925 140.511 70.9851 140.696V140.756L70.8369 142.067C70.8369 142.311 71.0073 142.548 71.2591 142.548C71.6295 142.548 71.711 142.207 71.7406 142.081L71.7554 142.03L71.7851 141.941C71.9999 141.289 71.9999 141.281 72.6073 141.281H74.6888C74.6962 141.333 74.6962 141.422 74.6888 141.556V141.63V148.726C74.6888 149 74.5184 149.089 74.1554 149.215C73.9258 149.296 73.6073 149.407 73.6073 149.733C73.6073 150.022 73.7777 150.193 74.0591 150.193C74.0814 150.193 74.111 150.193 74.1554 150.185C74.3036 150.17 74.7036 150.133 75.9332 150.133C76.1332 150.133 76.3258 150.148 76.5184 150.163C76.7036 150.178 76.8814 150.193 77.0443 150.193C77.1925 150.193 77.2814 150.126 77.3332 150.074C77.4517 149.956 77.4443 149.8 77.4443 149.748C77.4443 149.363 77.074 149.274 76.8665 149.23C76.548 149.156 76.3332 149.111 76.3332 148.622V141.659V141.459C76.3332 141.393 76.3332 141.326 76.3332 141.274C76.348 141.274 76.3628 141.274 76.3777 141.274H76.4665H76.5925H78.548C79.1628 141.274 79.1777 141.452 79.2073 141.726C79.2221 141.904 79.2591 142.311 79.711 142.311C79.8814 142.311 79.9851 142.237 80.0369 142.178C80.1777 142.03 80.1554 141.83 80.148 141.704L80.0665 140.615Z" fill="white"/>
<path d="M91.9849 149.296C91.7405 149.252 91.4886 149.215 91.3331 148.963C91.1183 148.63 90.9701 148.237 90.8294 147.852C90.7775 147.719 90.7257 147.578 90.6738 147.452L87.8294 140.415L87.822 140.385C87.7479 140.141 87.6294 139.733 87.2886 139.733C86.9701 139.733 86.896 139.896 86.4738 140.815C86.3553 141.074 86.1997 141.407 86.0072 141.837L82.7479 148.8C82.5849 149.156 82.3627 149.23 82.1627 149.289C82.0072 149.341 81.7183 149.43 81.7183 149.748C81.7183 149.993 81.896 150.185 82.1257 150.185C82.3109 150.185 82.496 150.17 82.6812 150.156C82.859 150.141 83.0368 150.126 83.2146 150.126C83.3997 150.126 83.5849 150.141 83.7701 150.156C83.9701 150.17 84.1627 150.185 84.3627 150.185H84.422H84.496C84.9627 150.185 85.0146 149.845 85.0146 149.696C85.0146 149.326 84.6442 149.259 84.4664 149.23C84.1849 149.178 84.0368 149.156 84.0368 148.793C84.0368 148.667 84.0812 148.504 84.1109 148.422L84.9775 146.519C85.0294 146.415 85.0812 146.4 85.3627 146.4H88.3701C88.5479 146.4 88.5701 146.415 88.7034 146.726L89.1479 147.859C89.1775 147.948 89.222 148.052 89.2664 148.17C89.3775 148.452 89.5479 148.882 89.5479 149.052C89.5479 149.111 89.5183 149.148 89.259 149.237C89.059 149.304 88.7257 149.415 88.7257 149.763C88.7257 149.889 88.7849 150.178 89.3109 150.178C89.5034 150.178 89.696 150.163 89.8812 150.148C90.059 150.133 90.2294 150.119 90.4072 150.119C90.6812 150.119 90.9627 150.133 91.2368 150.148C91.5183 150.163 91.8071 150.178 92.0886 150.178C92.5183 150.178 92.5627 149.896 92.5627 149.77C92.5775 149.393 92.1923 149.326 91.9849 149.296ZM85.6146 145.245L86.9331 142.422L88.0812 145.245H85.6146Z" fill="white"/>
<path d="M103.155 149.311C102.918 149.259 102.481 149.163 101.896 148.267L99.7923 145.082C100.755 144.578 101.377 143.615 101.377 142.6C101.377 140.919 100.215 139.948 98.1923 139.948C98.0664 139.948 97.9701 139.956 97.9108 139.956H97.859C97.5108 139.956 97.1405 139.97 96.7701 139.985C96.3849 140 95.9849 140.015 95.5849 140.015C95.1701 140.015 95.0442 139.993 94.9553 139.978C94.8812 139.963 94.8219 139.956 94.7108 139.956C94.3997 139.956 94.1553 140.148 94.1553 140.4C94.1553 140.808 94.5405 140.882 94.7553 140.919C95.0886 140.985 95.3331 141.03 95.3331 141.615V148.563C95.3331 149.03 95.0886 149.133 94.8145 149.245C94.6219 149.319 94.3405 149.437 94.3405 149.748C94.3405 149.993 94.5256 150.185 94.7553 150.185C95.0219 150.185 95.2812 150.17 95.5479 150.156C95.7997 150.141 96.059 150.126 96.3108 150.126C97.1553 150.126 97.5405 150.156 97.7256 150.17C97.7997 150.178 97.8516 150.178 97.8812 150.178H97.9627C98.2812 150.178 98.3923 149.963 98.3923 149.785C98.3923 149.378 97.9923 149.289 97.696 149.222C97.2442 149.119 96.9701 149.037 96.9701 148.57V145.689C96.9701 145.667 96.9701 145.645 96.9701 145.615C96.9701 145.607 96.9701 145.6 96.9701 145.593C96.9849 145.593 97.0145 145.585 97.0442 145.585H97.2738H97.4516C98.259 145.585 98.259 145.585 98.4886 145.963C98.5256 146.03 98.5701 146.096 98.6294 146.178L100.14 148.563C100.6 149.245 101.215 150.17 102.429 150.17C103.148 150.17 103.6 150.096 103.6 149.719C103.592 149.408 103.303 149.341 103.155 149.311ZM98.1775 144.57C98.0664 144.57 97.9553 144.57 97.8368 144.578C97.7182 144.578 97.6071 144.585 97.496 144.585C97.1997 144.585 97.0516 144.57 96.9775 144.556V141.2C96.9775 140.978 96.9775 140.978 97.3553 140.978H97.4145H97.4738C98.3405 140.978 99.7997 141.23 99.7997 142.926C99.7923 144.415 98.659 144.57 98.1775 144.57Z" fill="white"/>
<path d="M145.081 141.667C145.504 141.667 145.852 141.326 145.852 140.896C145.852 140.467 145.504 140.126 145.081 140.126C144.659 140.126 144.311 140.474 144.311 140.896C144.311 141.319 144.652 141.667 145.081 141.667Z" fill="white"/>
<path d="M147.504 141.667C147.926 141.667 148.274 141.326 148.274 140.896C148.274 140.467 147.926 140.126 147.504 140.126C147.082 140.126 146.733 140.474 146.733 140.896C146.733 141.319 147.082 141.667 147.504 141.667Z" fill="white"/>
<path d="M149.037 149.304C148.748 149.215 148.422 149.118 148.422 148.289V144.77C148.422 143.948 148.681 143.933 148.985 143.918C149.148 143.911 149.541 143.889 149.541 143.481C149.541 143.222 149.355 143.03 149.111 143.03C149.074 143.03 149.007 143.037 148.903 143.037C148.666 143.052 148.281 143.081 147.718 143.081C147.385 143.081 147.163 143.067 146.948 143.052C146.726 143.037 146.503 143.022 146.17 143.022C143.741 143.022 142.289 144.096 142.289 145.889C142.289 145.918 142.326 148.741 145.837 148.741C145.844 148.741 146.496 148.741 146.822 148.504C146.741 149.074 146.511 149.081 146.333 149.081C146.296 149.081 146.259 149.081 146.252 149.081H135.355C135.459 148.57 135.511 148.03 135.511 147.474C135.511 144.733 132.918 142.896 130.496 142.896C129.815 142.896 129.229 142.911 128.689 142.933H128.57V141.385C128.57 140.926 128.792 140.867 129.074 140.785C129.252 140.741 129.548 140.659 129.548 140.348C129.548 139.963 129.178 139.963 129.044 139.963C128.829 139.963 128.615 139.978 128.4 139.993C127.948 140.022 127.496 140.015 127.044 139.993C126.792 139.978 126.541 139.963 126.281 139.963C126.141 139.963 125.903 140.015 125.903 140.355C125.903 140.659 126.207 140.733 126.407 140.778C126.778 140.867 127 140.955 127.007 141.37V148.326C127.007 148.874 126.815 149.015 126.696 149.067H115.822V144.267C115.822 143.77 115.992 143.733 116.207 143.681C116.341 143.652 116.622 143.585 116.622 143.289C116.622 143.089 116.489 142.852 116.118 142.852C115.985 142.852 115.852 142.859 115.689 142.874C115.474 142.889 115.215 142.911 114.844 142.911C114.541 142.911 114.318 142.896 114.104 142.881C113.881 142.867 113.666 142.852 113.378 142.852C113.044 142.852 112.926 143.059 112.926 143.244C112.926 143.57 113.244 143.637 113.474 143.689C113.866 143.778 114.244 143.867 114.244 144.555V152.578C114.244 153.593 113.955 154.304 113.541 154.304C113.422 154.304 113.274 154.155 113.163 154.037C113.022 153.896 112.889 153.755 112.696 153.755C112.185 153.755 112.148 154.755 112.148 154.763C112.148 155.296 112.363 155.496 112.926 155.496C114.541 155.496 115.807 153.726 115.807 151.467V150.059H147.392H147.481H147.533C147.881 150.059 148.178 150.074 148.437 150.089C148.644 150.096 148.837 150.111 149.015 150.111C149.237 150.111 149.481 149.97 149.481 149.704C149.481 149.444 149.207 149.355 149.037 149.304ZM133.948 149.104H128.829C128.637 149.022 128.563 148.911 128.563 148.704V144.363C128.563 143.844 128.563 143.755 129.659 143.755C132.304 143.77 134.007 145.533 134.007 148.252C134.015 148.533 133.992 148.807 133.948 149.104ZM146.852 147.896C146.755 147.837 146.689 147.815 146.429 147.859C146.281 147.881 146.059 147.918 145.741 147.918C144.852 147.918 143.785 147.637 143.785 146.281C143.785 144.607 145.178 144.015 146.37 144.015C146.852 144.015 146.852 144.037 146.852 144.178V147.896Z" fill="white"/>
</g>
<defs>
<radialGradient id="paint0_radial_3274_16250" cx="0" cy="0" r="1" gradientUnits="userSpaceOnUse" gradientTransform="translate(99.6444 11.4167) scale(24.1169 24.1169)">
<stop stop-color="white"/>
<stop offset="1" stop-color="#816D4E"/>
</radialGradient>
<clipPath id="clip0_3274_16250">
<rect width="193.83" height="154.578" fill="white" transform="translate(0.962891 0.962891)"/>
</clipPath>
</defs>
</svg>
