<svg xmlns="http://www.w3.org/2000/svg" width="168" height="118" viewBox="0 0 168 118" fill="none">
  <path d="M122.322 13.0221C126.05 17.9785 128.27 24.1375 128.27 30.8121C128.27 47.2275 114.961 60.5369 98.532 60.5369C82.1299 60.5369 68.8072 47.2275 68.8072 30.8121C68.8072 14.3967 82.1166 1.08725 98.532 1.08725C99.1004 1.08725 99.6687 1.14011 100.224 1.17977C99.0211 1.03438 97.8051 0.955078 96.5495 0.955078C77.993 0.955078 62.9653 15.9959 62.9653 34.5525C62.9653 53.0958 78.0062 68.1366 96.5495 68.1366C115.106 68.1366 130.147 53.0958 130.147 34.5525C130.147 26.358 127.2 18.8508 122.322 13.0221Z" fill="#E6EBF0" fill-opacity="0.16"/>
  <path d="M108.643 81.2217C147.778 68.7053 146.853 7.35238 105.246 2.18457C143.139 9.01771 137.773 57.1669 116.52 68.7053C79.5129 88.795 53.9778 54.0742 0 71.4544C49.8145 61.7267 74.1204 92.2578 108.643 81.2217Z" fill="#E6EBF0" fill-opacity="0.16"/>
  <path d="M168 57.748C130.293 101.403 71.4905 86.6931 35.937 78.221C77.8082 93.3808 136.082 116.405 168 57.748Z" fill="#E6EBF0" fill-opacity="0.16"/>
  <path d="M156.145 96.0511C91.8444 140.143 77.5702 67.0136 0.727051 95.4828C60.7847 76.5298 78.0724 153.915 156.145 96.0511Z" fill="#E6EBF0" fill-opacity="0.16"/>
</svg>