<svg width="16" height="16" viewBox="0 0 16 16" fill="none" xmlns="http://www.w3.org/2000/svg">
<g id="Group">
<path id="Vector" d="M8.91343 1.89565C8.82732 1.72757 8.6965 1.58652 8.53536 1.48802C8.37423 1.38952 8.18904 1.3374 8.00018 1.3374C7.81133 1.3374 7.62614 1.38952 7.465 1.48802C7.30387 1.58652 7.17305 1.72757 7.08694 1.89565L1.44326 13.183C1.36455 13.3392 1.32707 13.5129 1.3344 13.6877C1.34172 13.8625 1.39359 14.0325 1.48509 14.1815C1.57659 14.3306 1.70469 14.4538 1.8572 14.5395C2.00972 14.6251 2.1816 14.6703 2.35651 14.6709H13.6439C13.8188 14.6703 13.9906 14.6251 14.1432 14.5395C14.2957 14.4538 14.4238 14.3306 14.5153 14.1815C14.6068 14.0325 14.6587 13.8625 14.666 13.6877C14.6733 13.5129 14.6358 13.3392 14.5571 13.183L8.91343 1.89565Z" fill="#FFA10A" stroke="#FFA10A" stroke-width="1.4" stroke-linecap="round" stroke-linejoin="round"/>
<path id="Vector_2" d="M8 5.94873V9.0271" stroke="white" stroke-width="1.4" stroke-linecap="round" stroke-linejoin="round"/>
<path id="Vector_3" d="M8.00037 12.6184C8.28372 12.6184 8.51343 12.3887 8.51343 12.1053C8.51343 11.822 8.28372 11.5923 8.00037 11.5923C7.71701 11.5923 7.4873 11.822 7.4873 12.1053C7.4873 12.3887 7.71701 12.6184 8.00037 12.6184Z" stroke="white" stroke-width="1.4" stroke-linecap="round" stroke-linejoin="round"/>
</g>
</svg>
